<svg width="146" height="97" viewBox="0 0 146 97" fill="none" xmlns="http://www.w3.org/2000/svg">
<g filter="url(#filter0_d_124_13)">
<path d="M108 15.521L108 81.6152C108 88.851 100.553 93.6916 93.9401 90.754L20.3507 58.0622C12.4653 54.5592 12.4204 43.3839 20.2774 39.8175L93.8668 6.41509C100.487 3.41002 108 8.25037 108 15.521Z" fill="#FFC446"/>
</g>
<g filter="url(#filter1_d_124_13)">
<path d="M146 15.521L146 81.6152C146 88.851 138.553 93.6916 131.94 90.754L58.3507 58.0622C50.4653 54.5592 50.4204 43.3839 58.2774 39.8175L131.867 6.41509C138.487 3.41002 146 8.25037 146 15.521Z" fill="#FFC446"/>
</g>
<defs>
<filter id="filter0_d_124_13" x="14.4106" y="5.5094" width="93.5894" height="91.1171" filterUnits="userSpaceOnUse" color-interpolation-filters="sRGB">
<feFlood flood-opacity="0" result="BackgroundImageFix"/>
<feColorMatrix in="SourceAlpha" type="matrix" values="0 0 0 0 0 0 0 0 0 0 0 0 0 0 0 0 0 0 127 0" result="hardAlpha"/>
<feOffset dy="5"/>
<feComposite in2="hardAlpha" operator="out"/>
<feColorMatrix type="matrix" values="0 0 0 0 0.937255 0 0 0 0 1 0 0 0 0 0.752941 0 0 0 1 0"/>
<feBlend mode="normal" in2="BackgroundImageFix" result="effect1_dropShadow_124_13"/>
<feBlend mode="normal" in="SourceGraphic" in2="effect1_dropShadow_124_13" result="shape"/>
</filter>
<filter id="filter1_d_124_13" x="52.4106" y="5.5094" width="93.5894" height="91.1171" filterUnits="userSpaceOnUse" color-interpolation-filters="sRGB">
<feFlood flood-opacity="0" result="BackgroundImageFix"/>
<feColorMatrix in="SourceAlpha" type="matrix" values="0 0 0 0 0 0 0 0 0 0 0 0 0 0 0 0 0 0 127 0" result="hardAlpha"/>
<feOffset dy="5"/>
<feComposite in2="hardAlpha" operator="out"/>
<feColorMatrix type="matrix" values="0 0 0 0 0.937255 0 0 0 0 1 0 0 0 0 0.752941 0 0 0 1 0"/>
<feBlend mode="normal" in2="BackgroundImageFix" result="effect1_dropShadow_124_13"/>
<feBlend mode="normal" in="SourceGraphic" in2="effect1_dropShadow_124_13" result="shape"/>
</filter>
</defs>
</svg>
