<svg width="53" height="53" viewBox="0 0 53 53" fill="none" xmlns="http://www.w3.org/2000/svg">
<path d="M26.5 0.25C12.0362 0.25 0.25 12.0362 0.25 26.5C0.25 40.9637 12.0362 52.75 26.5 52.75C40.9637 52.75 52.75 40.9637 52.75 26.5C52.75 12.0362 40.9637 0.25 26.5 0.25ZM37.9187 35.8712C37.5512 36.5012 36.895 36.8425 36.2125 36.8425C35.8712 36.8425 35.53 36.7637 35.215 36.5537L27.0775 31.6975C25.0562 30.49 23.56 27.8387 23.56 25.5025V14.74C23.56 13.6637 24.4525 12.7712 25.5287 12.7712C26.605 12.7712 27.4975 13.6637 27.4975 14.74V25.5025C27.4975 26.4475 28.285 27.8387 29.0987 28.3112L37.2362 33.1675C38.1812 33.7187 38.4962 34.9262 37.9187 35.8712Z" fill="#D9D9D9"/>
</svg>
