<svg width="328" height="336" viewBox="0 0 328 336" fill="none" xmlns="http://www.w3.org/2000/svg">
<path d="M154.075 129.811L166.134 130.253C171.499 130.695 176.753 127.322 175.869 120.684L175.15 95.9593C175.094 92.696 173.325 89.7647 170.448 88.1604L97.6025 46.7318C101.916 30.8568 95.1118 13.4331 80.1224 4.85991C62.312 -5.26196 39.6341 0.93266 29.5669 18.743C25.0314 26.7635 23.7034 35.9451 25.5293 44.6843C17.1221 47.5053 9.87592 53.4235 5.28472 61.3884C-4.83716 79.1988 1.35746 101.766 19.1679 111.888C34.1025 120.407 52.576 117.309 64.0814 105.528L143.289 150.607C150.424 154.7 158.112 149.833 156.895 140.098L154.075 129.811ZM142.183 110.672C134.661 110.672 129.959 117.089 133.056 123.339L66.2393 85.3395C61.7593 82.7402 56.0618 84.3436 53.5728 88.8244C48.5393 97.6192 37.3111 100.717 28.4615 95.683C19.6667 90.6494 16.5694 79.4212 21.6029 70.5717C24.9766 64.5978 31.3381 61.0581 38.1966 61.3345C45.3316 61.3901 49.9784 54.2543 46.3275 47.009C42.6219 41.2567 42.4002 33.9002 45.7748 27.9819C50.8083 19.1871 62.0365 16.0898 70.8861 21.1234C79.6809 26.1569 82.7782 37.3851 77.7447 46.2347C75.1453 50.7146 76.7487 56.4122 81.2296 58.9011L156.62 101.824L156.896 111.282L142.183 110.672Z" fill="#1A4771"/>
<path d="M142.184 110.672L156.841 111.281L156.565 101.822L81.1742 58.9002C76.6943 56.3008 75.1456 50.6589 77.6893 46.2337C82.7229 37.4389 79.6256 26.1551 70.8308 21.1224C62.0359 16.0897 50.7522 19.1862 45.7195 27.981C42.3458 33.9549 42.5665 41.201 46.2722 47.0081C49.8675 54.1986 45.2762 61.3335 38.1413 61.3335C31.2827 61.1119 24.9213 64.6525 21.5476 70.5707C16.514 79.3655 19.6114 90.6493 28.4062 95.6829C37.201 100.716 48.4848 97.6191 53.5175 88.8243C56.1168 84.3443 61.7587 82.7957 66.2396 85.3394L133.057 123.394C129.904 117.143 134.605 110.727 142.184 110.672Z" fill="#1389A5"/>
<path d="M322.611 255.701C314.148 241.375 297.334 233.797 280.684 238.499L220.118 133.682C215.085 127.654 209.664 127.21 203.857 133.904L196.776 146.792L184.386 138.883C177.748 135.453 173.545 138.274 170.392 144.248L164.252 166.816C163.588 169.194 163.92 171.794 165.192 173.951L222.108 272.461C209.94 284.741 207.451 304.045 216.024 317.431C233.89 347.244 275.153 338.338 283.284 310.682C285.717 311.125 288.151 311.401 290.696 311.401C297.168 311.401 303.528 309.687 309.226 306.423C326.704 296.134 332.844 273.456 322.611 255.701ZM299.712 290.215C293.904 293.589 286.382 293.368 280.685 289.828C274.269 285.79 266.802 289.938 266.415 298.069C265.308 320.691 240.584 322.572 232.121 307.97C227.475 298.125 229.521 288.777 238.869 282.858C243.626 279.429 244.621 275.114 242.298 270.081L183.224 167.92L184.995 161.338L195.116 167.81C200.537 170.521 204.962 169.414 208.337 164.436L212.264 157.356L268.572 254.872C270.84 258.577 276.702 261.232 281.46 258.301C290.033 252.936 301.759 256.808 306.46 264.994C311.493 273.843 308.507 285.127 299.712 290.215Z" fill="#1A4771"/>
<path d="M280.685 289.829C286.382 293.424 293.849 293.59 299.712 290.216C308.506 285.128 311.548 273.899 306.46 265.105C301.758 256.864 290.088 253.047 281.459 258.412C276.757 261.233 270.839 258.689 268.571 254.983L212.263 157.413L208.336 164.548C204.962 169.525 200.537 170.632 195.116 167.921L184.994 161.449L183.224 167.976L242.242 270.193C244.621 275.227 243.57 279.43 238.813 282.97C229.465 288.944 227.418 298.236 232.064 308.081C240.472 322.684 265.252 320.803 266.358 298.18C266.801 289.939 274.268 285.791 280.685 289.829Z" fill="#FFC446"/>
</svg>
