<svg width="68" height="68" viewBox="0 0 68 68" fill="none" xmlns="http://www.w3.org/2000/svg">
<path d="M66.7152 40.8139L61.5347 36.7226C60.7093 36.0708 60.2511 35.0719 60.2507 34.0202C60.2507 34.009 60.2507 33.9979 60.2507 33.9867C60.2488 32.9327 60.7076 31.931 61.5346 31.2779L66.7152 27.1864C67.9016 26.2494 68.3213 24.6384 67.7428 23.2418L65.4672 17.7479C64.8886 16.3512 63.4528 15.5086 61.9514 15.685L55.3949 16.4553C54.3482 16.5783 53.3156 16.1942 52.5716 15.4478C52.5638 15.4398 52.5559 15.432 52.5481 15.4242C51.8047 14.6801 51.4224 13.6498 51.5451 12.6052L52.3153 6.0492C52.4916 4.54775 51.6492 3.11191 50.2526 2.53338L44.7585 0.257774C43.3619 -0.320757 41.7508 0.0989301 40.8138 1.28521L36.7226 6.46556C36.0707 7.29099 35.0717 7.7492 34.02 7.74959C34.0088 7.74959 33.9976 7.74959 33.9865 7.74959C32.9326 7.75145 31.9309 7.29272 31.2778 6.4657L27.1865 1.28521C26.2495 0.0987974 24.6385 -0.320757 23.2417 0.257774L17.7479 2.53325C16.3512 3.11178 15.5087 4.54762 15.6851 6.0492L16.4552 12.6056C16.5782 13.6523 16.1944 14.6849 15.4478 15.4288C15.44 15.4366 15.4322 15.4445 15.4242 15.4525C14.6802 16.1959 13.6498 16.5783 12.6051 16.4555L6.0491 15.6853C4.54766 15.5089 3.11182 16.3513 2.53329 17.748L0.257682 23.2419C-0.320849 24.6386 0.0988386 26.2496 1.28512 27.1866L6.46561 31.2779C7.29103 31.9297 7.74924 32.9286 7.74964 33.9803C7.74964 33.9915 7.74964 34.0025 7.74964 34.0137C7.7515 35.0675 7.29276 36.0692 6.46574 36.7224L1.28512 40.8139C0.0987059 41.7509 -0.320849 43.3619 0.257682 44.7586L2.53329 50.2524C3.11182 51.649 4.54779 52.4916 6.0491 52.3152L12.6055 51.545C13.6524 51.4221 14.6848 51.806 15.4289 52.5526C15.4367 52.5604 15.4445 52.5684 15.4525 52.5762C16.1958 53.3204 16.5782 54.3506 16.4555 55.3953L15.6853 61.9514C15.5089 63.4529 16.3514 64.8887 17.7482 65.4673L23.2421 67.7429C24.6387 68.3214 26.2498 67.9017 27.1867 66.7154L31.2779 61.5351C31.9297 60.7096 32.9288 60.2514 33.9804 60.2509C33.9915 60.2509 34.0027 60.2509 34.0137 60.2509C35.0677 60.2491 36.0694 60.7078 36.7226 61.5348L40.814 66.7154C41.751 67.9018 43.362 68.3215 44.7586 67.7429L50.2526 65.4673C51.6492 64.8887 52.4918 63.4528 52.3154 61.9514L51.5451 55.395C51.4221 54.3483 51.8061 53.3157 52.5526 52.5718C52.5604 52.564 52.5684 52.556 52.5763 52.5482C53.3203 51.8048 54.3506 51.4225 55.3952 51.5452L61.9514 52.3154C63.4528 52.4917 64.8888 51.6493 65.4672 50.2526L67.7428 44.7589C68.3213 43.3619 67.9016 41.7509 66.7152 40.8139ZM37.3593 43.7883C32.0893 45.9712 26.0473 43.4686 23.8646 38.1986C21.6817 32.9286 24.1843 26.8868 29.4543 24.7038C34.7243 22.5209 40.7662 25.0235 42.9491 30.2936C45.1318 35.5636 42.6293 41.6054 37.3593 43.7883Z" fill="#C4C4C4"/>
</svg>
