<svg width="75" height="83" viewBox="0 0 75 83" fill="none" xmlns="http://www.w3.org/2000/svg">
<g filter="url(#filter0_d_123_4)">
<path d="M0 74V4C0 1.79086 1.79086 0 4 0H24C26.2091 0 28 1.79086 28 4V74C28 76.2091 26.2091 78 24 78H4C1.79086 78 0 76.2091 0 74Z" fill="#FFC446"/>
</g>
<g filter="url(#filter1_d_123_4)">
<path d="M47 74V4C47 1.79086 48.7909 0 51 0H71C73.2091 0 75 1.79086 75 4V74C75 76.2091 73.2091 78 71 78H51C48.7909 78 47 76.2091 47 74Z" fill="#FFC446"/>
</g>
<defs>
<filter id="filter0_d_123_4" x="0" y="0" width="28" height="83" filterUnits="userSpaceOnUse" color-interpolation-filters="sRGB">
<feFlood flood-opacity="0" result="BackgroundImageFix"/>
<feColorMatrix in="SourceAlpha" type="matrix" values="0 0 0 0 0 0 0 0 0 0 0 0 0 0 0 0 0 0 127 0" result="hardAlpha"/>
<feOffset dy="5"/>
<feComposite in2="hardAlpha" operator="out"/>
<feColorMatrix type="matrix" values="0 0 0 0 0.937255 0 0 0 0 1 0 0 0 0 0.752941 0 0 0 1 0"/>
<feBlend mode="normal" in2="BackgroundImageFix" result="effect1_dropShadow_123_4"/>
<feBlend mode="normal" in="SourceGraphic" in2="effect1_dropShadow_123_4" result="shape"/>
</filter>
<filter id="filter1_d_123_4" x="47" y="0" width="28" height="83" filterUnits="userSpaceOnUse" color-interpolation-filters="sRGB">
<feFlood flood-opacity="0" result="BackgroundImageFix"/>
<feColorMatrix in="SourceAlpha" type="matrix" values="0 0 0 0 0 0 0 0 0 0 0 0 0 0 0 0 0 0 127 0" result="hardAlpha"/>
<feOffset dy="5"/>
<feComposite in2="hardAlpha" operator="out"/>
<feColorMatrix type="matrix" values="0 0 0 0 0.937255 0 0 0 0 1 0 0 0 0 0.752941 0 0 0 1 0"/>
<feBlend mode="normal" in2="BackgroundImageFix" result="effect1_dropShadow_123_4"/>
<feBlend mode="normal" in="SourceGraphic" in2="effect1_dropShadow_123_4" result="shape"/>
</filter>
</defs>
</svg>
