<svg width="267" height="288" viewBox="0 0 267 288" fill="none" xmlns="http://www.w3.org/2000/svg">
<path d="M10.5653 201.048C9.42141 186.863 8.08682 179.027 7.56251 176.882C-7.45167 169.304 277.675 167.874 251.364 215.204C225.054 262.535 219.191 249.951 213.614 251.953C208.038 253.955 204.606 267.682 192.88 267.11C181.155 266.538 154.13 287.272 111.375 287.844C68.6202 288.416 57.4668 268.683 51.8901 261.534C46.3134 254.384 35.732 253.526 22.5767 242.945C9.42141 232.363 11.9953 218.779 10.5653 201.048Z" fill="#FBD4D5"/>
<path d="M27.7602 193.829C26.6967 183.21 25.4559 177.343 24.9685 175.738C11.01 170.064 276.088 168.994 251.627 204.427C227.167 239.86 221.716 230.44 216.532 231.938C211.347 233.437 208.157 243.714 197.256 243.286C186.355 242.857 161.23 258.38 121.481 258.808C81.7329 259.236 71.3638 244.463 66.1792 239.111C60.9946 233.758 51.1572 233.116 38.927 225.194C26.6967 217.273 29.0896 207.103 27.7602 193.829Z" fill="#FFF4E6"/>
<path d="M80.3271 196.82C71.741 177.287 74.9819 169.002 77.6755 167.302C113.577 187.405 193.487 223.131 225.912 205.201C266.443 182.79 227.68 252.029 219.22 252.029C212.452 252.029 187.022 248.142 175.153 246.198C171.449 253.244 161.365 268.246 150.657 271.89C137.273 276.445 118.207 255.855 112.778 252.029C107.348 248.203 105.707 233.99 105.707 241.096C105.707 248.203 96.3629 249.478 99.0145 246.198C101.666 242.919 95.479 227.613 96.3629 233.99C97.2468 240.368 84.7464 235.995 88.4081 233.99C92.0699 231.986 91.0597 221.236 80.3271 196.82Z" fill="#FBD4D5"/>
<mask id="mask0_82_864" style="mask-type:alpha" maskUnits="userSpaceOnUse" x="114" y="170" width="114" height="77">
<path d="M143.949 244.25C135.585 247.397 122.396 246.873 114.182 244.25C110.463 218.314 164.593 180.559 195.424 178.45C196.934 176.317 212.698 160.333 220.196 178.814C227.006 195.601 230.049 202.427 224.374 208.328C225.22 208.911 195.887 255.616 182.595 244.25C173.009 236.054 154.404 240.316 143.949 244.25Z" fill="#C8447D"/>
</mask>
<g mask="url(#mask0_82_864)">
<path d="M145.938 253.749C130.906 259.624 87.4927 291.437 72.7297 286.541C66.0452 238.13 163.329 167.658 218.74 163.722C221.454 159.739 249.784 129.905 263.26 164.401C275.499 195.734 236.855 248.42 226.655 259.436C228.176 260.524 210.609 274.964 186.719 253.749C169.493 238.45 164.727 246.405 145.938 253.749Z" fill="#C8447D"/>
<path d="M143.7 215.404C142.347 193.162 134.598 185.257 130.894 184.084C158.56 146.233 185.38 179.897 199.515 184.084C213.65 188.272 218.603 199.995 221.14 221.936C223.677 243.876 219.086 242.536 195.649 265.481C172.211 288.427 145.391 243.206 143.7 215.404Z" fill="#F26CCB"/>
</g>
<path d="M233.204 202.621C212.156 215.09 190.878 204.098 182.871 197.044C127.619 134.471 159.849 78.9802 182.871 59.0566C192.261 79.3615 215.473 120.972 233.204 124.976C255.368 129.981 245.358 141.134 251.936 147.712C257.198 152.974 262.803 149.904 264.948 147.712C263.804 151.048 261.517 158.551 261.517 161.868C261.517 166.015 262.518 167.874 261.517 176.453C260.516 185.033 253.366 183.031 251.936 187.035C250.506 191.038 259.515 187.035 233.204 202.621Z" fill="#FBD4D5"/>
<path d="M230.916 198.69C209.85 210.805 220.055 197.178 212.041 190.324C156.743 129.526 159.762 78.5579 182.803 59.1997C192.2 78.9284 215.432 119.358 233.177 123.249C255.36 128.111 245.342 138.948 251.925 145.339C257.191 150.452 264.231 149.699 266.378 147.569C265.233 150.811 261.513 155.87 261.513 159.094C261.513 163.123 262.515 164.929 261.513 173.265C260.511 181.601 251.094 179.656 249.663 183.546C248.232 187.436 257.248 183.546 230.916 198.69Z" fill="#FFF4E6"/>
<path d="M214.043 164.299C206.378 159.037 190.735 134.557 183.871 122.974C188.733 111.582 190.106 83.6513 156.703 63.0604C114.949 37.3218 66.4746 103.813 39.7351 139.132C12.9955 174.451 8.56281 185.462 20.5742 181.029C32.5855 176.596 72.4803 174.88 92.6422 196.615C112.804 218.35 131.965 214.775 161.707 215.204C185.501 215.547 191.068 202.954 190.878 196.615C199.457 196.091 217.417 192.24 220.62 181.029C224.624 167.016 223.623 170.877 214.043 164.299Z" fill="#FBD4D5"/>
<path d="M200.414 161.652C193.268 156.516 181.119 130.275 174.72 118.97C179.252 107.852 181.189 93.9025 150.046 73.8052C111.116 48.6835 75.9823 99.3753 51.0513 133.848C26.1204 168.32 19.0985 184.117 30.2974 179.79C41.4963 175.464 59.7018 193.786 78.5 215C97.2982 236.214 123.269 214.581 151 215C173.185 215.335 178.993 199.381 178.816 193.193C186.815 192.682 203.56 188.923 206.546 177.981C210.279 164.303 209.346 168.072 200.414 161.652Z" fill="#FFF4E6"/>
<path d="M158.705 78.5036C150.926 59.6286 141.164 56.7211 137.256 57.6267C140.974 54.0519 163.852 55.0528 169.858 52.193C175.864 49.3331 168.857 44.1854 169.858 37.1788C170.859 30.1722 193.452 16.445 199.886 12.5842C206.321 8.7234 216.76 -3.28795 220.62 0.858828C224.481 5.0056 230.487 11.7262 233.347 39.7527C235.374 59.6183 230.74 67.0312 227.304 68.7946C228.631 69.665 231.185 72.3163 235.777 78.5036C246.073 92.3738 235.777 89.657 243.499 90.3719C251.221 91.0869 249.791 97.9505 243.499 101.382C237.207 104.814 235.777 115.396 243.499 126.406C251.221 137.416 243.499 140.276 235.777 145.138C228.056 150 226.054 140.276 220.62 132.698C216.273 126.635 208.132 135.224 204.605 140.276C206.893 141.23 207.865 142.564 193.452 140.276C175.435 137.416 168.428 102.097 158.705 78.5036Z" fill="#E6D94D"/>
<path d="M158.705 78.5036C151.461 60.9251 181.384 73.8337 182.372 76.4215C184.431 72.0847 164.045 54.9612 169.858 52.193C175.864 49.3331 172.245 42.9246 173.246 35.918C174.247 28.9114 193.452 16.445 199.887 12.5842C206.321 8.7234 216.76 -3.28795 220.621 0.858828C224.481 5.0056 230.487 11.7262 233.347 39.7527C235.374 59.6182 230.741 67.0312 227.304 68.7946C228.632 69.665 231.185 72.3163 235.778 78.5036C246.073 92.3738 235.778 89.657 243.499 90.3719C251.221 91.0869 249.791 97.9505 243.499 101.382C237.208 104.814 235.778 115.396 243.499 126.406C251.221 137.416 243.499 140.276 235.778 145.138C228.056 150 226.054 140.276 220.621 132.698C216.274 126.635 208.133 135.224 204.606 140.276C206.893 141.229 207.866 142.564 193.452 140.276C175.435 137.416 168.429 102.097 158.705 78.5036Z" fill="#EFFFC0"/>
<path d="M169.858 72.4979C162.079 53.6229 141.164 56.7211 137.256 57.6267C140.974 54.0519 163.852 55.0528 169.858 52.193C175.864 49.3332 175.149 46.7593 176.15 39.7527C177.151 32.7461 198.171 19.4478 204.605 15.587C211.04 11.7262 216.76 -3.28794 220.62 0.858838C224.481 5.00561 230.487 11.7262 233.347 39.7527C235.374 59.6183 230.74 67.0312 227.304 68.7946C228.631 69.665 231.185 72.3163 235.777 78.5036C246.073 92.3738 235.777 89.657 243.499 90.372C251.221 91.0869 249.791 97.9505 243.499 101.382C237.207 104.814 235.777 115.396 243.499 126.406C251.221 137.416 243.499 140.276 235.777 145.138C228.056 150 231.488 152.717 226.054 145.138C221.932 139.389 223.913 142.315 221.121 146.941C221.334 147.605 221.152 147.933 220.62 147.712C220.803 147.451 220.969 147.193 221.121 146.941C220.417 144.746 215.386 138.887 204.319 137.13C186.302 134.271 179.582 96.0916 169.858 72.4979Z" fill="#C79647"/>
<path d="M169.858 72.4979C163.43 56.9005 168.961 58.8074 168.87 60.451C171.814 58.2061 172.971 60.3771 178.42 57.7824C184.426 54.9226 175.149 46.7593 176.15 39.7527C177.151 32.7461 198.171 19.4478 204.605 15.587C211.04 11.7262 216.76 -3.28794 220.621 0.858838C224.481 5.00561 230.487 11.7262 233.347 39.7527C235.376 59.6356 228.974 69.6305 225.138 71.9711C226.746 72.6243 229.893 75.2696 235 82.1503C239.196 87.8027 240.101 90.0948 240.223 90.8751C240.462 90.557 241.247 90.1635 243.499 90.372C251.221 91.0869 249.791 97.9506 243.499 101.382C237.208 104.814 235.778 115.396 243.499 126.406C251.221 137.416 243.499 140.276 235.778 145.138C228.056 150 231.488 152.717 226.054 145.138C221.932 139.389 223.913 142.315 221.122 146.941C221.334 147.605 221.152 147.933 220.621 147.712C220.803 147.451 220.969 147.193 221.122 146.941C220.417 144.746 215.386 138.887 204.319 137.13C186.302 134.271 179.582 96.0916 169.858 72.4979Z" fill="#FFC446"/>
<path d="M6.56128 157.721C3.12947 165.729 5.13136 174.404 6.56128 177.74C7.99122 177.74 13.9969 176.31 26.5802 170.591C42.3093 163.441 30.87 157.721 44.4542 146.282C58.0385 134.843 67.333 140.562 82.4902 157.721C94.6159 171.449 95.6454 176.787 94.6445 177.74C96.7894 180.6 105.369 184.604 122.528 177.74C143.977 169.161 148.982 152.002 151.126 140.562C153.271 129.123 153.986 126.978 156.846 111.964C159.706 96.9496 153.271 82.5074 138.257 68.9232C123.243 55.3389 89.6398 72.498 82.4902 73.2129C75.3405 73.9279 72.3377 66.0633 67.333 59.6287C62.3283 53.194 47.3141 55.1959 44.4542 47.3313C41.5944 39.4668 29.4401 33.1751 10.8511 29.6003C-7.73789 26.0255 2.27156 43.1846 6.56128 59.6287C10.851 76.0728 6.56128 109.819 6.56128 121.258C6.56128 130.41 13.2343 137.941 16.5708 140.562V146.282C14.6642 146.759 9.99309 149.714 6.56128 157.721Z" fill="#EFFFC0"/>
<path d="M38.5916 125.262C37.1616 121.926 13.139 148.141 16.5708 140.133C19.1613 134.089 26.1515 125.437 28.7466 122.481L16.5708 134.033C13.2343 131.411 6.56128 123.88 6.56128 114.729C6.56128 103.289 10.851 69.5432 6.56128 53.0991C2.27156 36.655 -7.73789 19.496 10.8511 23.0708C29.4401 26.6456 41.5944 32.9372 44.4542 40.8018C47.3141 48.6664 62.3283 46.6645 67.333 53.0991C72.3377 59.5338 75.3405 67.3983 82.4902 66.6834C89.6398 65.9684 123.243 48.8094 138.257 62.3936C153.271 75.9779 159.706 90.4201 156.846 105.434C153.986 120.448 153.271 122.593 151.126 134.033C148.982 145.472 143.977 162.631 122.528 171.211C105.369 178.074 124.673 162.869 122.528 160.009C123.529 159.056 90.6121 158.436 78.4864 144.709C63.3292 127.55 63.9012 133.27 50.3169 144.709C36.7327 156.148 42.3093 156.911 26.5802 164.061C13.9969 169.781 40.0215 125.262 38.5916 125.262Z" fill="#C79647"/>
<path d="M38.5916 125.262C37.1616 121.925 13.139 148.141 16.5708 140.133C19.1613 134.089 26.1515 125.437 28.7466 122.481L16.5708 134.032C13.2343 131.411 6.56128 123.88 6.56128 114.729C6.56128 103.289 10.851 69.543 6.56128 53.0989C2.27156 36.6548 -7.73789 19.4957 10.8511 23.0705C29.4401 26.6453 41.5944 32.937 44.4542 40.8015C47.3141 48.6661 62.3283 46.6642 67.333 53.0989C72.3377 59.5335 79.8071 72.1833 86.9567 71.4684C94.1063 70.7534 128.189 54.8798 143.203 68.4641C158.217 82.0484 159.706 90.4198 156.846 105.434C153.986 120.448 153.271 122.593 151.126 134.032C148.982 145.472 143.977 162.631 122.528 171.21C105.369 178.074 124.673 162.869 122.528 160.009C123.529 159.056 90.6121 158.436 78.4864 144.709C63.3292 127.55 63.9012 133.269 50.3169 144.709C36.7327 156.148 42.3093 156.911 26.5802 164.061C13.9969 169.781 40.0215 125.262 38.5916 125.262Z" fill="#FFC446"/>
<path d="M222.623 185.033C226.97 178.627 224.434 174.261 222.623 172.879C222.623 160.724 159.706 161.868 179.868 191.039C200.03 220.209 217.189 193.04 222.623 185.033Z" fill="#332216"/>
<path d="M200.295 167.696C212.91 164.785 222.786 174.115 223.039 178.613C220.613 185.436 218.035 184.223 215.912 183.617C212.425 182.62 217.429 186.346 215.912 189.833C214.396 193.321 206.512 198.476 197.263 200.599C188.013 202.721 191.046 195.898 192.865 195.292C194.685 194.685 196.353 190.44 192.865 186.953C189.378 183.465 188.62 191.046 185.739 192.259C182.858 193.472 180.584 183.617 180.281 176.794C179.977 169.971 184.526 171.335 200.295 167.696Z" fill="#5E362E"/>
<path d="M213.614 13.5852C207.78 18.161 193.738 40.5631 187.446 51.1922C205.177 62.6316 202.603 41.7547 203.175 51.1922C203.633 58.7422 215.187 63.7755 220.906 65.3484C224.577 53.48 230.659 26.5117 225.625 13.5852C219.334 -2.57288 220.906 7.86555 213.614 13.5852Z" fill="#C8447D"/>
<path d="M216.474 20.3058C210.64 24.8816 193.738 40.563 187.446 51.1921C205.177 62.6315 202.603 41.7546 203.175 51.1921C203.633 58.7421 215.187 63.7754 220.906 65.3483C224.577 53.48 230.659 26.5116 225.625 13.5852C219.334 -2.57296 223.766 14.5861 216.474 20.3058Z" fill="#F26CCB"/>
<path d="M19.4305 84.0803C23.2055 102.383 29.0109 117.159 31.4418 122.259C34.416 110.134 39.2587 98.4272 41.3083 94.0898C43.4055 94.4234 48.3435 93.8324 51.3177 88.799C54.292 83.7657 61.6132 78.6943 64.902 76.7877C60.1833 75.7391 48.8583 70.925 41.3083 60.0576C31.8708 46.4734 16.2846 38.1798 10.5649 36.6069C4.84526 35.034 14.7117 61.2016 19.4305 84.0803Z" fill="#C8447D"/>
<path d="M19.4305 84.0803C23.2055 102.383 29.0109 117.159 31.4418 122.259C34.416 110.134 39.2587 98.4272 41.3083 94.0898C43.4055 94.4234 48.3435 93.8324 51.3177 88.799C54.292 83.7657 61.6132 78.6943 64.902 76.7877C60.1833 75.7391 48.8583 78.6466 41.3083 67.7792C31.8708 54.1949 16.2846 38.1798 10.5649 36.6069C4.84526 35.034 14.7117 61.2016 19.4305 84.0803Z" fill="#F26CCB"/>
<path d="M111.088 154.575C101.708 153.546 90.1156 139.466 85.4922 132.555C91.0689 126.358 105.625 112.793 119.238 108.103C136.254 102.24 151.126 130.267 149.124 144.137C147.122 158.007 122.813 155.862 111.088 154.575Z" fill="#DEDEDE"/>
<path d="M111.045 145.654C101.628 144.818 89.991 133.376 85.3496 127.76C90.9479 122.725 105.561 111.702 119.227 107.891C136.309 103.127 151.238 125.901 149.228 137.172C147.218 148.443 122.815 146.7 111.045 145.654Z" fill="#959DA8"/>
<path d="M235.516 123.463C231.512 132.958 221.836 136.19 217.499 136.619C212.065 128.134 202.856 109.393 209.491 102.3C217.785 93.435 228.366 101.157 232.799 102.3C237.232 103.444 240.52 111.595 235.516 123.463Z" fill="#DEDEDE"/>
<path d="M235.548 115.985C231.539 122.681 221.853 124.96 217.51 125.262C212.07 119.279 202.851 106.062 209.494 101.06C217.797 94.8082 228.39 100.254 232.828 101.06C237.266 101.867 240.558 107.615 235.548 115.985Z" fill="#959DA8"/>
<ellipse cx="117.523" cy="134.985" rx="23.0217" ry="21.7348" fill="#170006"/>
<path d="M134.187 132.519C134.187 143.238 127.8 151.927 115.992 151.927C104.185 151.927 94.6133 143.238 94.6133 132.519C94.6133 121.801 104.185 113.112 115.992 113.112C127.8 113.112 134.187 121.801 134.187 132.519Z" fill="#342216"/>
<path d="M117.952 145.71C122.414 145.023 125.245 142.087 126.103 140.705C127.533 138.846 130.593 136.244 131.393 140.705C132.387 146.242 124.64 148.537 120.751 149.689L120.669 149.714C116.808 150.857 112.375 146.568 117.952 145.71Z" fill="#170006"/>
<ellipse cx="214.329" cy="119.399" rx="18.875" ry="19.018" fill="#170006"/>
<path d="M229.862 118.267C229.862 128.148 222.192 136.158 212.729 136.158C203.266 136.158 201.509 132.545 201.509 122.664C201.509 112.783 209.18 104.772 218.642 104.772C228.105 104.772 229.862 108.385 229.862 118.267Z" fill="#342216"/>
<path d="M113.233 125.834C117.809 121.716 125.245 124.118 128.39 125.834C118.238 132.269 121.527 135.557 118.095 133.555C114.663 131.554 113.233 136.844 109.086 137.416C104.94 137.988 107.513 130.982 113.233 125.834Z" fill="#5C7077"/>
<path d="M222.908 124.976C223.129 125.478 223.095 125.934 222.868 126.348C222.327 135.104 216.47 132.232 213.471 129.552C216.497 129.277 221.803 128.289 222.868 126.348C222.894 125.919 222.908 125.462 222.908 124.976Z" fill="#170006"/>
<path d="M212.47 112.679C208.352 115.424 207.322 122.211 207.322 125.262C212.47 125.262 215.902 122.402 215.044 117.826C214.186 113.251 219.477 118.541 219.191 112.679C218.905 106.816 217.618 109.247 212.47 112.679Z" fill="#5C7077"/>
<path d="M211.643 100.476C204.121 99.8557 198.537 123.256 200.959 134.414C185.574 113.803 200.389 80.6396 220.903 90.4026C241.417 100.166 237.285 92.1073 238.283 87.4582C239.08 83.739 248.112 83.9456 251.389 84.2039C251.864 86.9416 251.075 94.8967 245.833 100.476C239.28 107.449 221.045 101.25 211.643 100.476Z" fill="#B99970"/>
<path d="M211.93 97.3297C204.408 96.7099 198.752 122.684 201.174 133.842C189.019 110.105 203.178 78.0995 223.692 87.8625C232.682 92.1408 236.253 95.3803 237.511 97.2786C238.37 93.6125 246.132 93.8184 249.393 94.0755C249.868 96.8132 249.08 104.768 243.838 110.347C237.285 117.321 221.332 98.1046 211.93 97.3297Z" fill="#EFFFC0"/>
<path d="M94.6449 127.693C88.3532 134.785 78.6774 133.222 74.626 131.554C87.6383 131.554 96.5038 109.104 99.7926 103.956C103.081 98.8083 134.683 98.5223 148.41 120.114C159.392 137.388 149.745 148.474 143.548 151.858C147.552 149.332 152.128 140.219 138.4 123.975C121.241 103.67 102.509 118.827 94.6449 127.693Z" fill="#B99970"/>
<path d="M93.6435 122.153C87.3518 129.246 56.5514 146.168 52.5 144.5C65.5123 144.5 71.9087 110.677 75.1975 105.529C78.4863 100.381 133.681 92.9828 147.409 114.575C158.39 131.848 153.605 146.615 147.409 150C151.412 147.473 151.126 134.679 137.399 118.435C120.24 98.1305 101.508 113.288 93.6435 122.153Z" fill="#EFFFC0"/>
<path d="M135 140.168C135 145.598 131.194 150 126.5 150C121.806 150 118 145.598 118 140.168C118 134.739 122.965 137.934 127.659 137.934C132.354 137.934 135 134.739 135 140.168Z" fill="white"/>
<path d="M227.385 120.044C228.129 125.61 226.067 130.478 222.78 130.918C219.493 131.357 216.006 135.203 215.262 129.637C214.517 124.071 219.159 122.709 222.446 122.269C225.733 121.83 226.64 114.478 227.385 120.044Z" fill="white"/>
</svg>
