<svg width="36" height="28" viewBox="0 0 36 28" fill="none" xmlns="http://www.w3.org/2000/svg">
<path d="M35.0604 9.58385L31.508 11.8232C31.2502 11.978 30.9457 12.0356 30.6492 11.9855C30.3528 11.9354 30.084 11.7809 29.8915 11.55L28.1269 9.33374V26.1371C28.1263 26.4287 28.0102 26.7081 27.804 26.9143C27.5979 27.1204 27.3185 27.2365 27.0269 27.2371H8.9869C8.69535 27.2365 8.41592 27.1204 8.20976 26.9143C8.0036 26.7081 7.88751 26.4287 7.8869 26.1371V9.31522L6.10606 11.55C5.91367 11.7803 5.64536 11.9344 5.34944 11.9845C5.05353 12.0346 4.74945 11.9774 4.49196 11.8232L0.937219 9.58385C0.818421 9.51558 0.716859 9.42098 0.640338 9.30732C0.563816 9.19367 0.514374 9.06398 0.495812 8.92822C0.477249 8.79247 0.49006 8.65427 0.53326 8.52424C0.57646 8.39421 0.648899 8.27582 0.745009 8.17816L5.94396 2.40722C6.55504 1.72793 7.30214 1.18474 8.13677 0.812909C8.97139 0.441078 9.87488 0.248918 10.7886 0.248901H12.9539C13.3777 1.23776 14.0824 2.08052 14.9806 2.67276C15.8788 3.26499 16.931 3.58067 18.0069 3.58067C19.0828 3.58067 20.135 3.26499 21.0332 2.67276C21.9314 2.08052 22.6361 1.23776 23.06 0.248901H25.2229C26.1371 0.249174 27.0411 0.44167 27.8761 0.813896C28.7111 1.18612 29.4585 1.72976 30.0699 2.40953L35.2572 8.17585C35.3531 8.27404 35.4253 8.3929 35.4681 8.52331C35.511 8.65372 35.5234 8.79221 35.5044 8.92816C35.4854 9.06411 35.4355 9.19389 35.3585 9.30755C35.2815 9.42122 35.1796 9.51573 35.0604 9.58385Z" fill="#D9D9D9"/>
</svg>
