<svg width="343" height="343" viewBox="0 0 343 343" fill="none" xmlns="http://www.w3.org/2000/svg">
<path d="M10.7188 326.922L56.8094 310.844L21.9734 294.766L10.7188 326.922Z" fill="#F7B600"/>
<path d="M144.167 195.081L79.3188 129.697L68.6001 159.709L144.167 195.081Z" fill="#FFDD7D"/>
<path d="M68.5999 159.709L56.8093 193.474L200.441 260.466L207.408 258.322L144.167 195.081L68.5999 159.709Z" fill="#F7B600"/>
<path d="M45.5547 227.237L152.742 277.08L200.441 260.466L56.8094 193.473L45.5547 227.237Z" fill="#FFDD7D"/>
<path d="M33.7642 261.002L104.508 294.23L152.742 277.08L45.5548 227.238L33.7642 261.002Z" fill="#F7B600"/>
<path d="M33.764 261.001L21.9734 294.766L56.8093 310.844L104.508 294.23L33.764 261.001Z" fill="#FFDD7D"/>
<path d="M170.964 167.213C206.872 202.584 225.63 242.244 212.767 255.106C199.369 267.969 159.709 249.747 123.266 213.839C87.3578 178.467 68.6 138.808 81.4625 125.945C94.861 113.083 134.52 131.841 170.964 167.213Z" fill="#493816"/>
<path d="M125.945 77.7111C117.37 65.3845 126.481 60.0251 138.272 62.1689C127.017 48.7704 133.984 39.1236 151.67 42.8751C157.03 43.947 149.527 53.0579 144.703 53.0579C159.174 63.7767 151.134 75.5673 135.592 72.8876C149.527 91.6454 125.945 86.822 115.227 87.8939C112.547 101.828 128.625 117.906 123.266 117.906C111.475 117.906 92.1814 73.4236 125.945 77.7111Z" fill="#42ADE2"/>
<path d="M238.492 103.436C230.453 107.188 207.944 71.8157 235.812 71.2797C219.734 56.8094 221.878 49.8422 243.316 49.3063C218.662 24.6532 257.786 16.0782 261.537 28.9407C262.609 32.6922 249.747 25.725 245.459 32.6922C240.636 40.7313 275.472 61.6328 239.564 60.025C252.962 73.4235 253.498 79.8547 232.597 81.9985C235.277 86.286 243.852 101.292 238.492 103.436Z" fill="#FF8736"/>
<path d="M247.603 187.042L255.642 180.075C255.642 180.075 263.145 191.33 268.505 195.617C272.792 176.323 271.72 165.069 293.694 177.931C281.367 144.703 301.733 157.03 321.562 166.141C320.491 157.566 321.562 158.637 330.137 155.958C337.641 184.362 317.275 175.787 301.197 166.677C310.844 192.402 300.661 190.794 280.295 182.219C279.759 192.937 276.544 205.264 270.112 206.336C262.609 208.48 247.603 187.042 247.603 187.042Z" fill="#ED4C5C"/>
<path d="M187.578 107.723C177.931 120.586 162.389 127.553 151.134 138.808C139.344 150.598 132.376 182.755 132.376 182.755C132.376 182.755 136.664 148.991 147.919 136.128C158.101 124.337 173.108 115.762 181.147 102.364C195.081 77.7109 182.219 45.5547 163.997 26.7969C167.748 23.5812 173.108 19.2937 175.787 16.0781C193.473 38.0516 208.48 80.3906 187.578 107.723Z" fill="#C28FEF"/>
<path d="M204.192 135.056C190.258 145.239 180.075 160.245 170.428 174.18C161.853 186.506 134.52 202.049 134.52 202.049C134.52 202.049 160.245 184.363 168.284 171.5C177.931 155.422 187.578 138.808 202.584 127.017C232.597 103.972 276.008 106.116 309.772 118.442C307.628 123.266 303.877 133.449 303.877 133.449C303.877 133.449 232.597 114.155 204.192 135.056Z" fill="#FF8736"/>
<path d="M263.681 132.377C254.57 144.167 250.283 158.638 243.316 172.036C236.884 184.363 228.309 196.153 215.983 202.584C202.048 209.552 171.5 207.408 171.5 207.408C171.5 207.408 202.048 206.872 214.911 198.297C227.773 189.722 234.741 174.716 239.564 160.781C249.211 133.984 261.002 105.044 288.87 93.2532C290.478 98.0766 294.23 108.259 294.23 108.259C294.23 108.259 278.688 112.547 263.681 132.377Z" fill="#42ADE2"/>
<path d="M17.2036 76.773L32.3599 61.6113L47.5216 76.7676L32.3653 91.9347L17.2036 76.773Z" fill="#42ADE2"/>
<path d="M38.4429 124.321L53.5938 109.165L68.7501 124.321L53.5938 139.478L38.4429 124.321Z" fill="#FF8736"/>
<path d="M76.95 52.6397L92.1063 37.4834L107.263 52.6397L92.1063 67.796L76.95 52.6397Z" fill="#ED4C5C"/>
<path d="M242.271 234.183L257.427 219.021L272.583 234.183L257.427 249.339L242.271 234.183Z" fill="#C28FEF"/>
<path d="M208.496 286.137L223.652 270.981L238.814 286.142L223.652 301.299L208.496 286.137Z" fill="#ED4C5C"/>
<path d="M274.823 298.019L289.98 282.857L305.136 298.019L289.98 313.175L274.823 298.019Z" fill="#FF8736"/>
<path d="M289.824 229.011L304.981 213.855L320.137 229.011L304.981 244.173L289.824 229.011Z" fill="#42ADE2"/>
<path d="M264.517 68.7232L279.674 53.5615L294.835 68.7232L279.679 83.8795L264.517 68.7232Z" fill="#42ADE2"/>
<path d="M102.064 159.667L117.226 144.51L132.382 159.667L117.226 174.828L102.064 159.667Z" fill="#ED4C5C"/>
</svg>
