<svg width="60" height="71" viewBox="0 0 60 71" fill="none" xmlns="http://www.w3.org/2000/svg">
<path d="M4.13882 5.39014C3.5953 5.39013 3.0571 5.50782 2.55495 5.73649C2.05281 5.96516 1.59654 6.30033 1.21222 6.72286C0.827892 7.1454 0.523029 7.64702 0.315036 8.19908C0.107043 8.75115 -6.09752e-06 9.34285 3.03843e-10 9.9404C-6.58535e-06 10.538 0.107042 11.1297 0.315035 11.6817C0.523028 12.2338 0.82789 12.7354 1.21222 13.1579C1.59654 13.5805 2.0528 13.9156 2.55495 14.1443C3.0571 14.373 3.5953 14.4907 4.13882 14.4907H55.8612C56.4047 14.4907 56.9429 14.373 57.445 14.1443C57.9472 13.9156 58.4035 13.5805 58.7878 13.1579C59.1721 12.7354 59.477 12.2338 59.685 11.6817C59.893 11.1297 60 10.538 60 9.9404C60 9.34285 59.893 8.75115 59.685 8.19908C59.477 7.64702 59.1721 7.1454 58.7878 6.72286C58.4035 6.30033 57.9472 5.96516 57.445 5.73649C56.9429 5.50782 56.4047 5.39013 55.8612 5.39014H4.13882Z" fill="#959DA8"/>
<path d="M24.0873 2.86499e-10C23.8788 -6.16423e-06 23.6724 0.117686 23.4799 0.346356C23.2873 0.575026 23.1123 0.910195 22.9649 1.33273C22.8175 1.75526 22.7006 2.25688 22.6208 2.80895C22.5411 3.36101 22.5 3.95271 22.5 4.55026C22.5 5.14781 22.5411 5.73952 22.6208 6.29158C22.7006 6.84365 22.8175 7.34527 22.9649 7.7678C23.1123 8.19033 23.2873 8.5255 23.4799 8.75417C23.6724 8.98284 23.8788 9.10053 24.0873 9.10053H35.9127C36.1212 9.10053 36.3276 8.98284 36.5201 8.75417C36.7127 8.5255 36.8877 8.19033 37.0351 7.7678C37.1825 7.34527 37.2994 6.84365 37.3792 6.29158C37.4589 5.73952 37.5 5.14782 37.5 4.55026C37.5 3.95271 37.4589 3.36101 37.3792 2.80895C37.2994 2.25688 37.1825 1.75526 37.0351 1.33273C36.8877 0.910194 36.7127 0.575024 36.5201 0.346354C36.3276 0.117685 36.1212 -6.70498e-06 35.9127 2.86499e-10H24.0873Z" fill="#959DA8"/>
<path d="M6.99996 18.9335C4.72031 19.2512 3.1078 21.5296 3.39834 24.0225L8.87229 66.8421C9.13725 69.1143 10.9053 70.817 12.9999 70.8172H46.9998C49.0945 70.817 50.8625 69.1143 51.1275 66.8421L56.6013 24.0225C56.8918 21.5297 55.2795 19.2513 53 18.9335C50.7204 18.6158 48.6369 20.3789 48.3463 22.8717L43.3357 61.7167H16.6641L11.6536 22.8717C11.363 20.3789 9.2795 18.6158 6.99996 18.9335Z" fill="#959DA8"/>
<path d="M22.8202 23.8099C22.4111 23.8357 22.0106 23.9494 21.6416 24.1445C21.2727 24.3396 20.9425 24.6123 20.6699 24.9469C20.3973 25.2816 20.1876 25.6717 20.0529 26.0949C19.9181 26.5182 19.861 26.9663 19.8846 27.4137L21.3847 55.8136C21.4324 56.7171 21.8064 57.5629 22.4243 58.165C23.0423 58.767 23.8537 59.0759 24.6799 59.0238C25.5062 58.9716 26.2796 58.5626 26.8302 57.8869C27.3807 57.2111 27.6632 56.3238 27.6155 55.4203L26.1157 27.0201C26.0921 26.5727 25.9881 26.1347 25.8097 25.7313C25.6313 25.3278 25.382 24.9667 25.076 24.6686C24.7699 24.3705 24.4132 24.1412 24.0262 23.9939C23.6391 23.8466 23.2293 23.784 22.8202 23.8099Z" fill="#959DA8"/>
<path d="M37.0398 23.8143C36.6312 23.7798 36.2203 23.8338 35.8307 23.973C35.4412 24.1121 35.0805 24.3339 34.7693 24.6255C34.4581 24.9171 34.2024 25.273 34.017 25.6726C33.8315 26.0723 33.7199 26.508 33.6884 26.9549L31.6884 55.3548C31.6249 56.2572 31.8918 57.1502 32.4303 57.8375C32.9689 58.5247 33.7351 58.9498 34.5603 59.0193C35.3856 59.0888 36.2022 58.797 36.8307 58.208C37.4591 57.619 37.8479 56.7812 37.9114 55.8787L39.9114 27.4789C39.975 26.5765 39.7081 25.6835 39.1696 24.9963C38.6311 24.309 37.865 23.8839 37.0398 23.8143Z" fill="#959DA8"/>
</svg>
