<svg width="295" height="300" viewBox="0 0 295 300" fill="none" xmlns="http://www.w3.org/2000/svg">
<g clip-path="url(#clip0_174_2)">

<g ref="tail" class="tail">
<path d="M83.3774 163.535L61.8329 182.859C64.0279 184.25 62.0795 184.663 59.8524 184.636L61.8329 182.859C60.1402 181.787 55.9836 180.133 47.5908 177.65C23.4955 170.521 13.5152 169.95 8.81017 158.83C4.10517 147.709 -2.45333 137.728 4.67547 137.728C11.8043 137.728 -3.3089 130.029 0.683284 114.203C4.67547 98.3773 7.09928 69.577 17.6499 60.167C28.2005 50.757 33.6184 56.7451 35.8996 47.9054C38.1808 39.0657 53.0088 26.0913 56.4306 29.6557C59.8524 33.2201 83.3774 27.3745 83.3774 23.8101C83.3774 20.2457 92.7874 23.8101 92.7874 29.6557C92.7874 35.5013 110.324 34.931 113.318 44.341C115.714 51.869 117.833 58.0283 118.594 60.167C112.938 51.9926 94.698 38.0962 66.9812 47.9054C32.3352 60.167 20.644 118.195 35.8996 130.599C51.1553 143.004 78.1021 155.835 92.7874 150.56C104.536 146.34 91.4092 157.451 83.3774 163.535Z" fill="#FBD4D5"/>
<path d="M83.377 163.535L63.307 181.537C63.4297 183.417 61.5874 184.657 59.8519 184.636L63.307 181.537C63.1509 179.143 59.8113 175.711 49.0162 172.517C24.9208 165.388 19.3604 167.812 14.6553 156.691C9.95034 145.57 -2.45379 137.728 4.67501 137.728C11.8038 137.728 -1.02806 123.043 2.96413 107.217C6.95631 91.3911 7.64817 59.3243 21.2139 63.3036C31.907 66.4403 33.618 56.7451 35.8992 47.9054C38.1804 39.0657 51.0123 29.6557 54.4341 33.2201C57.8559 36.7845 83.377 27.3745 83.377 23.8101C83.377 20.2457 92.787 23.8101 92.787 29.6557C92.787 35.5013 107.615 34.6459 110.609 44.0559C113.004 51.5839 117.833 58.0283 118.593 60.167C112.938 51.9926 94.6975 38.0962 66.9807 47.9054C32.3348 60.167 20.6435 118.195 35.8992 130.599C51.1548 143.004 78.1017 155.835 92.787 150.56C104.535 146.34 91.4087 157.451 83.377 163.535Z" fill="#FFF4E6"/>
<path d="M59.2821 162.964C53.1228 164.447 39.8917 156.073 34.0461 151.701C19.9311 143.079 14.941 109.784 29.056 74.4247C43.1711 39.0658 92.7874 39.6362 114.459 50.7571C131.672 59.59 121.827 66.1556 114.615 68.3888C114.563 68.405 114.511 68.4209 114.459 68.4365C114.511 68.4208 114.563 68.4049 114.615 68.3888C120.402 66.5715 123.015 60.5925 88.0824 50.7571C44.0264 38.353 40.6046 114.203 44.0264 94.2428C46.7639 78.2743 58.8543 75.8029 64.5574 76.5634C60.09 77.3713 51.8396 86.0304 54.5771 114.203C57.3145 142.376 87.8448 141.15 102.768 137.016C100.011 143.479 93.2151 156.292 88.0824 155.836C81.6665 155.265 67.5515 166.957 64.5574 168.24C61.5633 169.523 66.9812 161.111 59.2821 162.964Z" fill="#FFC446"/>
</g>

<g ref="frontFarFoot" class="frontFarFoot">
<path d="M203.678 245.564C203.678 238.031 203.237 221.996 202.356 218.737L206.189 202.218H228.391C228.258 213.495 228.073 236.445 228.391 238.031C228.787 240.013 223.542 249.529 238.079 251.908C252.616 254.286 249.006 269.351 247.42 270.673C245.835 271.994 242.002 270.673 240.02 272.919C238.038 275.166 236.055 276.355 233.677 275.959C231.298 275.562 227.73 275.694 222.179 277.941C216.629 280.188 212.4 276.355 206.189 270.673C199.978 264.99 203.678 254.804 203.678 245.564Z" fill="#FBD4D5"/>
<path d="M207.552 242.921C208.927 234.992 205.306 222.438 203.323 217.152L226.846 211.601C226.979 221.072 227.164 241.098 226.846 245.432C226.45 250.851 232.925 252.701 237.286 252.833C241.648 252.965 245.055 255.269 247.594 258.912C250.634 263.273 247.727 268.559 246.405 269.748C245.083 270.938 242.176 271.466 242.837 270.409C243.498 269.352 243.762 266.445 242.837 262.084C242.443 260.229 240.975 259.283 239.66 258.797C242.038 260.748 243.268 267.504 239.269 272.392C235.463 277.043 231.956 276.18 230.679 275.167C231.251 274.594 232.212 272.312 231.472 267.766C230.732 263.22 227.683 259.837 224.996 259.837C224.996 260.189 223.12 263.405 225.657 264.462C228.829 265.784 230.811 273.052 227.243 275.167C223.675 277.281 224.071 276.488 219.842 276.488C215.613 276.488 214.821 275.431 209.138 268.559C203.455 261.687 205.834 252.833 207.552 242.921Z" fill="#FFF4E6"/>
<path d="M237.55 201.954C247.494 192.37 237.597 168.959 235.659 164.29C178.305 104.953 187.159 188.738 187.952 194.553C188.745 200.367 194.163 214.904 199.581 223.626C203.916 230.604 210.812 228.032 211.781 227.063C212.309 223.451 216.803 218.42 219.446 222.438C222.089 226.455 223.983 222.262 225.128 220.588L226.714 215.83L229.225 222.438L232.752 218.605C231.783 216.006 232.752 206.579 237.55 201.954Z" fill="#C79647"/>
<path d="M235.659 164.29C237.598 168.959 237.313 183.136 232.661 196.139C228.009 209.143 229.313 214.552 230.282 217.151L229.093 221.909L224.6 214.509L216.01 216.359L214.118 223.626C213.217 224.944 210.623 222.664 208.271 219.675C209.712 222.073 211.233 225.126 210.988 226.799C207.288 222.306 204.181 225.582 199.846 218.605C194.428 209.882 188.349 200.367 187.556 194.553C186.763 188.738 178.305 104.953 235.659 164.29Z" fill="#FFC446"/>
</g>

<g ref="backFarFoot" class="backFarFoot">
<path d="M113.841 262.983C113.559 257.533 112.506 245.957 111.479 243.645L114.799 231.49L137.614 230.31C137.901 238.476 138.569 255.089 138.955 256.22C139.436 257.633 133.491 259.493 148.519 260.441C163.547 261.389 161.313 277.783 159.733 278.823C158.152 279.864 154.164 279.111 152.211 280.842C150.258 282.573 148.266 283.539 145.806 283.378C143.347 283.218 139.685 283.503 134.065 285.423C128.445 287.344 123.956 284.796 117.361 281.015C110.765 277.234 114.187 269.668 113.841 262.983Z" fill="#FBD4D5"/>
<path d="M121.445 259.488C122.561 253.679 131.95 256.506 129.715 252.787L132.994 252.787C133.484 259.632 137.423 253.721 137.259 256.874C137.055 260.815 147.06 261.71 151.546 261.574C156.033 261.437 156.939 262.983 158.735 266.091C161.501 270.877 159.967 277.278 158.653 278.209C157.34 279.139 154.372 279.676 155.011 278.876C155.651 278.076 155.43 273.766 154.316 270.66C153.202 267.554 146.236 268.876 149.49 268.612C152.745 268.348 156.09 276.04 151.419 280.5C147.682 284.068 144.046 283.63 142.695 282.964C143.262 282.52 144.164 280.818 143.233 277.568C142.302 274.319 139.043 272.033 136.282 272.176C136.295 272.431 135.803 274.018 138.45 274.648C141.759 275.436 142.752 281.428 139.164 283.147C135.576 284.867 135.954 284.272 131.608 284.497C127.262 284.721 131.249 282.238 125.152 277.568C119.055 272.899 120.051 266.75 121.445 259.488Z" fill="#FFF4E6"/>
<path d="M147.017 229.633C156.878 222.17 145.831 205.76 143.664 202.485C82.5032 162.606 94.7376 222.75 95.7701 226.915C96.8025 231.079 102.915 241.308 108.809 247.33C113.525 252.148 120.515 249.921 121.475 249.168C121.883 246.527 126.312 242.648 129.178 245.414C132.045 248.18 133.834 245.046 134.949 243.774L136.4 240.248L139.228 244.895L142.709 241.934C141.616 240.105 142.259 233.234 147.017 229.633Z" fill="#C79647"/>
</g>



<g ref="body" class="body">
<path d="M143.665 202.484C145.831 205.76 146.069 216.031 141.776 225.686C137.482 235.341 139.024 239.185 140.117 241.013L139.073 244.519L134.179 239.404L125.42 241.199L123.749 246.557C122.872 247.559 120.121 246.047 117.591 244.009C119.162 245.668 120.839 247.796 120.65 249.019C116.68 245.965 113.609 248.501 108.894 243.683C102.999 237.661 96.3958 231.1 95.3633 226.936C94.3309 222.771 82.5038 162.606 143.665 202.484Z" fill="#C79647"/>
<path d="M166.927 106.932C172.288 106.932 183.608 109.308 188.598 110.497C204.234 111.495 239.242 116.77 254.183 129.887C272.861 146.283 257.748 148.992 254.183 160.113C250.619 171.234 240.068 178.648 235.506 184.921C230.944 191.195 232.94 200.462 229.803 208.446C226.666 216.43 219.965 220.85 214.69 216.003C210.47 212.125 194.064 217.048 192.591 216.003C188.741 214.387 186.118 198.181 176.194 208.446C166.271 218.712 131.568 224.225 115.457 225.698C115.029 227.171 113.176 232.256 109.184 240.811C104.194 251.504 100.772 246.942 98.2053 246.942C95.639 246.942 98.6331 236.391 95.9241 240.811C93.2151 245.231 86.229 240.811 86.229 236.391C86.229 231.971 81.2388 233.254 78.6724 236.391C76.1061 239.528 73.2546 238.53 72.3991 236.391C71.5436 234.252 66.6961 237.247 65.8406 240.811C64.9851 244.375 61.2781 249.223 59.1395 246.942C57.0008 244.661 46.7354 212.866 48.4463 195.614C50.1572 178.363 92.3597 145 95.9241 137.443C99.4885 129.887 119.877 117.483 129.144 117.91C138.412 118.338 152.669 113.918 154.38 110.497C156.091 107.075 160.226 106.932 166.927 106.932Z" fill="#C79647"/>
<path d="M168.495 118.196C187.03 150.846 171.204 120.144 176.195 121.332C191.83 122.33 234.679 113.205 249.621 126.322C268.299 142.719 249.764 145 246.199 156.121C242.635 167.242 240.069 178.648 235.506 184.921C230.944 191.194 232.94 200.462 229.803 208.446C226.666 216.43 215.118 213.294 209.843 208.446C205.622 204.568 190.737 167.242 193.874 177.365C199.617 195.9 190.395 201.46 180.472 211.725C170.549 221.991 131.568 224.225 115.457 225.698C115.029 227.171 113.176 232.256 109.184 240.811C104.194 251.504 100.772 246.942 98.2055 246.942C95.6391 246.942 98.6332 236.391 95.9242 240.811C93.2152 245.231 86.2291 240.811 86.2291 236.391C86.2291 231.971 81.2389 233.254 78.6726 236.391C76.1062 239.528 73.2547 238.53 72.3992 236.391C71.5438 234.252 66.6962 237.247 65.8407 240.811C64.9853 244.375 67.9793 227.979 65.8407 225.698C63.7021 223.417 49.302 212.153 51.0129 194.902C52.7238 177.65 92.3598 145 95.9242 137.443C99.4886 129.887 120.447 125.895 129.715 126.322C138.982 126.75 156.091 124.754 157.802 121.332C159.513 117.91 164.586 111.309 168.495 118.196Z" fill="#FFC446"/>
<path d="M156.946 126.75C152.383 120.135 156.09 111.922 158.514 108.643C158.894 108.025 163.39 107.018 161.223 106.79C158.514 106.504 145.967 116.342 131.567 117.34C117.167 118.338 103.337 126.75 96.4936 133.024C89.65 139.297 89.2222 150.845 92.9292 155.693C96.6362 160.541 109.325 160.256 114.316 162.679C119.306 165.103 113.175 168.953 113.318 178.505C113.46 188.058 121.444 188.486 131.567 182.212C141.69 175.939 144.969 159.97 145.967 155.693C146.965 151.416 151.528 155.693 161.223 148.992C170.918 142.291 162.649 135.02 156.946 126.75Z" fill="#5E362E"/>
<path d="M180.625 128.242C185.079 128.242 176.151 114.226 173.2 110.854C197.853 108.543 263.149 114.854 271.716 117.218C282.424 120.173 261.008 129.264 261.008 132.447C261.008 135.629 259.866 138.924 261.008 144.493C262.15 150.061 255.582 157.562 257.296 154.153C258.666 151.425 256.724 148.092 255.582 146.766C255.392 147.372 254.84 149.198 254.154 151.652C253.298 154.721 247.73 157.562 248.015 160.403C248.301 163.244 241.59 168.699 242.447 166.881C243.132 165.426 242.161 163.017 241.59 161.994C241.209 162.752 240.162 164.608 239.02 165.972C237.878 167.335 238.544 171.086 239.02 172.79C238.544 171.124 237.25 167.972 235.879 168.699C234.166 169.608 233.166 175.859 235.879 182.109C238.592 188.36 235.022 187.905 233.166 189.269C231.31 190.633 232.024 196.201 230.311 193.587C228.94 191.496 228.597 185.064 228.597 182.109V187.905C228.597 191.087 218.889 197.792 214.034 200.747C214.748 200.217 216.576 198.565 218.175 196.201C219.774 193.837 218.841 187.943 218.175 185.291L214.034 189.269L212.035 183.928C211.464 185.14 209.922 187.11 208.323 185.291C206.324 183.018 209.465 172.108 205.039 172.79C200.613 173.472 204.468 177.677 202.755 175.859C201.042 174.04 202.755 161.994 200.471 164.267C198.186 166.54 201.613 173.359 198.186 170.517C194.759 167.676 196.044 159.039 195.473 161.994C195.016 164.358 192.808 164.494 191.761 164.267C191.285 163.206 190.333 160.676 190.333 159.039C190.333 156.994 176.056 146.084 178.483 137.333C180.91 128.583 175.056 128.242 180.625 128.242Z" fill="#FBD4D5"/>
<path d="M180.54 128.439C184.992 128.439 191.479 131.802 188.53 128.439C213.167 126.135 196.378 122.115 204.939 124.473C215.64 127.419 242.322 125.266 242.322 128.439C242.322 131.613 255.449 134.786 256.59 140.34C257.732 145.893 252.31 149.293 254.022 145.893C255.392 143.173 246.888 141.662 245.746 140.34C245.556 140.944 251.283 146.958 250.598 149.406C249.742 152.466 247.459 151.446 247.744 154.28C248.029 157.113 249.171 154.847 245.746 162.1C245.062 163.551 246.317 152.24 245.746 151.22C242.766 145.893 245.746 162.1 238.898 166.067C237.259 167.016 238.388 171.046 238.876 172.791L238.898 172.867C238.422 171.205 237.128 168.061 235.759 168.787C234.046 169.693 231.335 174.34 234.046 180.574C236.757 186.807 232.049 186.24 230.194 187.6C228.339 188.96 231.906 196.214 230.194 193.607C229.063 191.885 228.632 187.209 228.517 183.974C228.517 187.147 218.779 197.8 213.928 200.747C214.641 200.218 216.468 198.571 218.066 196.214C219.664 193.856 218.732 184.805 218.066 182.16L213.928 189.3V180.574C213.357 181.782 209.819 187.147 208.221 185.334C206.223 183.067 209.362 172.187 204.939 172.867C200.516 173.547 204.368 177.74 202.656 175.927C200.944 174.113 202.085 159.833 199.802 162.1C197.519 164.367 201.515 173.433 198.09 170.6C194.666 167.767 195.95 159.153 195.379 162.1C194.923 164.457 192.716 164.593 191.669 164.367C191.194 163.309 190.243 160.785 190.243 159.153C190.243 157.113 175.974 146.233 178.4 137.506C180.825 128.779 174.975 128.439 180.54 128.439Z" fill="#FFF4E6"/>
<path d="M205.319 159.994C202.923 155.545 204.321 150.346 205.319 148.303C204.321 148.303 204.007 147.561 210.736 144.596C217.466 141.63 221.525 146.877 222.713 149.871C219.719 147.637 213.388 144.995 212.02 152.295C210.651 159.595 216.772 164.461 220.004 165.982C220.907 165.887 223.796 165.269 228.131 163.558C232.465 161.847 234.119 155.336 234.404 152.295C235.212 154.196 236.885 159.11 237.113 163.558C237.398 169.119 226.705 177.246 228.131 173.966C229.271 171.343 228.606 168.691 228.131 167.693C227.228 167.788 224.88 169.176 222.713 173.966C221.424 176.816 221.988 179.504 223.036 181.544C224.199 183.104 225.006 184.145 225.422 184.659C224.69 184.024 223.751 182.934 223.036 181.544C221.408 179.361 219.082 176.162 216.154 171.97C212.681 166.997 211.693 163.011 211.651 160.477C211.453 161.339 211.161 162.38 210.736 163.558C209.722 166.375 211.129 169.331 211.988 170.502C211.999 170.517 212.009 170.531 212.02 170.544C212.009 170.531 211.999 170.517 211.988 170.502C210.733 168.807 207.694 164.405 205.319 159.994Z" fill="#FBD4D5"/>
</g>


<g ref="frontNearFoot" class="backNearFoot">
<path d="M157.659 262.91C157.659 254.783 157.184 237.484 156.233 233.967L160.368 216.145H184.321C184.178 228.312 183.979 253.072 184.321 254.783C184.749 256.922 181.184 271.322 196.868 273.889C212.551 276.455 206.563 288.574 204.852 290C203.141 291.425 199.006 290 196.868 292.423C194.729 294.847 192.59 296.13 190.024 295.703C187.458 295.275 183.608 295.418 177.62 297.841C171.632 300.265 167.069 296.13 160.368 290C153.667 283.869 157.659 272.879 157.659 262.91Z" fill="#FBD4D5"/>
<path d="M163.22 260.201C164.702 251.647 160.796 238.102 158.657 232.399L184.036 226.411C184.178 236.629 184.378 258.234 184.036 262.91C183.608 268.756 189.026 274.031 193.731 274.174C198.436 274.316 201.287 275.457 205.137 278.308C208.987 281.16 206.563 287.861 205.137 289.144C203.711 290.427 200.575 290.998 201.287 289.857C202 288.716 202.285 285.58 201.287 280.875C200.289 276.17 190.309 278.451 193.731 278.308C197.153 278.166 202.571 285.722 197.438 291.996C193.332 297.014 189.549 296.083 188.17 294.99C188.788 294.372 189.824 291.91 189.026 287.005C188.227 282.101 182.23 280.875 179.331 280.875C179.331 281.255 180.015 282.3 182.753 283.441C186.174 284.867 188.313 292.708 184.463 294.99C180.614 297.271 181.042 296.415 176.479 296.415C171.917 296.415 171.061 295.275 164.931 287.861C158.8 280.447 161.366 270.894 163.22 260.201Z" fill="#FFF4E6"/>
<path d="M192.163 207.876C197.181 193.846 194.254 180.264 192.163 175.226C130.285 111.209 139.837 201.603 140.693 207.876C141.548 214.149 147.394 229.833 153.239 239.243C157.916 246.771 161.176 246.562 162.222 245.516C162.792 241.619 164.645 234.908 167.497 239.243C170.349 243.577 173.533 241.049 174.768 239.243L180.471 233.825V239.243L189.026 233.825C187.98 231.021 187.144 221.905 192.163 207.876Z" fill="#C79647"/>
<path d="M192.163 207.876C197.181 193.846 194.254 180.264 192.163 175.226C130.285 111.209 139.41 201.603 140.265 207.876C141.121 214.149 147.679 224.415 153.525 233.825C158.201 241.353 156.661 238.672 160.653 243.52C161.224 239.623 157.802 227.922 160.653 232.256C163.505 236.591 167.687 241.049 168.923 239.243L180.471 227.837V239.243L189.026 233.825C187.981 231.021 187.144 221.905 192.163 207.876Z" fill="#FFC446"/>
<path d="M142.419 189.16C142.066 176.903 147.64 170.106 150.471 168.24C142.177 187.098 144.736 190.044 147.052 189.16C147.126 186.214 147.912 179.142 150.471 174.428C153.031 169.713 154.847 170.695 155.435 171.776C154.516 172.169 152.236 174.958 150.471 182.973C149.861 185.746 149.681 188.701 149.748 191.386C149.77 191.328 149.791 191.274 149.81 191.223C149.79 191.288 149.769 191.357 149.749 191.433C149.93 198.421 151.777 203.561 152.016 198.884C152.347 192.402 154.332 189.16 156.979 186.508C159.097 184.387 159.553 188.768 159.516 191.223C158.671 190.535 157.222 191.105 158.193 198.884C159.406 208.608 161.833 205.072 163.046 205.367C164.259 205.661 166.576 192.991 171.209 203.304C174.294 210.173 176.472 210.983 177.54 210.324C177.723 210.139 177.893 209.958 178.047 209.786C177.924 210 177.754 210.192 177.54 210.324C175.631 212.256 172.336 214.645 171.209 211.849C169.664 208.018 167.348 207.724 163.046 211.849C159.605 215.149 157.568 207.527 156.979 203.304C156.648 197.804 155.523 189.573 153.67 200.652C151.817 211.731 159.149 219.019 163.046 221.278C159.627 220.492 152.325 216.681 150.471 207.724C148.686 199.093 149.215 193.417 149.749 191.433C149.749 191.417 149.748 191.402 149.748 191.386C149.254 192.676 147.969 195.726 146.28 198.884C144.515 202.184 147.015 210.474 148.486 214.206C146.611 210.965 142.772 201.418 142.419 189.16Z" fill="#EFFFC0"/>
</g>

<g ref="backNearFoot" class="backNearFoot">
<path d="M70.0733 264.192C70.0733 256.066 69.598 238.766 68.6475 235.249L72.7822 217.427H96.7349C96.5924 229.594 96.3928 254.355 96.7349 256.066C97.1627 258.204 93.4569 275.349 109.282 273.888C127.816 272.178 123.013 288.716 121.303 290.142C119.592 291.568 111.42 291.282 109.282 293.706C107.143 296.129 105.004 297.413 102.438 296.985C99.8716 296.557 96.0221 296.7 90.0339 299.124C84.0457 301.547 79.4833 297.413 72.7822 291.282C66.0811 285.151 70.0734 274.162 70.0733 264.192Z" fill="#FBD4D5"/>
<path d="M75.6347 261.483C77.1175 252.929 73.2109 239.384 71.0723 233.681L96.4508 227.693C96.5934 237.911 96.793 259.516 96.4508 264.192C96.0231 270.038 101.441 275.313 106.146 275.456C110.851 275.598 116.028 274.316 119.878 277.168C123.727 280.019 122.587 288.716 121.161 289.999C119.735 291.283 112.99 292.28 113.702 291.139C114.415 289.999 118.024 287.576 117.026 282.871C116.028 278.166 102.724 279.733 106.146 279.591C109.568 279.448 118.452 281.445 112.321 292.138C109.096 297.764 102.008 297.365 100.63 296.272C102.056 296.272 104.423 291.34 103.624 286.435C102.826 281.53 93.2636 282.871 90.3646 282.871C90.3646 283.251 95.3262 283.726 98.0637 284.867C101.486 286.293 102.769 293.991 98.9191 296.272C95.0696 298.553 93.4567 297.698 88.8943 297.698C84.3318 297.698 80.3843 296.415 74.2535 289.001C68.1227 281.587 73.7812 272.177 75.6347 261.483Z" fill="#FFF4E6"/>
<path d="M107.249 189.494L107.245 189.483C45.3667 125.467 50.4011 220.708 51.2565 226.982C52.112 233.255 59.8081 231.115 65.6538 240.525C70.3302 248.053 73.5905 247.844 74.636 246.798C75.2063 242.901 77.0598 236.19 79.9113 240.525C82.7629 244.859 85.9471 242.331 87.1827 240.525L92.8857 235.107V240.525L101.44 235.107C100.395 232.303 99.5584 223.187 104.577 209.158C109.592 195.139 109.336 194.522 107.249 189.494Z" fill="#C79647"/>
<path d="M114.101 215.147C119.12 201.118 116.192 194.947 114.101 189.909C52.2233 125.893 50.2349 213.579 51.0904 219.852C51.9458 226.125 54.8617 222.276 60.7074 231.686C65.3838 239.214 59.9945 243.235 63.9866 248.082C64.5569 244.185 68.9768 230.773 71.8283 235.107C74.6798 239.441 72.3035 248.462 73.5392 246.656L79.67 233.112L83.8047 243.805L95.2107 233.112H98.0624V246.656L101.44 235.107C100.394 232.303 109.083 229.177 114.101 215.147Z" fill="#FFC446"/>
<path d="M55.5548 206.656C52.4179 197.344 57.7077 188.38 59.9953 186.141C54.5872 200.47 57.9769 206.674 59.9954 205.335C59.3931 203.052 61.7329 201.753 63.1095 197.404C64.4861 193.055 77.3271 192.386 78.1377 193.048C77.3463 193.612 65.3103 193.813 65.4484 200.47C65.6211 208.791 68.136 216.459 66.9732 211.387C65.8104 206.315 66.9735 203.26 68.9055 200.47C70.4511 198.237 78.5007 209.491 79.026 211.387C78.0585 211.1 70.1876 203.93 72.894 209.626C76.277 216.747 77.8715 212.779 79.026 213.221C89.116 217.08 92.016 203.028 98.8112 209.626C103.594 214.271 112.113 209.363 114.372 207.307C114.622 207.058 114.81 206.838 114.922 206.656C114.873 206.798 114.681 207.026 114.372 207.307C111.863 209.808 103.091 215.186 101.378 213.366C99.0228 210.865 83.6876 213.805 80.506 218.198C77.9607 221.713 74.2682 216.441 72.74 213.366C71.1671 209.237 68.2095 203.238 68.9627 212.273C69.7159 221.308 78.4072 224.815 82.6587 225.438C79.2018 225.81 71.3325 224.965 67.5111 218.615C63.6898 212.265 62.9845 207.648 63.1095 206.133C62.9557 207.164 62.4135 209.985 61.4753 213.022C60.5371 216.059 64.8262 221.711 67.088 224.158C64.5506 222.204 58.6916 215.967 55.5548 206.656Z" fill="#EFFFC0"/>
</g>

<g ref="lowerHead" class="lowerHead">
<path d="M169.816 98.3846C169.257 91.4431 168.604 87.6085 168.347 86.5589C161 82.8502 300.529 82.1505 287.653 105.312C274.778 128.474 271.909 122.316 269.18 123.295C266.451 124.275 264.772 130.993 259.034 130.713C253.296 130.433 240.071 140.579 219.148 140.859C198.226 141.139 192.768 131.482 190.039 127.984C187.31 124.485 182.132 124.065 175.694 118.887C169.257 113.709 170.516 107.061 169.816 98.3846Z" fill="#FBD4D5"/>
<path d="M178.23 94.8518C177.71 89.6552 177.103 86.7845 176.864 85.9987C170.034 83.2223 299.752 82.6984 287.782 100.038C275.812 117.378 273.145 112.768 270.608 113.501C268.07 114.234 266.509 119.263 261.175 119.054C255.84 118.844 243.545 126.44 224.094 126.65C204.643 126.859 199.568 119.63 197.031 117.011C194.494 114.392 189.68 114.077 183.695 110.201C177.71 106.324 178.881 101.348 178.23 94.8518Z" fill="#FFF4E6"/>
<path d="M203.955 96.3154C199.753 86.7569 201.339 82.7028 202.657 81.8706C220.226 91.7085 259.33 109.191 275.198 100.417C295.032 89.4497 276.063 123.333 271.923 123.333C268.611 123.333 256.167 121.43 250.358 120.479C248.546 123.927 243.611 131.268 238.371 133.052C231.822 135.281 222.491 125.205 219.834 123.333C217.177 121.46 216.374 114.505 216.374 117.983C216.374 121.46 211.802 122.084 213.099 120.479C214.397 118.874 211.369 111.384 211.802 114.505C212.234 117.626 206.117 115.486 207.909 114.505C209.701 113.524 209.207 108.264 203.955 96.3154Z" fill="#FBD4D5"/>
<path d="M217.608 98.3845C230.203 104.654 260.176 102.816 273.588 101.113C269.156 108.111 255.702 122.106 237.341 122.106C222.91 122.106 214.809 105.709 210.452 93.5028C205.833 88.9248 206.945 85.0005 207.672 84.8794C208.356 87.1659 209.265 90.179 210.452 93.5028C212.058 95.0951 214.358 96.7665 217.608 98.3845Z" fill="#342216"/>
<path d="M227.265 113.219C226.481 103.927 221.994 100.624 219.848 100.134C235.872 84.3197 251.406 98.3845 259.593 100.134C267.78 101.883 270.649 106.781 272.119 115.948C273.588 125.115 270.929 124.555 257.354 134.142C243.779 143.728 228.245 124.835 227.265 113.219Z" fill="#841341"/>
<path d="M228.346 111.61C227.581 103.022 223.202 99.9694 221.107 99.5167C236.745 84.9017 251.904 97.9 259.894 99.5167C267.883 101.133 270.683 105.66 272.117 114.132C273.551 122.603 270.956 122.086 257.709 130.946C244.461 139.805 229.302 122.345 228.346 111.61Z" fill="#F26CCB"/>
<path d="M243.779 106.432C239.86 107.439 231.183 106.012 227.334 105.172C225.431 96.1034 251.406 97.2417 264.631 98.9444C264.071 100.064 259.999 100.526 258.823 101.254C257.354 102.163 250.426 99.7141 254.415 106.432C257.605 111.806 257.074 116.018 254.415 117.907C254.811 118.094 251.812 118.355 252.595 114.269C253.575 109.161 248.677 105.172 243.779 106.432Z" fill="#C8447D"/>
<path d="M278.766 99.1543C268.466 105.256 258.054 99.8774 254.135 96.4253C227.097 65.8045 242.869 38.6497 254.135 28.8999C258.73 38.8363 270.089 59.1989 278.766 61.1582C289.612 63.6073 284.714 69.0653 287.933 72.2841C290.508 74.8592 293.251 73.3571 294.301 72.2841C293.741 73.9168 292.621 77.5882 292.621 79.2116C292.621 81.2408 293.111 82.1505 292.621 86.349C292.131 90.5475 288.633 89.5678 287.933 91.5271C287.233 93.4864 291.642 91.5271 278.766 99.1543Z" fill="#FBD4D5"/>
<path d="M277.646 97.2309C267.337 103.159 272.331 96.4907 268.409 93.1366C241.349 63.3846 242.826 38.4431 254.101 28.97C258.7 38.6244 270.068 58.4092 278.752 60.3129C289.607 62.6925 284.705 67.9956 287.927 71.1231C290.504 73.6251 293.949 73.2567 294.999 72.2142C294.439 73.8006 292.619 76.2767 292.619 77.854C292.619 79.8257 293.109 80.7095 292.619 84.7889C292.129 88.8682 287.52 87.9164 286.82 89.8201C286.119 91.7237 290.532 89.8201 277.646 97.2309Z" fill="#FFF4E6"/>
</g>



<g ref="upperHead" class="upperHead">
<path d="M269.39 80.4013C265.639 77.8262 257.984 65.8466 254.625 60.1786C257.004 54.604 257.676 40.9357 241.33 30.8593C220.898 18.2639 197.176 50.8021 184.091 68.0858C171.006 85.3695 168.837 90.7575 174.714 88.5883C180.592 86.4191 200.115 85.5794 209.982 96.2155C219.848 106.852 229.225 105.102 243.779 105.312C255.423 105.48 258.147 99.3177 258.054 96.2155C262.253 95.9589 271.041 94.0743 272.609 88.5883C274.568 81.7308 274.078 83.6201 269.39 80.4013Z" fill="#FBD4D5"/>
<path d="M262.72 79.1054C259.223 76.5921 253.278 63.7511 250.146 58.219C252.365 52.778 253.312 45.9518 238.072 36.117C219.022 23.8235 201.828 48.63 189.628 65.4994C177.428 82.3688 173.992 90.099 179.472 87.9818C184.952 85.8646 198.131 84.1594 207.33 94.5406C216.529 104.922 225.271 103.214 238.842 103.419C249.698 103.583 252.238 97.5685 252.151 94.5406C256.065 94.2902 264.26 92.4507 265.721 87.0962C267.548 80.4031 267.091 82.2471 262.72 79.1054Z" fill="#FFF4E6"/>
<path d="M242.309 38.4164C238.502 29.1798 233.725 27.757 231.812 28.2001C233.632 26.4508 244.828 26.9406 247.767 25.5411C250.706 24.1416 247.277 21.6225 247.767 18.1938C248.257 14.765 259.312 8.0475 262.461 6.15819C265.61 4.26887 270.718 -1.60899 272.608 0.420275C274.497 2.44954 277.436 5.73834 278.835 19.4533C279.827 29.1747 277.56 32.8023 275.878 33.6652C276.528 34.0912 277.777 35.3886 280.025 38.4164C285.063 45.2039 280.025 43.8744 283.804 44.2243C287.582 44.5742 286.882 47.933 283.804 49.6124C280.725 51.2918 280.025 56.4699 283.804 61.8579C287.582 67.2459 283.804 68.6454 280.025 71.0246C276.246 73.4037 275.267 68.6454 272.608 64.9368C270.48 61.9699 266.497 66.173 264.77 68.6454C265.89 69.1119 266.366 69.765 259.312 68.6454C250.496 67.2459 247.067 49.9622 242.309 38.4164Z" fill="#E6D94D"/>
<path d="M242.309 38.4164C238.764 29.8143 253.407 36.1312 253.891 37.3976C254.898 35.2753 244.922 26.8957 247.767 25.5411C250.706 24.1416 248.935 21.0055 249.425 17.5768C249.914 14.148 259.313 8.0475 262.461 6.15819C265.61 4.26887 270.718 -1.60899 272.608 0.420275C274.497 2.44954 277.436 5.73834 278.835 19.4533C279.827 29.1747 277.56 32.8023 275.879 33.6652C276.528 34.0912 277.778 35.3886 280.025 38.4164C285.063 45.2039 280.025 43.8745 283.804 44.2243C287.582 44.5742 286.883 47.933 283.804 49.6124C280.725 51.2918 280.025 56.4699 283.804 61.8579C287.582 67.2459 283.804 68.6454 280.025 71.0246C276.246 73.4037 275.267 68.6454 272.608 64.9368C270.481 61.9699 266.497 66.173 264.771 68.6454C265.89 69.1119 266.366 69.765 259.313 68.6454C250.496 67.2459 247.067 49.9622 242.309 38.4164Z" fill="#EFFFC0"/>
<path d="M247.767 35.4774C243.96 26.2408 233.725 27.7569 231.812 28.2001C233.632 26.4507 244.828 26.9405 247.767 25.541C250.706 24.1415 250.356 22.882 250.846 19.4533C251.335 16.0245 261.622 9.51688 264.77 7.62757C267.919 5.73825 270.718 -1.60906 272.608 0.420197C274.497 2.44946 277.436 5.73826 278.835 19.4533C279.827 29.1747 277.56 32.8023 275.878 33.6652C276.528 34.0911 277.777 35.3885 280.025 38.4164C285.063 45.2039 280.025 43.8744 283.804 44.2242C287.582 44.5741 286.882 47.9329 283.804 49.6123C280.725 51.2917 280.025 56.4698 283.804 61.8578C287.582 67.2459 283.804 68.6453 280.025 71.0245C276.246 73.4036 277.926 74.7331 275.267 71.0245C273.249 68.211 274.219 69.6428 272.853 71.9068C272.957 72.2315 272.868 72.3923 272.608 72.284C272.697 72.1562 272.778 72.0302 272.853 71.9068C272.508 70.8328 270.046 67.9655 264.631 67.1059C255.814 65.7064 252.525 47.0232 247.767 35.4774Z" fill="#C79647"/>
<path d="M247.767 35.4774C244.621 27.8446 247.328 28.7779 247.284 29.5822C248.724 28.4836 249.29 29.546 251.957 28.2763C254.896 26.8768 250.356 22.882 250.846 19.4533C251.336 16.0245 261.622 9.51688 264.771 7.62757C267.92 5.73826 270.719 -1.60906 272.608 0.420197C274.497 2.44946 277.436 5.73826 278.836 19.4533C279.829 29.1831 276.696 34.0742 274.819 35.2196C275.606 35.5392 277.146 36.8338 279.645 40.2009C281.698 42.967 282.141 44.0886 282.201 44.4705C282.318 44.3148 282.702 44.1222 283.804 44.2243C287.583 44.5741 286.883 47.9329 283.804 49.6123C280.725 51.2917 280.025 56.4698 283.804 61.8578C287.583 67.2459 283.804 68.6454 280.025 71.0245C276.247 73.4036 277.926 74.7331 275.267 71.0245C273.25 68.211 274.219 69.6428 272.853 71.9068C272.957 72.2316 272.868 72.3923 272.608 72.284C272.697 72.1562 272.779 72.0302 272.853 71.9068C272.509 70.8328 270.047 67.9655 264.631 67.1059C255.814 65.7064 252.525 47.0232 247.767 35.4774Z" fill="#FFC446"/>
<path d="M167.856 77.1823C166.177 81.1009 167.157 85.346 167.856 86.9787C168.556 86.9787 171.495 86.279 177.653 83.48C185.35 79.9813 179.752 77.1823 186.4 71.5843C193.047 65.9864 197.596 68.7854 205.013 77.1823C210.947 83.8998 211.45 86.5122 210.961 86.9787C212.01 88.3782 216.209 90.3375 224.606 86.9787C235.102 82.7803 237.551 74.3833 238.601 68.7854C239.65 63.1874 240 62.1378 241.4 54.7905C242.799 47.4431 239.65 40.3757 232.303 33.7281C224.956 27.0806 208.512 35.4775 205.013 35.8274C201.514 36.1772 200.045 32.3286 197.596 29.1798C195.146 26.0309 187.799 27.0106 186.4 23.162C185 19.3134 179.052 16.2345 169.956 14.4851C160.859 12.7358 165.757 21.1327 167.856 29.1798C169.956 37.2269 167.856 53.7408 167.856 59.3388C167.856 63.8172 171.122 67.5025 172.755 68.7854V71.5843C171.822 71.8176 169.536 73.2637 167.856 77.1823Z" fill="#EFFFC0"/>
<path d="M183.531 61.2981C182.831 59.6654 171.075 72.494 172.755 68.5754C174.022 65.6175 177.443 61.3837 178.713 59.9371L172.755 65.59C171.122 64.3072 167.856 60.6219 167.856 56.1435C167.856 50.5455 169.956 34.0315 167.856 25.9845C165.757 17.9374 160.859 9.54046 169.956 11.2898C179.052 13.0392 185 16.1181 186.4 19.9667C187.799 23.8153 195.146 22.8356 197.596 25.9845C200.045 29.1333 201.514 32.9819 205.013 32.6321C208.512 32.2822 224.956 23.8852 232.303 30.5328C239.65 37.1804 242.799 44.2478 241.4 51.5951C240 58.9425 239.65 59.9921 238.601 65.59C237.551 71.188 235.102 79.585 224.606 83.7834C216.209 87.1422 225.655 79.7014 224.606 78.3019C225.095 77.8354 208.987 77.5322 203.054 70.8146C195.636 62.4177 195.916 65.2167 189.269 70.8146C182.621 76.4126 185.35 76.786 177.653 80.2847C171.495 83.0837 184.23 61.2981 183.531 61.2981Z" fill="#C79647"/>
<path d="M183.531 61.2979C182.831 59.6651 171.075 72.4938 172.755 68.5752C174.022 65.6173 177.443 61.3834 178.713 59.9368L172.755 65.5898C171.122 64.3069 167.856 60.6216 167.856 56.1432C167.856 50.5453 169.956 34.0313 167.856 25.9842C165.757 17.9372 160.859 9.54022 169.956 11.2896C179.052 13.0389 185 16.1178 186.4 19.9664C187.799 23.815 195.146 22.8354 197.596 25.9842C200.045 29.1331 203.7 35.3234 207.199 34.9735C210.697 34.6236 227.376 26.8558 234.723 33.5033C242.071 40.1509 242.799 44.2476 241.4 51.5949C240 58.9422 239.65 59.9918 238.601 65.5898C237.551 71.1878 235.102 79.5847 224.606 83.7832C216.209 87.142 225.655 79.7011 224.606 78.3017C225.096 77.8352 208.987 77.5319 203.054 70.8144C195.636 62.4174 195.916 65.2164 189.269 70.8144C182.621 76.4123 185.35 76.7857 177.653 80.2845C171.495 83.0834 184.23 61.2979 183.531 61.2979Z" fill="#FFC446"/>
<path d="M273.588 90.5473C275.715 87.4125 274.474 85.2759 273.588 84.5995C273.588 78.6517 242.799 79.2115 252.666 93.4863C262.532 107.761 270.929 94.4659 273.588 90.5473Z" fill="#332216"/>
<path d="M262.661 82.0637C268.835 80.6391 273.668 85.2048 273.791 87.406C272.604 90.745 271.343 90.1514 270.304 89.8546C268.597 89.367 271.046 91.1902 270.304 92.8967C269.562 94.6033 265.704 97.126 261.177 98.1648C256.651 99.2036 258.135 95.8647 259.026 95.5679C259.916 95.2711 260.732 93.1935 259.026 91.4869C257.319 89.7804 256.948 93.4903 255.538 94.0839C254.129 94.6775 253.016 89.8546 252.867 86.5156C252.719 83.1767 254.945 83.8445 262.661 82.0637Z" fill="#5E362E"/>
<path d="M269.179 6.64807C266.324 8.88726 259.453 19.8499 256.374 25.0514C265.051 30.6493 263.791 20.433 264.071 25.0514C264.295 28.746 269.949 31.2091 272.748 31.9788C274.544 26.171 277.52 12.9738 275.057 6.64807C271.978 -1.25905 272.748 3.84909 269.179 6.64807Z" fill="#C8447D"/>
<path d="M270.579 9.93674C267.724 12.1759 259.453 19.8498 256.374 25.0512C265.051 30.6492 263.791 20.4329 264.071 25.0512C264.295 28.7459 269.949 31.209 272.748 31.9787C274.544 26.1708 277.52 12.9736 275.057 6.64793C271.978 -1.25919 274.148 7.13776 270.579 9.93674Z" fill="#F26CCB"/>
<path d="M174.154 41.1455C176.001 50.1022 178.842 57.3329 180.032 59.8287C181.487 53.8949 183.857 48.1663 184.86 46.0437C185.886 46.207 188.303 45.9177 189.758 43.4546C191.214 40.9915 194.796 38.5098 196.406 37.5768C194.096 37.0636 188.554 34.7078 184.86 29.3898C180.242 22.7422 172.614 18.6837 169.815 17.9139C167.016 17.1442 171.845 29.9496 174.154 41.1455Z" fill="#C8447D"/>
<path d="M174.154 41.1455C176.001 50.1022 178.842 57.3329 180.032 59.8287C181.487 53.8949 183.857 48.1663 184.86 46.0437C185.886 46.207 188.303 45.9177 189.758 43.4546C191.214 40.9915 194.796 38.5098 196.406 37.5768C194.096 37.0636 188.554 38.4864 184.86 33.1684C180.242 26.5208 172.614 18.6837 169.815 17.9139C167.016 17.1442 171.845 29.9496 174.154 41.1455Z" fill="#F26CCB"/>
<path d="M219.008 75.643C214.418 75.1392 208.745 68.249 206.482 64.8669C209.211 61.8347 216.335 55.1964 222.996 52.9013C231.323 50.0323 238.601 63.7473 237.621 70.5348C236.641 77.3224 224.746 76.2727 219.008 75.643Z" fill="#DEDEDE"/>
<path d="M218.986 71.2772C214.378 70.8678 208.683 65.2689 206.412 62.5206C209.152 60.0566 216.303 54.6624 222.99 52.7973C231.349 50.466 238.655 61.6108 237.672 67.1264C236.688 72.6419 224.746 71.789 218.986 71.2772Z" fill="#959DA8"/>
<path d="M279.897 60.4179C277.938 65.0642 273.203 66.6456 271.08 66.8555C268.421 62.7037 263.915 53.5324 267.162 50.0617C271.22 45.7232 276.398 49.5018 278.568 50.0616C280.737 50.6214 282.346 54.61 279.897 60.4179Z" fill="#DEDEDE"/>
<path d="M279.913 56.7582C277.951 60.0348 273.211 61.15 271.086 61.2981C268.424 58.3702 263.913 51.9024 267.163 49.4548C271.226 46.3953 276.41 49.06 278.582 49.4548C280.754 49.8495 282.365 52.6623 279.913 56.7582Z" fill="#959DA8"/>
<ellipse cx="222.157" cy="66.0563" rx="11.2659" ry="10.6361" fill="#170006"/>
<path d="M230.312 64.8497C230.312 70.095 227.186 74.3472 221.408 74.3472C215.63 74.3472 210.946 70.095 210.946 64.8497C210.946 59.6044 215.63 55.3523 221.408 55.3523C227.186 55.3523 230.312 59.6044 230.312 64.8497Z" fill="#342216"/>
<path d="M222.367 71.3045C224.55 70.9686 225.935 69.5318 226.355 68.8554C227.055 67.9457 228.552 66.6722 228.944 68.8554C229.434 71.5844 225.585 72.704 223.696 73.2638C221.807 73.8236 219.638 71.7243 222.367 71.3045Z" fill="#170006"/>
<ellipse cx="269.53" cy="58.4292" rx="9.23664" ry="9.30661" fill="#170006"/>
<path d="M277.131 57.8751C277.131 62.7106 273.377 66.6305 268.747 66.6305C264.116 66.6305 263.256 64.8624 263.256 60.0269C263.256 55.1914 267.01 51.2715 271.64 51.2715C276.271 51.2715 277.131 53.0396 277.131 57.8751Z" fill="#342216"/>
<path d="M220.058 61.5781C222.297 59.5628 225.935 60.7384 227.475 61.5781C222.507 64.7269 224.116 66.3363 222.437 65.3567C220.757 64.377 220.058 66.9661 218.028 67.246C215.999 67.5259 217.259 64.0971 220.058 61.5781Z" fill="#5C7077"/>
<path d="M273.728 61.1582C273.836 61.4039 273.819 61.6273 273.708 61.8295C273.444 66.1145 270.577 64.7093 269.109 63.3974C270.59 63.2628 273.187 62.7794 273.708 61.8295C273.721 61.6196 273.728 61.3961 273.728 61.1582Z" fill="#170006"/>
<path d="M268.62 55.1404C266.604 56.4839 266.101 59.8053 266.101 61.2981C268.62 61.2981 270.299 59.8986 269.879 57.6594C269.459 55.4202 272.048 58.0093 271.908 55.1404C271.769 52.2714 271.139 53.461 268.62 55.1404Z" fill="#5C7077"/>
<path d="M268.214 49.1687C264.534 48.8653 261.801 60.3164 262.986 65.7765C255.457 55.6905 262.707 39.4618 272.746 44.2394C282.784 49.017 280.763 45.0736 281.251 42.7985C281.641 40.9785 286.061 41.0796 287.664 41.206C287.897 42.5457 287.511 46.4386 284.945 49.1687C281.739 52.5812 272.815 49.5478 268.214 49.1687Z" fill="#B99970"/>
<path d="M268.355 47.6291C264.674 47.3258 261.907 60.0364 263.092 65.4965C257.144 53.8808 264.073 38.2186 274.111 42.9962C284.15 47.7738 281.497 43.534 281.985 41.259C282.375 39.4389 286.202 39.54 287.805 39.6664C288.037 41.0062 287.652 44.8991 285.086 47.6291C281.879 51.0417 272.956 48.0083 268.355 47.6291Z" fill="#EFFFC0"/>
<path d="M210.96 62.4878C207.882 65.9585 203.147 65.1934 201.164 64.3771C207.532 64.3771 211.87 53.3911 213.48 50.872C215.089 48.3529 230.553 48.213 237.271 58.7791C242.645 67.232 237.924 72.6574 234.892 74.3134C236.851 73.0772 239.09 68.6175 232.373 60.6684C223.976 50.732 214.809 58.1493 210.96 62.4878Z" fill="#B99970"/>
<path d="M210.471 59.777C207.392 63.2477 193.981 65.1235 191.998 64.3071C198.366 64.3071 199.835 54.1608 201.445 51.6418C203.054 49.1227 230.064 45.5022 236.782 56.0683C242.156 64.5212 239.814 71.7478 236.782 73.4038C238.741 72.1676 238.601 65.9067 231.884 57.9576C223.487 48.0212 214.32 55.4385 210.471 59.777Z" fill="#EFFFC0"/>
<path d="M218.588 66.616C218.588 68.3164 217.21 69.6949 215.51 69.6949C213.809 69.6949 212.431 68.3164 212.431 66.616C212.431 64.9156 214.229 65.9163 215.929 65.9163C217.63 65.9163 218.588 64.9156 218.588 66.616Z" fill="white"/>
<path d="M275.355 54.504C276.971 55.0352 277.94 56.5009 277.52 57.7777C277.1 59.0546 277.561 60.8988 275.946 60.3675C274.33 59.8363 274.724 57.9259 275.144 56.6491C275.564 55.3722 273.74 53.9727 275.355 54.504Z" fill="white"/>
</g>

</g>
<defs>
<clipPath id="clip0_174_2">
<rect width="295" height="300" fill="white"/>
</clipPath>
</defs>
</svg>