<svg id="thebunny" xmlns="http://www.w3.org/2000/svg" viewBox="0 0 240.41 267.17">
  <g id="backfootfar">
    <path d="M99.12,253.78c-5.1-10.06-9.92-30.36,11.63-31,26.93-.85,30.48-2.13,30.19,9.78-.22,9.52-3.92,23.86-6.23,28.21,3.59-.1,11.45.59,14.17,4.11s-3,.94-5.67.85c3,1.09,9.3,3.77,10.21,5.81s-5,.9-8.29.06c1,.29,2.76,1.08,2.76,2.35,0,1.7-4.68,2.55-10.35,2.41s-20.27,1.13-24.1,0-10.77-3.68-14.32-3.68S84.81,263.14,99.12,253.78Z" transform="translate(-42 -32.83)" style="fill: #e5d2ea"/>
    <path d="M99.12,253.78c-5.1-10.06-9.92-30.36,11.63-31,26.93-.85,30.48-2.13,30.19,9.78-.22,9.52-6.47,23.49-8.78,27.83,3.59-.09,14,1,16.72,4.49s-5.24-.71-7.94-.8c3,1.09,11.57,5.42,12.48,7.46s-7.6-1.05-10.86-1.92c1.09.32,5.33,3,5.33,4.33,0,1.7-12.47,3.17-18.14,3s-12.62-3.17-16.45-4.3-8.36,0-11.9,0S84.81,263.14,99.12,253.78Z" transform="translate(-42 -32.83)" style="fill: #fdf5f5"/>
  </g>
  <g id="tail">
    <path d="M48.77,212.77c4.45-10.31,13.28-12.09,17.14-11.7,17.13-6.54,15.74,14.48,21.14,19.64S80.88,239,81.65,244.9s-5.55,9.52-11,11.9-8.33.79-11-2.38-2.47-3.57-2.47,0-5.09-1.59-8.49-7.14c-2-3.25-2.55-4.86-2.59-5.54-.55,1.69-1.83,4.18-3.43,3.16C40.59,243.51,43.22,225.66,48.77,212.77Z" transform="translate(-42 -32.83)" style="fill: #e5d2ea"/>
    <path d="M48.07,211.33c4.08-9.16,12.19-10.75,15.73-10.4,15.72-5.81,14.45,12.87,19.4,17.45s-5.66,16.21-5,21.5-6.1,6.34-11,8.45-8.93-3.17-11.33-6,0,2.82,0,6-3.55-3.52-6.66-8.45c-2.5-3.95-3.4-7.4-3.4-3.18-.43,1.47-.82,1-2.41,0C41.42,235.47,43,222.78,48.07,211.33Z" transform="translate(-42 -32.83)" style="fill: #fdf5f5"/>
  </g>
  <g id="body">
    <path d="M61.92,190.49c3.74-11.13,15.54-44.37,65.75-60,38.73-12,77.45,11.6,93.68,26.3,12.17,16.71,37.77,53.78,42.72,68.38C270.25,243.47,248,262.61,233,268s-40-2.07-74.24,6.39-63.74,2.22-73.52,0-15.54-18.11-20.29-27.16-10.36-17.66-8.34-22S58.18,201.62,61.92,190.49Z" transform="translate(-42 -32.83)" style="fill: #e5d2ea"/>
    <path d="M62.9,188.57c6.46-9.44,32-63.74,77-59.48,17.6,1.66,14.7,11.18,29.63,15.87,18.33,5.76,31.12,5.3,39.82,13,11.84,15.87,49.88,48.45,54.7,62.31,6,17.33-22.77,39.19-37.33,44.27-2.84,1-14.79-28.36-19.91-28.13-3.47.15.34,30.08-3.68,29.89-20.37-1-45.2-6.29-48.34-15.58-1.42-4.17-1.71,18-5.81,18.64a162.54,162.54,0,0,1-58.92-2.45c-9.52-2.11-15.12-17.19-19.74-25.78s-14.59-8.58-12.63-12.66S54,201.56,62.9,188.57Z" transform="translate(-42 -32.83)" style="fill: #fdf5f5"/>
    <path d="M110.08,153.78c7.09-25.45,30.62-18.1,41.49-11.24,2.71,1.81,8,7.06,7.38,13.53-.73,8.08-7.38,6.32-9,0S134.45,148,124.4,148s-4.87,47.28-19.63,41.13-4.43,21.79-19.49,27.59-10.93-9.32-12.11-15.64,4-16.87,8.12-25.49S101.22,185.59,110.08,153.78Z" transform="translate(-42 -32.83)" style="fill: #fff"/>
  </g>
  <g id="frontfootfar">
    <path d="M197.22,281.48c1.59,4.31.66,7.08,0,7.93,1.37-1.37,3.94-3.28,3.26,0-.85,4.11.71,5.53,2,5.53s4.11-3.83,5.1-1.42,5.25,0,6.1-2.41,1.7.86,2.55,2.41,5.24,1.42,5.1,0,1.14-4.11,2.13-5.66,8.36-11.49,10.06-15.88,9.64-16.45,12.19-18.43S241.88,245.75,231,236,192,248,197.22,252.56,195.24,276.09,197.22,281.48Z" transform="translate(-42 -32.83)" style="fill: #e5d2ea"/>
    <path d="M200.59,282.82c.7-.81-1.74.46-3.4-3.64-2.07-5.12,5.48-23.17,0-27.48s20-29.14,31.36-19.84,21.94,17.95,19.28,19.84-13.63,11.85-15.41,16c-1,2.28-4.41,5.29-6.3,9.21-.22.46-7-.32-9.69,1.57-.22.47,5.3,0,9.69,2.69-1,2-1.81,3.57-2.14,4.05-1,1.48-1.48,4-3,5.92-.86,1.11-3.7-2.15-4.59-3.63s-.79-1.29-2.07.81c-5.65,9.29-6,2.29-7.07,0s-3.35,5.32-4.68,5.32-2.55-4.52-1.67-8.42C201.65,282.12,202,281.52,200.59,282.82Z" transform="translate(-42 -32.83)" style="fill: #ffeff9"/>
  </g>
  <g id="rear">
    <path d="M245.24,83.36c-2.59,14.47,5,26.82,9.1,31.19,6,5.13,0,15.24,5.39,16.24s10,2.7,19-26.78-3.4-37.74-8.95-48.28-24.51-34.89-21.43-15.81S248.48,65.27,245.24,83.36Z" transform="translate(-42 -32.83)" style="fill: #e5d2ea"/>
    <path d="M247,83.3c-2,14.47,2,26.88,5.23,31.25,4.68,5.13,0,15.24,4.2,16.24s7.8,2.7,14.76-26.78-1.48-37.74-5.8-48.28-19.09-34.89-16.69-15.81S249.5,65.21,247,83.3Z" transform="translate(-42 -32.83)" style="fill: #ffeff9"/>
  </g>
  <g id="frontfootnear">
    <path d="M156,257.8a30.22,30.22,0,0,1,3,13.75c-3.4,10.92,5.81,20.42,7.23,21.41s2.69,1.42,2.69,4.25,5.25,2.69,8.22,2.69,1-2.12,2.41-2.12-.42,1.42,4.82,2.12,2.84-2.69,3.83-4.11,2.41,1.7,5,1.42c2-.23.85-2,0-2.83l3.12-1.42a6.71,6.71,0,0,1-3.12-4.54,11.69,11.69,0,0,0-2.55-6.24c-1-1.13-2-2.83,0-5.38s15.31-8.65,25.94-23.25-6.66-30.9-29.34-33.88S156,228.46,151.72,237,152.57,251,156,257.8Z" transform="translate(-42 -32.83)" style="fill: #e5d2ea"/>
    <path d="M158.38,257.8c7.09,8.79,3.69,11.44,3.55,13.75-3.41,10.92,2.83,20.42,4.25,21.41s4.53.71,4.53,3.54,3.41,3.4,6.38,3.4,1.7-4.82,3.12-4.82-1.13,2.7,4.11,3.41,2.7-3.41,3.69-4.82,3.26,3.12,5.81,2.83c2-.23-.85-3.83-1.7-4.68l4.11,1.14a6.71,6.71,0,0,1-3.12-4.54,11.69,11.69,0,0,0-2.55-6.24c-1-1.13-2-2.83,0-5.38s13.33-12.76,24-27.36-4.68-26.79-27.36-29.77-28.78,8.79-33,17.29S153.61,251.88,158.38,257.8Z" transform="translate(-42 -32.83)" style="fill: #fdf5f5"/>
  </g>
  <g id="backfootnear">
    <path d="M91.33,270c-5.1-10.06-9.92-30.36,11.63-31,26.93-.85,30.47-2.13,30.19,9.78-.23,9.53-3.92,23.86-6.24,28.21,3.59-.09,11.46.6,14.18,4.11s-3,.94-5.67.85c3,1.09,9.3,3.77,10.2,5.81s-5,.9-8.28.06c1,.3,2.76,1.09,2.76,2.35,0,1.7-4.68,2.55-10.35,2.41s-20.27,1.14-24.1,0-10.77-3.68-14.32-3.68S77,279.35,91.33,270Z" transform="translate(-42 -32.83)" style="fill: #e5d2ea"/>
    <path d="M93.74,268.15c-5.1-10.06-12.33-28.52,9.22-29.2,26.93-.85,31.47-2.16,31.18,9.75-.23,9.52-6.24,25.23-10.77,28.63,3.59-.09,14-.79,16.73,2.72s-4.26.1-6.95,0c3,1.09,11.57,5.62,12.47,7.66s-6.92-1.24-10.16-2.11c1,.31,4.64,3.18,4.64,4.52,0,1.7-6.81,1.14-12.48,1s-17.86,2.13-21.69,1-9.78-3.41-13.32-3.41S79.42,277.51,93.74,268.15Z" transform="translate(-42 -32.83)" style="fill: #fdf5f5"/>
  </g>
  <g id="fluff">
    <path d="M132.72,173.6c3.18-6.35,20.89-18.71,29.35-24.1,17.15,62.8,69.46,45.5,84.91,50.18s5,5.67,4.25,8.22,6.66,9.22,9.36,9.22.28,8.64-2.7,6.94,0,5.39,0,8.65-5,5.25-8.93,2.69,0,9.22-2,13.75-1.56-4.53-6.24-4.53-6.23,3.26-9.21,0-4.68-9.22-8.37-6.66-12.75-5.25-16.44-8.51-9.92,3.26-19.56,6-14.46,2-21.41-2.69-10.63.71-14.17,2.69-9.93-3.4-12.19-9.64-4.68-5.24-10.63-8.64,0-13.47,4-19.42-4-3-4-9.22,4-6.66,6-12.61S128.76,181.54,132.72,173.6Z" transform="translate(-42 -32.83)" style="fill: #fdf5f5"/>
    <path d="M227.42,228.46c-6.58,3.85-9.55-1.61-10.21-4.82-2.27,4.25,3.83,9.35,8.08,7.65s5.53,0,8.51,1.7,6.66-1.27,8.36-4.53,5.1,0,8.93,0a7.36,7.36,0,0,0,7.09-7.37c-.11-3.07-3.92-5.82-5.81-6.81.85.9,2.55,3.18,2.55,5.11,0,2.41-3.55,4.25-7.66,4.25s-2.27,0-5.1,3.12-3.54,0-5.53,0S235.64,223.64,227.42,228.46Z" transform="translate(-42 -32.83)" style="fill: #e5d2ea"/>
    <path d="M137,184.66c-.57-3.63,5.34-5.86,8.36-6.53-17,2.84-13.61,14.75-9.92,18.29s.42,11.48-1.14,15,5.82,11.2,13.61,11.2,10.63,3.68,11.91,5.53,20.13,5.95,26.51,2.83c5.1-2.5,15-6.61,19.28-8.36a32.09,32.09,0,0,0-10.49,2.12c-5.39,2.13-9.5,1.7-12.48,0s-10.77-.28-13.75,0-3.68-1.7-7.79-2.12-7.23-4.4-9.08-7.23,2-4.82,0-5.53-5.38-6-6.66-8.51,0-5.53-2-6.38S137.69,189.19,137,184.66Z" transform="translate(-42 -32.83)" style="fill: #e5d2ea"/>
  </g>
  <g id="head">
    <g id="headfar">
      <path d="M275.33,140.29c-2.49-17.24-16.16-27.79-22.68-30.91-48.48,75.28-10.06,88.18-10.06,90.3s15.73,10.07,29.76,3.12,9.64-20.13,8.51-23.39-7.66-10.06-5.53-12.47S278.45,161.83,275.33,140.29Z" transform="translate(-42 -32.83)" style="fill: #fdf5f5"/>
      <path d="M253.08,148.22c-2.31-17.25,3.19-35.72-2.85-38.84-44.85,75.33-25.44,85-25.44,87.11s21.9,11.77,34.89,4.82.4-25.25-.65-28.51,8.1,2.41,10.06,0S256,169.79,253.08,148.22Z" transform="translate(-42 -32.83)" style="fill: #e5d2ea"/>
    </g>
    <g id="headnear">
      <path d="M259,193.59c4.42-7,1.84-15.22,0-18.43,9.78-18.43,9.64-42.1,7.23-53s-14.88-14-32.18-19.42S169,122.71,162.92,153s3.26,26.94,12.76,37.85,14.46,11.2,20,10.63-1.27,3.69,23,8.51S253.5,202.38,259,193.59Z" transform="translate(-42 -32.83)" style="fill: #e5d2ea"/>
      <path d="M259,193.59c4.42-7,1.84-15.22,0-18.43,9.78-18.43,9.64-42.1,7.23-53s-14.89-14-32.18-19.42S169,120.44,162.92,150.78s6.24,24.52,15.73,35.43,11.49,15.88,17,15.31-3-1.13,21.27,3.69S253.5,202.38,259,193.59Z" transform="translate(-42 -32.83)" style="fill: #fdf5f5"/>
      <path d="M259.09,194c-4.47,6.19-28.59,21-51.59,0-15.4-8.51-27-32.22,10-32.5C263.7,161.15,265.59,185,259.09,194Z" transform="translate(-42 -32.83)" style="fill: #fff"/>
      <path d="M257.89,154.18c-1.47.45-.61,1.7,0,2.27,1.9-.29,5.16-.68,3.12,0-2.55.85-3.12,2.12,0,2.12s1,1.7-2.12,3.69c-1.5,1-1.81,1.75-1.67,2.31.5.34.67.63.67.81a1.34,1.34,0,0,1-.67-.81,12.47,12.47,0,0,0-4.29-1.46c-5-1-9.64-.71-7.08-.85s3.54-3,2.26-2.69-4.82-.71-3-1,3.82-2.12,1.56-3c-1.82-.69-3-5.58-3.41-7.94a20.59,20.59,0,0,0,3.41,4.39c2.69,2.84,4.39,0,9.49,0S259.74,153.61,257.89,154.18Z" transform="translate(-42 -32.83)" style="fill: #d7ccbe"/>
    </g>
    <g id="nose">
      <path d="M256.9,176.15c3,1.59,3.5,3.31,3.4,4,4.54-7.37,9.22-6.1,8.09-7.37s-5.25-3.12-11.49-1.56S253.22,174.17,256.9,176.15Z" transform="translate(-42 -32.83)" style="fill: #841341"/>
      <path d="M258.46,175.16c3,1.59,1.94,4.3,1.84,5,4.54-7.37,7.52-6.24,6.38-7.51s-3.54-3-9.78-1.42S254.78,173.17,258.46,175.16Z" transform="translate(-42 -32.83)" style="fill: #dd6b99"/>
    </g>
    <g id="eyes">
      <path d="M278.1,148.25a9.22,9.22,0,0,1-9.18,9.26c-5.08,0-6.92-4.15-6.92-9.26s1.84-9.25,6.92-9.25A9.21,9.21,0,0,1,278.1,148.25Z" transform="translate(-42 -32.83)" style="fill: #202444"/>
      <path d="M276.47,147.7a8.53,8.53,0,0,1-8.33,8.71c-4.61,0-5.46-1.76-5.46-6.57a8.52,8.52,0,0,1,8.33-8.7C275.62,141.14,276.47,142.89,276.47,147.7Z" transform="translate(-42 -32.83)" style="fill: #324b68"/>
      <path d="M273.09,151a.7.7,0,0,1,0,.66c-.26,4.26-3.11,2.87-4.57,1.56,1.47-.13,4.05-.61,4.57-1.56C273.08,151.43,273.09,151.2,273.09,151Z" transform="translate(-42 -32.83)" style="fill: #202444"/>
      <path d="M268,145c-2,1.34-2.5,4.64-2.5,6.13,2.5,0,4.17-1.4,3.75-3.62s2.16.35,2-2.51S270.52,143.31,268,145Z" transform="translate(-42 -32.83)" style="fill: #5c7077"/>
      <path d="M274.71,144.35c1.6.53,2.57,2,2.15,3.25s0,3.11-1.56,2.58-1.22-2.43-.8-3.7S273.1,143.82,274.71,144.35Z" transform="translate(-42 -32.83)" style="fill: #fff"/>
      <ellipse cx="175.64" cy="113.84" rx="11.2" ry="10.57" style="fill: #202444"/>
      <path d="M225.75,145.48c0,5.21-3.11,9.44-8.86,9.44s-10.4-4.23-10.4-9.44,4.66-9.45,10.4-9.45S225.75,140.26,225.75,145.48Z" transform="translate(-42 -32.83)" style="fill: #324b68"/>
      <path d="M217.85,151.89a5.92,5.92,0,0,0,4-2.43c.7-.91,2.19-2.17,2.58,0,.48,2.71-3.34,3.83-5.22,4.38S215.13,152.31,217.85,151.89Z" transform="translate(-42 -32.83)" style="fill: #202444"/>
      <path d="M215.55,142.22c2.23-2,5.85-.83,7.38,0-4.94,3.13-3.34,4.73-5,3.76s-2.37,1.6-4.39,1.88S212.77,144.73,215.55,142.22Z" transform="translate(-42 -32.83)" style="fill: #5c7077"/>
      <path d="M214.09,147.23a3.06,3.06,0,0,1-6.12,0c0-1.69,1.79-.69,3.48-.69S214.09,145.54,214.09,147.23Z" transform="translate(-42 -32.83)" style="fill: #fff"/>
    </g>
  </g>
  <g id="lear">
    <path d="M145,97.94c2.08,17.12,14.12,36.24,19.88,43.66,8.5,8.5,19.35,3.54,23.71,0,2-3.87,6.1-16.67,6.79-36.86.86-25.23-7.65-29.62-15.68-43.8S155.63,40.53,148,39.11,142.42,76.53,145,97.94Z" transform="translate(-42 -32.83)" style="fill: #fdf5f5"/>
    <path d="M147.94,97.69c1.4,13.06,11.86,28.58,15.75,34.24,5.73,6.49,11.13,4,14.08,1.29,1.33-3,.38-12.72.84-28.13.59-19.25-5.16-22.6-10.58-33.42S153.1,48.12,147.94,47,146.19,81.35,147.94,97.69Z" transform="translate(-42 -32.83)" style="fill: #fbd4d5"/>
    <path d="M169.51,88.83c1.37,12.79-10.66,34.12-6.85,39.66,5.62,6.35,11.39,7.8,14.27,5.15,1.31-2.89.37-12.45.83-27.52.57-18.84-5.06-22.12-10.36-32.71s-20-30-20.65-23.35c-1.06,10.92.13-.24,1,1.15C151.31,57.22,168.12,75.87,169.51,88.83Z" transform="translate(-42 -32.83)" style="fill: #ffbcb8"/>
  </g>
</svg>
