<svg id="BIRD" xmlns="http://www.w3.org/2000/svg" xmlns:xlink="http://www.w3.org/1999/xlink" viewBox="0 0 931.96 884.34">
  <defs>
    <linearGradient id="linear-gradient" x1="308.28" y1="316.12" x2="391.69" y2="126.22" gradientTransform="matrix(1, 0, 0, -1, 0, 1104)" gradientUnits="userSpaceOnUse">
      <stop offset="0" stop-color="#6dbfe1"/>
      <stop offset="1" stop-color="#1e1d2e"/>
    </linearGradient>
    <linearGradient id="linear-gradient-2" x1="28.32" y1="108.24" x2="430.88" y2="263.54" gradientTransform="matrix(1, 0, 0, -1, 0, 1104)" gradientUnits="userSpaceOnUse">
      <stop offset="0.41" stop-color="#6dbfe1"/>
      <stop offset="1" stop-color="#1c607e"/>
    </linearGradient>
    <linearGradient id="linear-gradient-3" x1="777.25" y1="34.86" x2="601.59" y2="234.23" gradientTransform="matrix(1, 0, 0, -1, 0, 1104)" gradientUnits="userSpaceOnUse">
      <stop offset="0" stop-color="#978eb2"/>
      <stop offset="0.98" stop-color="#1e1d2e"/>
    </linearGradient>
    <linearGradient id="linear-gradient-4" x1="698.85" y1="216.58" x2="759.74" y2="35.8" gradientTransform="matrix(1, 0, 0, -1, 0, 1104)" gradientUnits="userSpaceOnUse">
      <stop offset="0.56" stop-color="#978eb2"/>
      <stop offset="1" stop-color="#e5d2ea"/>
    </linearGradient>
    <linearGradient id="linear-gradient-5" x1="621.57" y1="15.11" x2="539.96" y2="234.57" xlink:href="#linear-gradient-3"/>
    <linearGradient id="linear-gradient-6" x1="635.33" y1="206.55" x2="603.29" y2="50.7" gradientTransform="matrix(1, 0, 0, -1, 0, 1104)" gradientUnits="userSpaceOnUse">
      <stop offset="0.49" stop-color="#978eb2"/>
      <stop offset="0.97" stop-color="#e1cee7"/>
      <stop offset="1" stop-color="#e5d2ea"/>
    </linearGradient>
    <linearGradient id="linear-gradient-7" x1="768.34" y1="425.14" x2="936.06" y2="58.03" gradientTransform="matrix(1, 0, 0, -1, 0, 1104)" gradientUnits="userSpaceOnUse">
      <stop offset="0.3" stop-color="#978eb2"/>
      <stop offset="1" stop-color="#1e1d2e"/>
    </linearGradient>
    <linearGradient id="linear-gradient-8" x1="807.7" y1="575.6" x2="821.48" y2="224.81" gradientTransform="matrix(1, 0, 0, -1, 0, 1104)" gradientUnits="userSpaceOnUse">
      <stop offset="0" stop-color="#78bc3c"/>
      <stop offset="1" stop-color="#9fce3a"/>
    </linearGradient>
    <linearGradient id="linear-gradient-9" x1="830.18" y1="368.34" x2="777.96" y2="206.19" gradientTransform="matrix(1, 0, 0, -1, 0, 1104)" gradientUnits="userSpaceOnUse">
      <stop offset="0.45" stop-color="#b09610"/>
      <stop offset="1" stop-color="#d9b600" stop-opacity="0"/>
    </linearGradient>
    <linearGradient id="linear-gradient-10" x1="841.28" y1="456.83" x2="848.14" y2="282" gradientTransform="matrix(1, 0, 0, -1, 0, 1104)" gradientUnits="userSpaceOnUse">
      <stop offset="0.61" stop-color="#6eb330"/>
      <stop offset="1" stop-color="#80ce3a" stop-opacity="0"/>
    </linearGradient>
    <radialGradient id="radial-gradient" cx="359.45" cy="946.56" r="1" gradientTransform="matrix(34.28, 284.78, 292.39, -32.82, -288439.85, -70651.3)" gradientUnits="userSpaceOnUse">
      <stop offset="0.41" stop-color="#9ed072"/>
      <stop offset="0.88" stop-color="#9fce3a"/>
      <stop offset="1" stop-color="#00d32e"/>
    </radialGradient>
    <linearGradient id="linear-gradient-11" x1="629.18" y1="320.35" x2="536.44" y2="192.34" gradientTransform="matrix(1, 0, 0, -1, 0, 1104)" gradientUnits="userSpaceOnUse">
      <stop offset="0" stop-color="#90e545" stop-opacity="0"/>
      <stop offset="1" stop-color="#5dab17"/>
    </linearGradient>
    <radialGradient id="radial-gradient-2" cx="357.47" cy="948.27" r="1" gradientTransform="matrix(176.37, 20.24, 26.15, -212.4, -87109.55, 194811.12)" gradientUnits="userSpaceOnUse">
      <stop offset="0.2" stop-color="#87d740"/>
      <stop offset="0.51" stop-color="#90e545"/>
      <stop offset="1" stop-color="#90e545" stop-opacity="0"/>
    </radialGradient>
    <linearGradient id="linear-gradient-12" x1="600.71" y1="633.59" x2="473.86" y2="305.08" gradientTransform="matrix(1, 0, 0, -1, 0, 1104)" gradientUnits="userSpaceOnUse">
      <stop offset="0.37" stop-color="#c4eb72"/>
      <stop offset="0.76" stop-color="#90e545"/>
      <stop offset="0.96" stop-color="#00d32e"/>
    </linearGradient>
    <linearGradient id="linear-gradient-13" x1="468.38" y1="435.13" x2="477.16" y2="211.62" gradientTransform="matrix(1, 0, 0, -1, 0, 1104)" gradientUnits="userSpaceOnUse">
      <stop offset="0.6" stop-color="#d9b600"/>
      <stop offset="1" stop-color="#d9b600" stop-opacity="0"/>
    </linearGradient>
    <linearGradient id="linear-gradient-14" x1="536.11" y1="519.65" x2="540.56" y2="406.42" gradientTransform="matrix(1, 0, 0, -1, 0, 1104)" gradientUnits="userSpaceOnUse">
      <stop offset="0" stop-color="#80ce3a"/>
      <stop offset="1" stop-color="#80ce3a" stop-opacity="0"/>
    </linearGradient>
    <linearGradient id="linear-gradient-15" x1="553.59" y1="626.36" x2="559.39" y2="478.69" gradientTransform="matrix(1, 0, 0, -1, 0, 1104)" gradientUnits="userSpaceOnUse">
      <stop offset="0" stop-color="#f2f562"/>
      <stop offset="1" stop-color="#f2f562" stop-opacity="0"/>
    </linearGradient>
    <linearGradient id="linear-gradient-16" x1="669.45" y1="861.89" x2="862.83" y2="447.92" gradientTransform="matrix(1, 0, 0, -1, 0, 1104)" gradientUnits="userSpaceOnUse">
      <stop offset="0" stop-color="#f2f562"/>
      <stop offset="0.65" stop-color="#d9b600"/>
      <stop offset="1" stop-color="#f2f562"/>
    </linearGradient>
    <linearGradient id="linear-gradient-17" x1="779.94" y1="890.42" x2="715.88" y2="512.58" gradientTransform="matrix(1, 0, 0, -1, 0, 1104)" gradientUnits="userSpaceOnUse">
      <stop offset="0" stop-color="#f2f562"/>
      <stop offset="0" stop-color="#fff"/>
      <stop offset="0.69" stop-color="#f2f562"/>
    </linearGradient>
    <linearGradient id="linear-gradient-18" x1="750.37" y1="708.4" x2="785.12" y2="650.63" gradientTransform="matrix(1, 0, 0, -1, 0, 1104)" gradientUnits="userSpaceOnUse">
      <stop offset="0" stop-color="#fff09e"/>
      <stop offset="1" stop-color="#ffae00"/>
    </linearGradient>
    <radialGradient id="radial-gradient-3" cx="354.05" cy="936.54" r="1" gradientTransform="matrix(0.56, 20.11, 38.02, -0.98, -35035.51, -5805.68)" gradientUnits="userSpaceOnUse">
      <stop offset="0" stop-color="#6dbfe1"/>
      <stop offset="1" stop-color="#1c607e"/>
    </radialGradient>
    <linearGradient id="linear-gradient-19" x1="-178.38" y1="714.06" x2="-197.99" y2="554.88" gradientTransform="matrix(-0.08, 1.02, 0.97, 0.03, 217.99, 540.73)" gradientUnits="userSpaceOnUse">
      <stop offset="0" stop-color="#d9b600"/>
      <stop offset="1" stop-color="#d9b600" stop-opacity="0"/>
    </linearGradient>
    <linearGradient id="linear-gradient-20" x1="-193.56" y1="689.66" x2="-190.09" y2="597.48" gradientTransform="matrix(-0.07, 1.02, 0.97, 0.01, 215.48, 556.23)" gradientUnits="userSpaceOnUse">
      <stop offset="0.41" stop-color="#fbfbfb"/>
      <stop offset="1" stop-color="#d9e4df"/>
    </linearGradient>
    <linearGradient id="linear-gradient-21" x1="-177.17" y1="736.75" x2="-208.52" y2="834.5" gradientTransform="matrix(0.99, 0.2, 0.13, -0.98, 771.75, 1138.19)" xlink:href="#linear-gradient-19"/>
    <linearGradient id="linear-gradient-22" x1="-187.78" y1="827.57" x2="-202.39" y2="736.77" gradientTransform="matrix(1, 0.17, 0.09, -0.98, 803.88, 1136.78)" gradientUnits="userSpaceOnUse">
      <stop offset="0.27" stop-color="#fbfbfb"/>
      <stop offset="1" stop-color="#d9e4df"/>
    </linearGradient>
  </defs>
  <g id="TAIL">
    <path d="M249.78,1040.11c12.84-5.45,175.58-104.85,255.34-153.86L624.79,648.86,455.07,775.15c-9.25,16.4-29.12,54-34.64,73.36-6.91,24.15-141.15,93.57-229.7,126.75S18.08,994.18,28.29,1009.82c8.17,12.52,24.63,36.79,33.58,48.81L118,1034.8c-3.56,5.26-41.75,30.82-38.75,29.54,3.74-1.58,19.63,39.74,28.73,35.89,7.27-3.09,78.45-38.68,113.13-56.1C225.34,1045.06,237,1045.55,249.78,1040.11Z" transform="translate(-8.08 -216.14)" style="fill: url(#linear-gradient)"/>
    <path d="M241.47,1024.28c12.84-5.45,176.69-102.7,257-150.65L625.06,649.37,453.33,771.84c-9.7,15.52-30.65,51.11-36.81,69.23-7.69,22.66-142.39,91.2-230.77,124.69s-186.5,18.78-177,33c3,4.53,15.23,11.8,20.39,18.82-5.21-7.15,118.81-30.41,11.3,7.24,1,1.38-9.37-3-8.34-1.63,6,8,16.87,11.91,20.65,16.83L391.88,891.2c-3.7,5-324.88,165.42-321.88,164.15,3.74-1.58,20.62,32.9,29.71,29.05,7.28-3.08,145.7-81.17,180.47-98.39,2.16.39-60.7,43.47-55.34,42.79A63.36,63.36,0,0,0,241.47,1024.28Z" transform="translate(-8.08 -216.14)" style="fill: url(#linear-gradient-2)"/>
  </g>
  <g id="FOOT_FAR">
    <path d="M689.91,970.76c-2.18-12.43-17.95-37.46-25.56-48.43-21.29-48.59,70.94-37.68,62.26-17.18s-5.54,64.43,1.36,68.28S780.75,987.89,807,989c21,.84,42.55,15,50.68,21.95-12.94-.61-40.7-1.75-48.21-1.47s-43-3.31-59.8-5.14c2.86,2.36,9.12,8.79,11.32,15.63s19.88,29.84,28.45,40.5c.27,2.17-2.41,4.2-15.2-5.19s-47-36.91-62.57-49.5c-3-1.25-13.88-.62-33.29,12s-60.44,5-78.52-.31c2.69-2.58,12.17-7.88,28.57-8.5C649,1008.12,692.64,986.3,689.91,970.76Z" transform="translate(-8.08 -216.14)" style="fill: url(#linear-gradient-3)"/>
    <path d="M702.93,964.91c-2.19-12.43-17.88-33.35-25.49-44.31C656.15,872,729.69,884.45,721,905s-7.21,61.2-.32,65,60.06,17.89,86.34,19c21,.84,42.55,15,50.68,21.95-12.94-.61-35.6-9.35-43.12-9.07s-55.65-8.59-72.45-10.42c2.86,2.36,16.68,21.67,18.87,28.51s19.89,29.84,28.46,40.5c.27,2.17-2.41,4.2-15.2-5.19s-30.38-45.78-62.57-49.5c-3-1.25-17.73-11.18-37.14,1.41h0c-19.4,12.59-22,14.27-40.08,8.92,2.69-2.57-22.41-6.56-6-7.18C649,1008.12,705.66,980.45,702.93,964.91Z" transform="translate(-8.08 -216.14)" style="fill: url(#linear-gradient-4)"/>
    <path d="M668.75,930.4c-.87-7.21-20-49.74-29.45-70.1-19.55-43.71,12.93-67.17,115.62-62s66.26,69.52,33.07,93-44.1,36.25-68.78,45S669.84,939.41,668.75,930.4Z" transform="translate(-8.08 -216.14)" style="fill: #90e545"/>
  </g>
  <g id="FOOT_NEAR">
    <path d="M560.75,988l-6.46-53.68.5-45.71,57.09,4c-.16,11.67-.93,37.16-2.63,45.79s-4.79,38.6-6.12,52.51c1-1.55,4.87-3.07,12.83,3.22,9.95,7.85,33.45,21.37,46.44,29.52,10.39,6.52,42.59,21.29,57.39,27.87-8.54.32-28,0-37.78-3.92s-43.32-16.6-58.89-22.46c2.86,2.36,11,11.52,20.68,29.26s12.37,31.51,12.5,36.16c-16.44-13.09-49.75-40.59-51.4-45.8-2.07-6.51-16.79-18.29-28.58-23.61s-16,2.67-35.59,7.11c-15.7,3.56-40.1,7.7-50.35,9.33,2.44-3.53,10.19-13,21.73-22.65S549.34,993,560.75,988Z" transform="translate(-8.08 -216.14)" style="fill: url(#linear-gradient-5)"/>
    <path d="M512.11,1015c11.53-9.66,37.23-22,48.64-27l20.49-.78-10.83-54.34-15.62-44.27,57.09,4c-.16,11.67-10.3,30.52-12,39.15s-1.21,43.4-2.53,57.31c.95-1.55,10.66-1.23,18.62,5.06,9.95,7.85,33.45,21.37,46.44,29.52,10.39,6.52,42.59,21.29,57.39,27.87-8.54.32-29.12-5.31-38.85-9.23s-46.89-21.41-62.47-27.27c2.86,2.36,15.64,21.64,25.33,39.38s12.37,31.51,12.5,36.16c-16.44-13.09-45-40.36-46.66-45.57-2.07-6.5-13.1-23.37-24.89-28.69s-28.2-2.63-47.82,1.82c-15.69,3.56-36.3,17.84-46.55,19.47C492.82,1034.08,500.57,1024.62,512.11,1015Z" transform="translate(-8.08 -216.14)" style="fill: url(#linear-gradient-6)"/>
    <path d="M570.94,955.1c-29.21-6.13-48.86-50.83-55-72.42-16.77-139.32,115.64-91.51,183.94-50.2.86,10.67-1.09,34.38-15.74,43.82-18.3,11.81-41,55.07-53,69.11S607.46,962.77,570.94,955.1Z" transform="translate(-8.08 -216.14)" style="fill: #80ce3a"/>
  </g>
  <g id="WING_R">
    <path d="M876.13,562.53c21.25,64.54,11.68,168.72,16.71,204.33s-14,66.17-24.18,77c2.25-12.17,6.38-39.63,4.88-52.1-1.88-15.59-8.5,68.35-28,72.66s-3.16-26.28-4.23-35.19S830,869.94,798.44,893.51s-39.34,36-39.05,53.84,1.28,37.55-13.92,19.33c-10.3-12.34-5.16-59.07.42-91-5.57,26.27-15.11,58.63-24.32,50.73-14-12-4.5-87.54,22.65-105.13,21.72-14.07,36.69-28.39,41.46-33.79-22.82,16.23-70.1,46-76.61,35.12s45.79-49.32,72.75-67.2l-58.93,23.72c.47-5.09,13.14-23.59,60.05-56.88C841.58,680.65,794.15,456.45,876.13,562.53Z" transform="translate(-8.08 -216.14)" style="fill: url(#linear-gradient-7)"/>
    <path d="M852.23,534.33c26.58-14.36,20-8.5,20.61,3.75-.67,8.41,13.12,41.35,14.52,53s10.76,27,4.1,34c4.52,8.7-6,33.79-2.59,46.2s12.87,46.38,6,49.44c-1.4,11.32-9.4,31.66-16.53,49.82l-.3.77c-7.2,18.35-13.66-4.7-17.38-14.16,2.91,71.2-33.93,43.72-43.55,62.16-5.2,10-4.14,16.16-2.18,17.85a20.91,20.91,0,0,0,3.61-6c.36,5.58-2,7.41-3.61,6-11.19,14.38-43.8,42.5-49.11,44.2-7.77,2.48,5.64-59.37,1.4-52.65S751.65,856.24,741,859.93c-10.3,3.56,8.83-58.95,4.67-58-1.17,1-1.47,1.23-.52.33a1.27,1.27,0,0,1,.52-.33c6.27-5.54,37.5-35,36.26-50-.85-10.18-22.95,5.14-31.59,9.9a4.52,4.52,0,0,1-.77.41c-2.86,1.5-3.75,1.41-1-2-.69,2-.23,2.56,1,2l.77-.41c5.62-3.55,20.9-22.71,20.57-40.76-.42-23.61-2.13-10.63,14.45-36.78l43.77-56.82C838,607.88,809.28,557.54,852.23,534.33Z" transform="translate(-8.08 -216.14)" style="fill: url(#linear-gradient-8)"/>
    <path d="M882.65,752.75c2.44,20.58-1.51,62.84-12.28,77.37-13.47,18.15-28.52,52.45-23.48,23.66s-13.36,12.71-26.09,21.4c-7.51,5.14-12.18-5.38-10.8-20.83-9.66,16.41-21.77,32-32.48,34.6-27.52,6.62-35.28.87-20.23-31.77,4.35-9.44,5.78-13.95,6.26-16.16-9.75,11.89-15.13,30.42-29.88,22.25-20.83-11.54-.26-53.43,11.12-67.18,9.1-11,77.1-21.19,82.71-34.77,2.83,12.41-59,32.24-71.82,39.71-16.07,9.34-22.92,50.21-8.22,49.3,11.76-.73,31.61-47.79,36.82-50.39C768.1,815.85,764,872.06,778,865.63c17.53-8,7.63-16.14,21.26-30,10.91-11.11,23.41-37.66,26.32-45.05l7.81-24.17c-3.68,13.45-7.15,32.84-9.2,50,5.83-8.06,4.31-.38-1.27,12.57-1.37,17-.63,28.7,3.82,24.1,9.52-9.86,24.88-60.57,31.37-84.69C853,796.5,839.62,845,848.06,839.2,858.59,831.93,878.07,746.27,882.65,752.75Z" transform="translate(-8.08 -216.14)" style="fill: url(#linear-gradient-9)"/>
    <path d="M886.68,645.59c9.86,19,22,61,17.57,78.59-5.5,22-6.45,60.12-12.56,30.71s-7.41,16.75-15.75,29.41c-4.62,7-11.3,1.24-15.23-11.13-2.72,18.69-7.89,37.22-16.51,43.21-22.56,15.68-37.18,1.41-20-30.11,2.95-5.4,5-9.22,6.46-12-9.42,14.31-24.14,30.48-38.36,28-23.22-4,22.5-55.37,27.73-72.45,4.19-13.66,19.62-42.4,19.68-57.36,7.19,11,7.33,36.27-1.58,47.81C827,734.71,811,768.66,824,762.81c10.41-4.68,17.69-16.5,21.47-20.76-8.79,20.78-11.28,67.36-.93,56.43,12.94-13.66,4.63-18.92,11.86-36.9a33.07,33.07,0,0,0,1.33-4.05,89.76,89.76,0,0,1,1.11-22.82c-.54-6.26-1.41-11.73-1.45-15.15l-1.79-50.15c3.88,33.47,12.51,104.24,17.5,91.54s.12-66.69-2.94-92.1c5.76,28.87,11.64,80,17.15,71.61C894.22,729.91,880.12,640.9,886.68,645.59Z" transform="translate(-8.08 -216.14)" style="fill: url(#linear-gradient-10)"/>
    <path d="M874.65,545.61c9.86,19,28.48,61.32,24.08,78.94-5.5,22-13,59.77-19.07,30.36s-7.42,16.75-15.76,29.41c-4.62,7-11.29,1.24-15.22-11.14-2.73,18.7-7.9,37.23-16.52,43.22-22.56,15.67-57.34,33.05-40.12,1.52,7-12.87,14.21-25,20.28-34.84-9,11.33-20.69,21.22-32,19.23-23.23-4.06,36.76-50.79,42-67.86,4.19-13.66,5.35-47,5.4-62,7.19,11,19.33,35.82,10.43,47.35C827,634.27,799,668.67,812,662.83c10.41-4.68,20.57-14.37,24.35-18.63-8.79,20.78-23.79,59.61-13.44,48.68,12.94-13.67,8.33-13.08,15.56-31.06,5.79-14.37,7-34.15,6.92-42.24l-2.19-43.14c1.66,14.31,4.27,34.17,7.09,51.22a20.89,20.89,0,0,1,.53,3.14c3.63,21.26,7.55,37.1,10.28,30.17,5-12.71.12-66.69-2.94-92.1,5.76,28.87,18.66,84.5,24.16,76.06C889.19,634.38,868.08,540.92,874.65,545.61Z" transform="translate(-8.08 -216.14)" style="fill: #f2f562"/>
  </g>
  <g id="BODY">
    <path d="M911,572.7c2.7,23.61,5,76.68-7.24,100.11C888.46,702.1,869.32,714,852.5,798.58S828.86,880,755.08,911.53s-148,38.6-215.21,17.59-67.82-25.71-85.31-25l-60.17,2.28,69.05-17.57L390,894.87c15.49-1.87,56.44-7.88,58.77-14.14.62-1.66,1.39-4.24,2.17-7.19-6.16,8.56-19.47,14.81-46.57,8.88-63.39-13.88,34.74,18,50-68.74S554.07,399,571.9,372.63,640.37,624.53,752,550.89c89.27-58.91,141-121,155.75-144.73C920.12,413.2,938.18,456.36,911,572.7Z" transform="translate(-8.08 -216.14)" style="fill: url(#radial-gradient)"/>
    <path d="M630.46,940.08c-10.76,14-23.54,10-56.78,2.16-9.06-2.13-18.18-7.2-26.49-13.82-2.49-2,68-.27,65.7-2.49-2.13-2-77.11-8-79.07-10.17-9.65-10.77-67.7-21-70.41-31C446.63,745.38,637.82,791,700.29,832.54c.89,10.67-.61,34.37-13.8,43.76C670,888.05,641.23,926.08,630.46,940.08Z" transform="translate(-8.08 -216.14)" style="fill: url(#linear-gradient-11)"/>
    <path d="M551.83,586.18c-14-45.24,3.92-70.81,14.64-77.94-2.43,2.28-3.57,8.53,11.26,15.21,7.72,3.48,15,1.13,19.69-1.63,6.39-3.74,8.11-8.24,0,0l-.9.92c-12.5,13,14.07,8.8,28.92,5.08-1.75,15.16-1.25,47.38,14.77,55,20,9.53,39.59,15.37,30,24.79s-11.51,14.85,2.17,18,78.71-30.15,69.57-6.34c-2.88,7.49-5.93,11.72-8.1,13.91a40.62,40.62,0,0,1,9.48-2.44c21.47-3.28,67.46-31,89.73-38.39s34.31-60.58,56.93-29.33-10.69,67.91-.76,50.66-24.74-27.46-14.76-22.9-12.86,49.88-32.23,77.78-19.31,21.32-22,9.89-10.14-16.49-18.79.72-36.8,64.78-71.71,77.63-28.67,7.68-24-10.61S687.52,730,680.2,736.91s-40.06-33.47-46.5-51.34-20-20.23-23.71-8.16S569.36,642.73,551.83,586.18Z" transform="translate(-8.08 -216.14)" style="fill: url(#radial-gradient-2)"/>
  </g>
  <g id="WING_L">
    <path d="M654.07,484.25c-5,68.47-18.38,210.7-32.09,231.8-17.14,26.37-46.58,68.37-44.83,55.44S598.73,727,596.58,717s-34.93,82.63-60.33,91.4c-13.83,4.78-9.62-11.87-1.78-29.45-13.42,24.09-33.08,53.77-51.53,65.46-31.6,20-80.42,46.23-77.75,36.94,1-3.46,5.9-11.36,11.85-20.1-13.19,14.51-31.17,28.64-51.92,32.65-44.32,8.57-108.29-8.75-44.38-27.26,51.13-14.8,78.64-61,86-82.26-4.53-11.47-7.48-48.78,17-106.29C454.27,606.2,501.45,527.24,557.78,481,602.84,444,640.75,467.76,654.07,484.25Z" transform="translate(-8.08 -216.14)" style="fill: #978eb2"/>
    <path d="M572.2,466.77c55.14-26.46,70-5.39,70.49,8.44-1,9.51-2.61,31.8-1,44.91s-15.25,32.41-23.86,40.42c5.61,9.81,17.85,32.92,21.94,46.92s-12.63,24.49-21.51,28c-2,13-8.41,44.12-17.91,64.9s-21,4.64-25.6-6c-3.35,12.62-13.18,43.06-25.76,64s-17.3-1.27-18.09-15c-3.79,11.26-13.37,34.35-21.33,36.62-10,2.85-4.58-27.4-10.1-19.78s-25.52,51.6-39.17,55.82-9.12-75.81-16.92-69.34-25.27,3.84-26.83-16.27c-.94-12.1,14.25-34.28,27.7-50.88-1.19-1.79-2-5.93-2-13.48-.12-26.67,43-92.61,64.62-122.24l-38.46,22.45C480,544.09,517.06,493.23,572.2,466.77Z" transform="translate(-8.08 -216.14)" style="fill: url(#linear-gradient-12)"/>
    <path d="M413.81,772c-6.28-20.84,4.71-52.32,11-65.45-8.79,58.78,11.05,38.27,25.15,9.33,11.27-23.15,17.72-3.55,19.54,9.14C463.3,758,456.17,816.78,477.18,789s26.18-61.64,26.13-75.08c.65,13.69,3.61,42.84,10.29,49.83s16.73-38,20.92-61.31c-2.11,15.72-2.51,45.38,12.75,38.21,19.08-9,21.65-69.56,24.85-53.63s29.44,5.88,33.1-13.6,17.55-11,11.7,25.9c-4.47,28.11-23.67,18.84-34,9.68,2.68,4.08,1.87,16.44-16.58,48.22-20.09,34.6-29.74,15.61-32.55-.41-.61,3.38-3.87,10.19-13.28,25.2-13.52,21.59-19,.17-20-13.24-.32,6.88-6.29,29.71-27.64,66.09-26.69,45.47-47.63,31.86-51.32,33.23s9.65-26.71,20.77-62.53c8.9-28.66-4.2-46.77-11.86-52.24,3,2.22,11.6,19.4-3.42,71.34-18.78,64.93-61,63.65-73.78,71.13s-52.76-10.76,3.9-17.44c45.34-5.34,56.62-52.23,56.59-75-.3,3.44-2.47,15.08-8.76,34.08-7.86,23.77-60.69,19.6-43.25,14.82S421.67,798.09,413.81,772Z" transform="translate(-8.08 -216.14)" style="fill: url(#linear-gradient-13)"/>
    <path d="M627.09,580.77c11.25,6.71,32.26,28.58,1.69,56.74-38.22,35.21-57.84,39.66-53.89,11.93a78.41,78.41,0,0,1,5.91-21.24c-18,24.11-43.35,54.72-51.45,52.6-10.29-2.68-12.22-26.65-9-44-8,23.07-29,72.3-50.14,61.93-15.38-7.54-15.27-21-10.7-32.55-6.22,9.11-14,18.35-21.09,21.41-14.68,6.32.77-29.26,13.42-52.38,4.58-8.37,8.52-16.06,11.66-22.48,2.59-5.92,5.27-11.66,7.66-16.53-1.21,2.9-3.85,8.77-7.66,16.53C453.51,635.48,445,661,460.08,650.5c23.74-16.54,24.33-22.33,21.41-7.4s-17.48,47.18-.95,31.32c13.23-12.68,37-55,47.2-74.65-3,25.36-4.23,71.05,14.28,50.91s44.86-44.1,55.73-53.56c-6,14.08-15.08,42.14-3.13,41.69C609.57,638.24,635.05,607.64,627.09,580.77Z" transform="translate(-8.08 -216.14)" style="fill: url(#linear-gradient-14)"/>
    <path d="M646.47,503.06c2.43,8.28,2.49,32.1-16.65,61.14-17.79,27-26.52,11.12-24.75-9.14-8.87,18.45-23.62,40.2-40.91,40.86-34.58,1.31-34.78-11-15.95-54.14S506.63,631,486.55,628.09,498.13,556.85,506.3,550s-40.12,33.63-41.7,20.52,31-52.63,78.52-70.9,9.45.06-4.92,12.54S502.71,562.85,511.13,558c6.74-3.87,41-36.26,57.22-52-.34,3.16-1.8,13.57-5,29.82-4,20.32-7.94,48,11.4,23.44s33.74-79.49,40.13-72.73-3.78,75.47,7.11,59,26.78-55.36,9-64.56S650.07,467.94,646.47,503.06Z" transform="translate(-8.08 -216.14)" style="fill: url(#linear-gradient-15)"/>
  </g>
  <g id="HEAD">
    <path d="M641.48,251.87c37.36-41.48,132.74-37.16,181.1-27.91,129.44,35.91,119,165.75,115.88,175.13s-7.08,68.88-10.67,106.4-20.47,14.5-35.25,23c-11.83,6.76-18,3.31-19.55.74.26,2.17-1.65,9-11.38,19-9.41,9.64-21.88,5.19-27.5,1.45-.29,1.75-1.28,5.67-3.59,13.45-5.77,19.43-18.27,18.53-26.34,18.84s-25.9,4.75-36.46,19.9-58.13,6.67-41.2,5.34c13.53-1.06,16-15.7,15.6-22.89-8.35-.83-27-1-34.83,5.1-9.76,7.57-22-5.69-16.7-11s-7.77-22-20.74-9.17,10.16,31.18-8.89,22-7.79-29.2-15.45-46.75-1.4-11.61-6,.23-12.82,7-18.7.71,2.34-23.08.86-35.37-9.84-3.74-18.77-3.4-12.13,5.6-8.07.3c3.24-4.24.25-10.87-1.65-13.66-4.13,2.33-13.56,4.36-18.25-6.17-1.08-9,1.07-14.79,2.28-16.55L556.9,482.17c3.49-2.87,9-11.8,3-24.47-7.46-15.84-3.22-44.47,4.12-61.56S594.77,303.73,641.48,251.87Z" transform="translate(-8.08 -216.14)" style="fill: url(#linear-gradient-16)"/>
    <path d="M613.71,329.85c-9.6-79.76,82.1-130.3,193-108.71,164.63,88.15,129.23,164.1,113.4,161.3-9.65-1.7,8.2,60.38,4.16,94.22s-8.66,29.38-23.53,37.05c-11.9,6.14-30-13.18-31.52-15.49.24,1.94-2.61,29.45-12.45,38.48s-23.22,11.59-28.48,8.19c1,8.19-7.56,9.77-8.47,2.32-5.54,10.68-12.25,21.45-15.8,21.58-8.08.31-30.15-18.44-40.88-4.74-6.41,8.16-26.61,13.23-38.29,15.72a11.06,11.06,0,0,1-5.08,1.68c-6.83.51-2.83,0,5.08-1.68,9.68-6,13.21-25.86,12.91-31.45-8.34-.71-11.25,18.22-19.13,23.71-9.84,6.86-37.7-24-32.31-28.87s-7.5-19.8-20.62-8.17,9.78,28-9.15,19.81-12.09-15.3-19.54-31.09a28.25,28.25,0,0,1-2.47-7.69c-3.62,10.78-4.37,25.65-9.65,20.51-5.8-5.65-5.26-43.68-6.59-54.75S618,498.05,609,498.39s-21.61-14.51-17.49-19.3c3.3-3.84.39-9.8-1.48-12.31-4.16,2.12-13.61,4-18.17-5.49-1-8.12,1.24-13.33,2.47-14.93L553.87,457c3.53-2.61,9.14-10.67,3.32-22.07-7.26-14.24,7.21-40.44,14.75-55.87S620.23,383.94,613.71,329.85Z" transform="translate(-8.08 -216.14)" style="fill: url(#linear-gradient-17)"/>
    <path d="M627.08,477.59c-1.16,10.07-7.78,17.23-14.8,16s-8.83-8.47-7.67-18.53,5.08-12.57,12.1-11.34S628.24,467.52,627.08,477.59Z" transform="translate(-8.08 -216.14)" style="fill: #6e6430"/>
    <path d="M874,513.3c5,5.48,7.08,8.11,2.78,11.57s-6.67,5.1-11.62-.39-12.24-9-7.93-12.46C852.66,502.32,869.09,507.82,874,513.3Z" transform="translate(-8.08 -216.14)" style="fill: #6e6430"/>
    <path d="M830.68,525.53c7.8,8.63,9.55,19.29,3.91,23.82s-2.14,0-9.93-8.66-7.36-13.6-1.73-18.13S822.88,516.91,830.68,525.53Z" transform="translate(-8.08 -216.14)" style="fill: #6e6430"/>
    <path d="M656.7,504c-3.05,11.25-10.9,18.69-17.55,16.61s-5.15-4.47-2.1-15.72,7.36-13.69,14-11.62C658.68,490.37,659.74,492.74,656.7,504Z" transform="translate(-8.08 -216.14)" style="fill: #6e6430"/>
    <path d="M655.67,444.12c.3-6,18.17-18.7,27.07-24.28,27.07-24.28-4.82,31.91-10.43,35.77S655.29,451.67,655.67,444.12Z" transform="translate(-8.08 -216.14)" style="fill: #1c607e"/>
    <path d="M830.51,495.14c-4.7-4-6.62-26.62-7-37.45-7-37.45,23.35,23.57,23.86,30.61S836.38,500.08,830.51,495.14Z" transform="translate(-8.08 -216.14)" style="fill: #1c607e"/>
    <path d="M737.09,440c-5.34-21.53-5.35-34.92-4.68-38.93,33.21-40.45,56.78-11.62,64.41,7.85.23,1.91-.25,9.31-4,23.61s-29.2,44.88-41.44,58.38C748.83,482.93,742.43,461.55,737.09,440Z" transform="translate(-8.08 -216.14)" style="fill: #d9b600"/>
    <path d="M741,440.28c-5.33-21.53-9.24-35.18-8.57-39.19,33.21-40.44,56.78-11.62,64.41,7.85.23,1.91,1.48,2.25-2.29,16.55s-24.42,31.11-36.66,44.61C755.34,462.1,746.32,461.81,741,440.28Z" transform="translate(-8.08 -216.14)" style="fill: url(#linear-gradient-18)"/>
    <path d="M743.52,379.17c15.43-13,33.2-4.17,37.81,1.77-3.19,9-18.81,27.43-36.92,30.18C721.76,414.56,724.24,395.45,743.52,379.17Z" transform="translate(-8.08 -216.14)" style="fill: url(#radial-gradient-3)"/>
    <path d="M787.77,381.24c-16.19-14.5-33.53-7.29-37.81-1.77,3.69,9.31,20.38,29.26,38.69,33.72C811.55,418.76,808,399.37,787.77,381.24Z" transform="translate(-8.08 -216.14)" style="fill: url(#radial-gradient-3)"/>
    <ellipse cx="859.61" cy="366.68" rx="48.83" ry="35.8" transform="translate(270.63 882.63) rotate(-74.67)" style="fill: url(#linear-gradient-19)"/>
    <ellipse cx="861.87" cy="368.6" rx="49.32" ry="35.68" transform="translate(268.93 885.01) rotate(-74.55)" style="fill: #6dbfe1"/>
    <ellipse cx="857.18" cy="368.78" rx="47.58" ry="31.26" transform="translate(257.35 874.16) rotate(-73.92)" style="fill: url(#linear-gradient-20)"/>
    <path d="M868.61,384.38c-4.55,14.42-14.6,23.88-26.37,19.75s-17.64-19.17-13.1-33.6,17.77-22.76,29.55-18.63S873.15,370,868.61,384.38Z" transform="translate(-8.08 -216.14)" style="fill: #1d2329"/>
    <path d="M846.83,396.45c4.74.64,8.81-2.32,10.24-3.88,2.21-2,6.38-4.43,5.28,1.85-1.36,7.8-10.06,8.17-14.42,8.36h-.1C843.5,403,840.9,395.65,846.83,396.45Z" transform="translate(-8.08 -216.14)"/>
    <path d="M850.54,368.05c6.31-3.93,12.71,1.9,15.12,5.31-12.85,5.1-11,10.68-13.54,6.78s-6.24,2.73-10.62,2.05S842.66,373,850.54,368.05Z" transform="translate(-8.08 -216.14)" style="fill: #5c7077"/>
    <path d="M843.19,380.86c-1.47,4.67-5.48,7.48-8.94,6.26s-5.09-6-3.62-10.67,4.28-.63,7.75.58S844.66,376.18,843.19,380.86Z" transform="translate(-8.08 -216.14)" style="fill: #fff"/>
    <ellipse cx="681.7" cy="329.05" rx="38.7" ry="47.57" transform="translate(-32.18 -160.66) rotate(-4.58)" style="fill: url(#linear-gradient-21)"/>
    <ellipse cx="677.53" cy="332.36" rx="40.62" ry="49.33" transform="translate(-35.31 -153.64) rotate(-5.18)" style="fill: #6dbfe1"/>
    <ellipse cx="680.92" cy="332.38" rx="37.31" ry="48.86" transform="translate(-21.2 -187.81) rotate(-2.36)" style="fill: url(#linear-gradient-22)"/>
    <path d="M710.23,347.49c-.88,16.78-9,29.5-22.54,27.87s-23.89-16.54-23-33.31S677.31,313,690.9,314.62,711.12,330.72,710.23,347.49Z" transform="translate(-8.08 -216.14)" style="fill: #1d2329"/>
    <path d="M690.46,365.9c5.19-.46,8.69-4.66,9.79-6.71,1.8-2.71,5.54-6.36,6.09.73.69,8.8-8.42,11.33-13,12.59l-.1,0C688.71,373.8,684,366.47,690.46,365.9Z" transform="translate(-8.08 -216.14)"/>
    <path d="M686.67,334.15c5.6-5.82,14-1,17.44,2.08-12.21,8.68-8.7,14.28-12.49,10.67s-5.86,4.48-10.68,4.8S679.66,341.41,686.67,334.15Z" transform="translate(-8.08 -216.14)" style="fill: #5c7077"/>
    <path d="M682.36,349.84c-.29,5.44-3.76,9.46-7.76,9s-7-5.27-6.72-10.71,4.35-1.73,8.35-1.25S682.65,344.41,682.36,349.84Z" transform="translate(-8.08 -216.14)" style="fill: #fff"/>
  </g>
</svg>
