<svg width="600" height="600" viewBox="0 0 600 600" fill="none" xmlns="http://www.w3.org/2000/svg">
<g clip-path="url(#clip0_1_22)">
<g clip-path="url(#clip1_1_22)">
<mask id="mask0_1_22" style="mask-type:luminance" maskUnits="userSpaceOnUse" x="0" y="0" width="600" height="600">
<path d="M600 0H0V600H600V0Z" fill="white"/>
</mask>
<g mask="url(#mask0_1_22)">
<path d="M291.726 502.415C425.628 502.415 534.177 398.852 534.177 271.1C534.177 143.348 425.628 39.7844 291.726 39.7844C157.824 39.7844 49.2754 143.348 49.2754 271.1C49.2754 398.852 157.824 502.415 291.726 502.415Z" fill="#1126CF"/>
<path d="M295.246 502.415C418.513 502.415 518.442 407.279 518.442 289.921C518.442 172.564 418.513 77.427 295.246 77.427C171.978 77.427 72.0503 172.564 72.0503 289.921C72.0503 407.279 171.978 502.415 295.246 502.415Z" fill="#5B80F3"/>
<path d="M301.871 491.487C413.475 491.487 503.948 402.421 503.948 292.552C503.948 182.683 413.475 93.6165 301.871 93.6165C190.267 93.6165 99.7942 182.683 99.7942 292.552C99.7942 402.421 190.267 491.487 301.871 491.487Z" fill="#1A4771"/>
<path d="M322.459 148.258C322.459 161.447 323.666 205.126 337.159 205.126C350.652 205.126 371.322 161.447 371.322 148.258C371.322 135.069 360.383 124.378 346.89 124.378C333.397 124.378 322.459 135.069 322.459 148.258Z" fill="#1389A5"/>
<path d="M204.481 161.224C211.71 172.361 236.669 208.611 248.062 201.545C259.456 194.48 252.969 146.774 245.741 135.638C238.512 124.501 223.416 121.201 212.022 128.267C200.629 135.332 197.253 150.088 204.481 161.224Z" fill="#1389A5"/>
<path d="M172.418 236.352C185.694 238.71 229.876 245.36 232.289 232.383C234.702 219.407 194.432 191.719 181.156 189.361C167.881 187.002 155.162 195.61 152.75 208.586C150.337 221.562 159.143 233.993 172.418 236.352Z" fill="#1389A5"/>
<path d="M140.274 304.885C153.766 304.728 198.441 303.426 198.334 294.674C198.228 285.923 153.381 273.036 139.888 273.193C126.397 273.35 115.545 280.571 115.652 289.323C115.758 298.074 126.782 305.042 140.274 304.885Z" fill="#1389A5"/>
<path d="M171.069 375.963C181.69 367.829 216.371 340.272 210.848 333.384C205.325 326.494 163.509 334.115 152.887 342.25C142.267 350.384 136.316 371.329 141.838 378.218C147.361 385.107 160.448 384.098 171.069 375.963Z" fill="#1389A5"/>
<path d="M230.242 421.165C234.639 408.696 248.446 367.147 239.981 364.295C231.516 361.442 200.144 388.759 195.746 401.228C191.349 413.696 198.486 435.724 206.951 438.576C215.416 441.429 225.844 433.633 230.242 421.165Z" fill="#1389A5"/>
<path d="M415.341 172.742C405.115 181.346 372.035 210.736 380.837 220.731C389.64 230.727 436.992 217.543 447.218 208.939C457.444 200.335 458.599 185.256 449.796 175.261C440.993 165.266 425.567 164.138 415.341 172.742Z" fill="#1389A5"/>
<path d="M297.411 370.412L433.424 214.825L468.577 233.329L318.348 381.063L297.411 370.412Z" fill="#2C502C"/>
<path d="M289.823 365.826L429.929 182.435L455.868 228.753L307.796 373.854L289.823 365.826Z" fill="#3AC659"/>
<path d="M409.633 168.977L488.082 173.147L469.019 283.946L409.633 168.977Z" fill="#2C502C"/>
<path d="M407.877 166.777L489.266 171.741L465.212 265.698L407.877 166.777Z" fill="#3AC659"/>
<path d="M280.794 340.349L235.943 94.7275L300.383 78.8879L318.693 330.614L280.794 340.349Z" fill="#7AF7FB"/>
<path d="M201.733 141.939L272.947 3.14014L350.052 95.729L201.733 141.939Z" fill="#7AF7FB"/>
<path d="M285.625 339.383L240.774 93.7612L305.214 77.9216L323.524 329.648L285.625 339.383Z" fill="#255525"/>
<path d="M323.731 329.634L292.639 338.896L297.826 210.386L252.546 92.9429L314.087 79.6531L323.731 329.634Z" fill="#3AC659"/>
<path d="M206.564 140.973L274.097 0.42334L354.883 94.7628L206.564 140.973Z" fill="#2C502C"/>
<path d="M240.338 123.913L275.519 1.69067L347.841 89.773L240.338 123.913Z" fill="#3AC659"/>
<path d="M172.295 474.486C170.64 453.957 168.708 442.617 167.949 439.513C146.22 428.545 558.86 426.476 520.783 494.971C482.706 563.469 474.222 545.261 466.151 548.159C458.081 551.053 453.114 570.923 436.144 570.092C419.175 569.266 380.064 599.27 318.188 600.101C256.313 600.927 240.171 572.367 232.101 562.024C224.03 551.676 208.716 550.435 189.678 535.121C170.64 519.807 174.364 500.145 172.295 474.486Z" fill="#FBD4D5"/>
<path d="M197.179 464.039C195.64 448.671 193.845 440.181 193.139 437.857C172.938 429.646 556.565 428.097 521.164 479.376C485.763 530.657 477.876 517.024 470.373 519.193C462.87 521.362 458.253 536.232 442.476 535.614C426.701 534.995 390.339 557.459 332.814 558.077C275.289 558.696 260.283 537.319 252.78 529.57C245.277 521.826 231.04 520.894 213.34 509.43C195.64 497.966 199.103 483.251 197.179 464.039Z" fill="#FFF4E6"/>
<path d="M273.256 468.367C260.83 440.098 265.52 428.109 269.418 425.648C321.376 454.742 437.023 506.444 483.947 480.497C542.609 448.062 486.507 548.266 474.264 548.266C464.469 548.266 427.667 542.642 410.489 539.831C405.13 550.024 390.535 571.734 375.039 577.01C355.669 583.604 328.076 553.807 320.218 548.266C312.361 542.729 309.986 522.159 309.986 532.444C309.986 542.729 296.463 544.575 300.301 539.831C304.138 535.082 295.184 512.932 296.463 522.159C297.742 531.391 279.651 525.063 284.951 522.159C290.25 519.261 288.788 503.7 273.256 468.367Z" fill="#FBD4D5"/>
<path d="M313.636 474.486C350.885 493.029 439.525 487.594 479.188 482.557C466.082 503.251 426.294 544.638 371.993 544.638C329.314 544.638 305.359 496.145 292.471 460.049C278.812 446.51 282.1 434.905 284.25 434.546C286.272 441.309 288.961 450.219 292.471 460.049C297.222 464.758 304.023 469.701 313.636 474.486Z" fill="#342216"/>
<path d="M342.193 518.358C339.875 490.874 326.603 481.109 320.258 479.66C367.647 432.891 413.588 474.487 437.8 479.66C462.012 484.836 470.497 499.319 474.842 526.43C479.188 553.536 471.324 551.884 431.178 580.232C391.031 608.585 345.09 552.71 342.193 518.358Z" fill="#841341"/>
<path d="M345.389 513.599C343.127 488.198 330.175 479.173 323.983 477.834C370.228 434.612 415.06 473.053 438.688 477.834C462.316 482.615 470.596 496.005 474.836 521.058C479.077 546.111 471.403 544.58 432.226 570.783C393.048 596.981 348.216 545.343 345.389 513.599Z" fill="#F26CCB"/>
<path d="M391.031 498.285C379.443 501.266 353.782 497.044 342.401 494.56C336.772 467.74 413.588 471.106 452.7 476.142C451.044 479.453 439 480.819 435.524 482.971C431.178 485.662 410.691 478.418 422.486 498.285C431.923 514.179 430.35 526.638 422.486 532.222C423.659 532.773 414.788 533.546 417.106 521.464C420.003 506.358 405.517 494.56 391.031 498.285Z" fill="#C8447D"/>
<path d="M494.502 476.763C464.04 494.807 433.247 478.901 421.658 468.692C341.697 378.135 388.341 297.827 421.658 268.994C435.248 298.38 468.841 358.599 494.502 364.394C526.58 371.637 512.092 387.778 521.609 397.297C529.227 404.913 537.338 400.47 540.444 397.297C538.787 402.126 535.478 412.984 535.478 417.784C535.478 423.785 536.923 426.476 535.478 438.892C534.029 451.309 523.681 448.412 521.609 454.206C519.541 460 532.58 454.206 494.502 476.763Z" fill="#FBD4D5"/>
<path d="M491.188 471.074C460.703 488.609 475.472 468.885 463.874 458.966C383.846 370.978 388.215 297.216 421.56 269.201C435.161 297.753 468.782 356.264 494.464 361.894C526.565 368.931 512.068 384.614 521.594 393.863C529.217 401.263 539.406 400.173 542.512 397.09C540.855 401.782 535.473 409.104 535.473 413.769C535.473 419.6 536.923 422.214 535.473 434.278C534.024 446.342 520.391 443.527 518.324 449.157C516.251 454.787 529.3 449.157 491.188 471.074Z" fill="#FFF4E6"/>
<path d="M466.772 421.302C455.68 413.687 433.041 378.258 423.107 361.497C430.143 345.01 432.13 304.587 383.788 274.788C323.362 237.539 253.209 333.766 214.511 384.881C175.813 435.995 169.398 451.929 186.781 445.515C204.164 439.099 261.9 436.616 291.079 468.071C320.258 499.527 347.987 494.353 391.031 494.971C425.466 495.469 433.523 477.245 433.247 468.071C445.664 467.312 471.656 461.739 476.291 445.515C482.086 425.234 480.637 430.822 466.772 421.302Z" fill="#FBD4D5"/>
<path d="M447.048 417.471C436.706 410.038 419.124 372.063 409.863 355.703C416.423 339.611 419.226 319.423 374.155 290.338C317.815 253.982 266.969 327.344 230.888 377.233C194.808 427.122 184.645 449.984 200.853 443.722C217.06 437.461 256.033 432.418 283.239 463.119C310.443 493.821 336.298 488.768 376.43 489.377C408.536 489.86 416.048 472.074 415.791 463.119C427.368 462.378 451.601 456.938 455.923 441.103C461.326 421.309 459.975 426.762 447.048 417.471Z" fill="#FFF4E6"/>
<path d="M386.686 297.138C375.428 269.822 361.301 265.614 355.645 266.925C361.025 261.751 394.135 263.2 402.827 259.061C411.518 254.922 401.378 247.472 402.827 237.332C404.275 227.192 436.972 207.326 446.285 201.738C455.597 196.151 470.703 178.768 476.291 184.769C481.878 190.77 490.57 200.497 494.71 241.057C497.643 269.807 490.937 280.535 485.961 283.087C487.884 284.346 491.58 288.184 498.227 297.138C513.126 317.211 498.227 313.279 509.401 314.314C520.575 315.349 518.507 325.282 509.401 330.248C500.295 335.215 498.227 350.529 509.401 366.463C520.575 382.398 509.401 386.536 498.227 393.572C487.053 400.608 484.155 386.536 476.291 375.569C470 366.794 458.218 379.225 453.114 386.536C456.425 387.916 457.832 389.847 436.972 386.536C410.898 382.398 400.758 331.283 386.686 297.138Z" fill="#E6D94D"/>
<path d="M386.686 297.138C376.201 271.698 419.507 290.38 420.937 294.125C423.916 287.848 394.414 263.067 402.827 259.061C411.518 254.922 406.281 245.647 407.73 235.507C409.178 225.367 436.972 207.326 446.285 201.738C455.597 196.151 470.703 178.768 476.291 184.769C481.878 190.77 490.57 200.497 494.71 241.057C497.643 269.807 490.937 280.535 485.961 283.087C487.884 284.346 491.58 288.184 498.227 297.138C513.126 317.211 498.227 313.279 509.401 314.314C520.575 315.349 518.507 325.282 509.401 330.248C500.295 335.215 498.227 350.529 509.401 366.463C520.575 382.398 509.401 386.536 498.227 393.572C487.053 400.608 484.155 386.536 476.291 375.569C470 366.794 458.218 379.225 453.114 386.536C456.425 387.916 457.831 389.847 436.972 386.536C410.898 382.398 400.758 331.283 386.686 297.138Z" fill="#EFFFC0"/>
<path d="M402.827 288.446C391.569 261.13 361.301 265.614 355.645 266.925C361.025 261.751 394.135 263.2 402.827 259.061C411.518 254.922 410.484 251.197 411.932 241.057C413.381 230.917 443.801 211.671 453.114 206.084C462.426 200.497 470.703 178.768 476.291 184.769C481.878 190.77 490.57 200.497 494.71 241.057C497.643 269.807 490.937 280.535 485.961 283.087C487.884 284.346 491.58 288.184 498.227 297.138C513.126 317.211 498.227 313.279 509.401 314.314C520.575 315.349 518.507 325.282 509.401 330.248C500.295 335.215 498.227 350.529 509.401 366.463C520.575 382.398 509.401 386.536 498.227 393.572C487.053 400.608 492.019 404.54 484.155 393.572C478.189 385.252 481.057 389.486 477.016 396.182C477.324 397.142 477.059 397.617 476.291 397.297C476.555 396.919 476.796 396.547 477.016 396.182C475.997 393.005 468.716 384.526 452.7 381.984C426.625 377.845 416.899 322.591 402.827 288.446Z" fill="#C79647"/>
<path d="M402.827 288.446C393.524 265.873 401.529 268.633 401.397 271.012C405.658 267.763 407.332 270.905 415.217 267.15C423.909 263.011 410.484 251.197 411.932 241.057C413.381 230.917 443.801 211.671 453.114 206.084C462.426 200.497 470.703 178.768 476.291 184.769C481.878 190.77 490.57 200.497 494.71 241.057C497.643 269.832 488.382 284.297 482.829 287.684C485.155 288.629 489.71 292.458 497.101 302.415C503.174 310.596 504.483 313.913 504.662 315.042C505.005 314.582 506.14 314.012 509.401 314.314C520.575 315.349 518.507 325.282 509.401 330.248C500.295 335.215 498.227 350.529 509.401 366.463C520.575 382.398 509.401 386.536 498.227 393.572C487.053 400.608 492.019 404.54 484.155 393.572C478.189 385.252 481.057 389.486 477.016 396.182C477.324 397.142 477.06 397.617 476.291 397.297C476.555 396.919 476.796 396.547 477.016 396.182C475.997 393.005 468.716 384.526 452.7 381.984C426.625 377.845 416.899 322.591 402.827 288.446Z" fill="#FFC446"/>
<path d="M166.5 411.783C161.534 423.372 164.431 435.926 166.5 440.755C168.57 440.755 177.261 438.686 195.472 430.408C218.236 420.061 201.68 411.783 221.34 395.228C240.999 378.672 254.45 386.95 276.386 411.783C293.935 431.649 295.425 439.375 293.976 440.755C297.08 444.894 309.497 450.688 334.329 440.755C365.371 428.338 372.614 403.505 375.718 386.95C378.822 370.395 379.857 367.291 383.995 345.562C388.134 323.833 378.822 302.932 357.093 283.273C335.364 263.614 286.733 288.446 276.386 289.481C266.039 290.516 261.693 279.134 254.45 269.822C247.207 260.509 225.479 263.406 221.34 252.025C217.201 240.643 199.611 231.538 172.709 226.364C145.806 221.19 160.292 246.023 166.5 269.822C172.709 293.62 166.5 342.458 166.5 359.013C166.5 372.257 176.157 383.157 180.986 386.95V395.228C178.227 395.918 171.467 400.194 166.5 411.783Z" fill="#EFFFC0"/>
<path d="M212.855 364.808C210.786 359.979 176.02 397.918 180.986 386.329C184.735 377.582 194.852 365.06 198.608 360.783L180.986 377.5C176.157 373.706 166.5 362.808 166.5 349.563C166.5 333.008 172.709 284.17 166.5 260.372C160.292 236.573 145.806 211.741 172.709 216.914C199.611 222.088 217.201 231.193 221.34 242.575C225.479 253.956 247.207 251.059 254.45 260.372C261.693 269.684 266.039 281.066 276.386 280.031C286.733 278.997 335.364 254.164 357.093 273.823C378.822 293.483 388.134 314.384 383.996 336.112C379.856 357.841 378.822 360.945 375.718 377.5C372.614 394.056 365.371 418.888 334.329 431.305C309.497 441.238 337.434 419.233 334.329 415.094C335.778 413.714 288.141 412.818 270.592 392.952C248.656 368.118 249.484 376.396 229.825 392.952C210.165 409.507 218.236 410.611 195.472 420.958C177.261 429.236 214.925 364.808 212.855 364.808Z" fill="#C79647"/>
<path d="M212.855 364.808C210.786 359.979 176.02 397.918 180.986 386.329C184.735 377.582 194.852 365.06 198.608 360.783L180.986 377.5C176.157 373.706 166.5 362.808 166.5 349.563C166.5 333.008 172.709 284.17 166.5 260.372C160.292 236.573 145.806 211.741 172.709 216.914C199.611 222.088 217.201 231.193 221.34 242.575C225.479 253.956 247.207 251.059 254.45 260.372C261.693 269.684 272.503 287.991 282.85 286.956C293.197 285.922 342.522 262.949 364.251 282.609C385.98 302.268 388.134 314.384 383.996 336.112C379.856 357.841 378.822 360.945 375.718 377.5C372.614 394.056 365.37 418.888 334.329 431.305C309.497 441.238 337.434 419.233 334.329 415.094C335.778 413.714 288.141 412.818 270.592 392.952C248.656 368.118 249.484 376.396 229.825 392.952C210.165 409.507 218.236 410.611 195.472 420.958C177.261 429.236 214.925 364.808 212.855 364.808Z" fill="#FFC446"/>
<path d="M479.188 451.309C485.478 442.038 481.81 435.719 479.188 433.719C479.188 416.129 388.134 417.784 417.313 460C446.492 502.217 471.325 462.897 479.188 451.309Z" fill="#332216"/>
<path d="M446.876 426.219C465.133 422.006 479.425 435.509 479.791 442.018C476.28 451.893 472.55 450.138 469.478 449.26C464.431 447.818 471.672 453.209 469.478 458.256C467.283 463.304 455.873 470.764 442.487 473.836C429.102 476.909 433.49 467.034 436.124 466.156C438.757 465.278 441.171 459.134 436.124 454.087C431.077 449.04 429.98 460.012 425.811 461.767C421.641 463.523 418.35 449.26 417.911 439.385C417.472 429.51 424.055 431.486 446.876 426.219Z" fill="#5E362E"/>
<path d="M466.151 203.186C457.708 209.809 437.386 242.229 428.281 257.612C453.942 274.168 450.216 243.954 451.044 257.612C451.706 268.539 468.427 275.823 476.705 278.099C482.016 260.923 490.816 221.894 483.536 203.186C474.429 179.802 476.705 194.909 466.151 203.186Z" fill="#C8447D"/>
<path d="M470.29 212.913C461.846 219.535 437.386 242.229 428.281 257.612C453.942 274.168 450.216 243.954 451.044 257.612C451.706 268.539 468.427 275.823 476.705 278.099C482.016 260.923 490.816 221.894 483.536 203.186C474.429 179.802 480.843 204.635 470.29 212.913Z" fill="#F26CCB"/>
<path d="M185.125 305.208C190.588 331.697 198.99 353.081 202.508 360.462C206.813 342.913 213.821 325.972 216.787 319.694C219.822 320.177 226.969 319.322 231.273 312.038C235.577 304.753 246.173 297.414 250.932 294.655C244.103 293.137 227.714 286.17 216.787 270.442C203.129 250.783 180.572 238.78 172.295 236.504C164.017 234.228 178.296 272.098 185.125 305.208Z" fill="#C8447D"/>
<path d="M185.125 305.208C190.588 331.697 198.99 353.081 202.508 360.462C206.813 342.913 213.821 325.972 216.787 319.694C219.822 320.177 226.969 319.322 231.273 312.038C235.577 304.753 246.173 297.414 250.932 294.655C244.103 293.137 227.714 297.344 216.787 281.617C203.129 261.958 180.572 238.78 172.295 236.504C164.017 234.228 178.296 272.098 185.125 305.208Z" fill="#F26CCB"/>
<path d="M317.774 407.23C304.199 405.74 287.423 385.364 280.732 375.361C288.803 366.394 309.869 346.762 329.57 339.974C354.196 331.49 375.718 372.05 372.821 392.124C369.924 412.197 334.744 409.093 317.774 407.23Z" fill="#DEDEDE"/>
<path d="M317.711 394.32C304.083 393.109 287.242 376.551 280.525 368.423C288.627 361.136 309.775 345.184 329.553 339.668C354.274 332.773 375.879 365.733 372.971 382.044C370.063 398.356 334.746 395.833 317.711 394.32Z" fill="#959DA8"/>
<path d="M497.85 362.204C492.053 375.945 478.051 380.622 471.773 381.243C463.91 368.965 450.583 341.841 460.185 331.577C472.187 318.747 487.502 329.922 493.918 331.577C500.333 333.233 505.092 345.028 497.85 362.204Z" fill="#DEDEDE"/>
<path d="M497.894 351.381C492.092 361.071 478.075 364.369 471.79 364.808C463.917 356.148 450.575 337.021 460.188 329.783C472.205 320.734 487.536 328.615 493.957 329.783C500.382 330.95 505.145 339.268 497.894 351.381Z" fill="#959DA8"/>
<path d="M327.087 410.334C345.487 410.334 360.404 396.251 360.404 378.879C360.404 361.507 345.487 347.424 327.087 347.424C308.686 347.424 293.769 361.507 293.769 378.879C293.769 396.251 308.686 410.334 327.087 410.334Z" fill="#170006"/>
<path d="M351.203 375.311C351.203 390.823 341.959 403.398 324.872 403.398C307.784 403.398 293.931 390.823 293.931 375.311C293.931 359.798 307.784 347.223 324.872 347.223C341.959 347.223 351.203 359.798 351.203 375.311Z" fill="#342216"/>
<path d="M327.708 394.4C334.164 393.407 338.262 389.158 339.503 387.157C341.573 384.467 346.001 380.701 347.16 387.157C348.599 395.171 337.387 398.492 331.759 400.159L331.64 400.194C326.052 401.85 319.637 395.642 327.708 394.4Z" fill="#170006"/>
<path d="M467.186 383.846C482.272 383.846 494.502 371.523 494.502 356.323C494.502 341.122 482.272 328.8 467.186 328.8C452.1 328.8 439.87 341.122 439.87 356.323C439.87 371.523 452.1 383.846 467.186 383.846Z" fill="#170006"/>
<path d="M489.667 354.684C489.667 368.984 478.564 380.577 464.87 380.577C451.175 380.577 448.632 375.348 448.632 361.048C448.632 346.747 459.733 335.155 473.428 335.155C487.121 335.155 489.667 340.384 489.667 354.684Z" fill="#342216"/>
<path d="M320.879 365.635C327.501 359.675 338.262 363.152 342.814 365.635C328.122 374.948 332.881 379.707 327.914 376.81C322.948 373.913 320.879 381.569 314.877 382.398C308.876 383.225 312.601 373.085 320.879 365.635Z" fill="#5C7077"/>
<path d="M479.602 364.394C479.922 365.12 479.872 365.781 479.544 366.379C478.761 379.051 470.284 374.895 465.944 371.016C470.323 370.618 478.003 369.188 479.544 366.379C479.582 365.758 479.602 365.097 479.602 364.394Z" fill="#170006"/>
<path d="M464.495 346.596C458.535 350.57 457.045 360.393 457.045 364.808C464.495 364.808 469.462 360.668 468.22 354.046C466.979 347.424 474.635 355.081 474.222 346.596C473.808 338.112 471.945 341.63 464.495 346.596Z" fill="#5C7077"/>
<path d="M463.3 328.936C452.414 328.039 444.332 361.904 447.837 378.052C425.571 348.224 447.013 300.229 476.701 314.358C506.387 328.487 500.411 316.825 501.85 310.097C503.005 304.714 516.077 305.013 520.821 305.387C521.507 309.35 520.367 320.862 512.778 328.936C503.295 339.028 476.906 330.057 463.3 328.936Z" fill="#B99970"/>
<path d="M463.713 324.383C452.828 323.486 444.642 361.076 448.147 377.224C430.557 342.872 451.048 296.553 480.736 310.682C510.425 324.811 502.58 312.273 504.019 305.544C505.174 300.162 516.493 300.461 521.232 300.835C521.923 304.797 520.778 316.31 513.193 324.383C503.71 334.476 477.32 325.505 463.713 324.383Z" fill="#EFFFC0"/>
<path d="M293.976 368.326C284.871 378.59 270.868 376.328 265.005 373.913C283.836 373.913 296.667 341.423 301.426 333.973C306.186 326.524 351.92 326.11 371.786 357.358C387.679 382.356 373.717 398.401 364.75 403.299C370.545 399.643 377.167 386.454 357.301 362.945C332.467 333.559 305.358 355.495 293.976 368.326Z" fill="#B99970"/>
<path d="M292.528 360.308C283.422 370.572 243.758 376.12 237.895 373.706C256.727 373.706 261.073 343.7 265.832 336.25C270.592 328.8 350.471 318.092 370.338 349.341C386.23 374.339 379.305 395.711 370.338 400.608C376.132 396.952 375.718 378.436 355.852 354.928C331.019 325.543 303.91 347.478 292.528 360.308Z" fill="#EFFFC0"/>
<path d="M316.533 380.535C316.533 385.564 312.456 389.64 307.428 389.64C302.399 389.64 298.322 385.564 298.322 380.535C298.322 375.506 303.64 378.466 308.669 378.466C313.698 378.466 316.533 375.506 316.533 380.535Z" fill="white"/>
<path d="M484.415 344.714C489.188 346.285 492.058 350.62 490.816 354.396C489.575 358.172 490.937 363.626 486.159 362.055C481.383 360.484 482.548 354.834 483.787 351.058C485.029 347.282 479.636 343.143 484.415 344.714Z" fill="white"/>
</g>
</g>
</g>
<defs>
<clipPath id="clip0_1_22">
<rect width="600" height="600" fill="white"/>
</clipPath>
<clipPath id="clip1_1_22">
<rect width="600" height="600" fill="white"/>
</clipPath>
</defs>
</svg>
