<svg width="1242" height="1242" viewBox="0 0 1242 1242" fill="none" xmlns="http://www.w3.org/2000/svg">
<g clip-path="url(#clip0_6_147)">
<ellipse cx="603.873" cy="561.177" rx="501.873" ry="478.823" fill="#FF6F36"/>
<ellipse cx="611.159" cy="600.137" rx="462.015" ry="439.863" fill="#992E26"/>
<ellipse cx="624.873" cy="605.582" rx="418.299" ry="411.796" fill="#88C5BD"/>
<path d="M582.872 306.894C582.872 334.195 580.374 424.61 552.443 424.61C524.512 424.61 481.726 334.195 481.726 306.894C481.726 279.593 504.369 257.462 532.299 257.462C560.23 257.462 582.872 279.593 582.872 306.894Z" fill="#72AF83"/>
<path d="M827.087 333.734C812.124 356.787 760.458 431.824 736.874 417.198C713.289 402.573 726.717 303.823 741.68 280.77C756.643 257.718 787.892 250.886 811.476 265.512C835.061 280.137 842.05 310.682 827.087 333.734Z" fill="#72AF83"/>
<path d="M893.456 489.248C865.976 494.13 774.518 507.895 769.524 481.034C764.529 454.173 847.889 396.859 875.369 391.977C902.85 387.095 929.176 404.912 934.171 431.773C939.165 458.633 920.937 484.366 893.456 489.248Z" fill="#72AF83"/>
<path d="M959.995 631.112C932.066 630.787 839.591 628.092 839.811 609.976C840.031 591.86 932.864 565.185 960.793 565.509C988.722 565.834 1011.18 580.782 1010.96 598.898C1010.74 617.014 987.924 631.436 959.995 631.112Z" fill="#72AF83"/>
<path d="M896.249 778.244C874.264 761.406 802.475 704.364 813.907 690.104C825.339 675.843 911.899 691.619 933.885 708.457C955.87 725.296 968.189 768.651 956.757 782.911C945.325 797.172 918.235 795.082 896.249 778.244Z" fill="#72AF83"/>
<path d="M773.762 871.811C764.659 846.001 736.078 759.995 753.601 754.09C771.124 748.186 836.064 804.731 845.167 830.541C854.271 856.351 839.496 901.949 821.973 907.853C804.45 913.758 782.865 897.621 773.762 871.811Z" fill="#72AF83"/>
<path d="M390.607 357.576C411.775 375.386 480.251 436.223 462.029 456.914C443.807 477.605 345.789 450.314 324.62 432.503C303.452 414.693 301.064 383.481 319.285 362.791C337.507 342.1 369.439 339.765 390.607 357.576Z" fill="#72AF83"/>
<path d="M615.642 766.766L897.189 444.7L969.954 483.004L658.98 788.812L615.642 766.766Z" fill="#992E26"/>
<path d="M599.934 757.272L889.953 377.652L943.646 473.532L637.139 773.89L599.934 757.272Z" fill="#FF5343"/>
<path d="M847.941 349.795L1010.33 358.426L970.87 587.781L847.941 349.795Z" fill="#992E26"/>
<path d="M844.306 345.241L1012.78 355.516L962.988 550.007L844.306 345.241Z" fill="#FF5343"/>
<path d="M591.243 702.523L498.403 194.086L631.793 161.298L669.695 682.372L591.243 702.523Z" fill="#992E26"/>
<path d="M605.762 701.514L522.771 192.392L650.16 164.882L670.122 682.342L605.762 701.514Z" fill="#FF5343"/>
<path d="M427.588 291.814L567.381 0.876379L734.608 196.159L427.588 291.814Z" fill="#992E26"/>
<path d="M484.698 260.477L570.325 3.49945L720.031 185.83L484.698 260.477Z" fill="#FF5343"/>
<path d="M356.65 982.186C353.223 939.692 349.225 916.218 347.654 909.792C302.676 887.089 1156.84 882.805 1078.02 1024.59C999.202 1166.38 981.639 1128.69 964.932 1134.69C948.226 1140.68 937.945 1181.81 902.819 1180.09C867.693 1178.38 786.731 1240.49 658.649 1242.21C530.567 1243.92 497.155 1184.8 480.448 1163.39C463.742 1141.97 432.043 1139.4 392.633 1107.7C353.223 1076 360.934 1035.3 356.65 982.186Z" fill="#FBD4D5"/>
<path d="M408.161 960.56C404.975 928.748 401.258 911.174 399.798 906.363C357.982 889.367 1152.09 886.16 1078.81 992.309C1005.53 1098.46 989.204 1070.24 973.673 1074.73C958.141 1079.22 948.583 1110 915.927 1108.72C883.271 1107.44 808.002 1153.94 688.926 1155.22C569.85 1156.5 538.786 1112.25 523.255 1096.21C507.723 1080.18 478.253 1078.25 441.614 1054.52C404.975 1030.79 412.144 1000.33 408.161 960.56Z" fill="#FFF4E6"/>
<path d="M565.639 969.52C539.918 911.004 549.626 886.186 557.696 881.092C665.248 941.317 904.637 1048.34 1001.77 994.629C1123.2 927.489 1007.07 1134.91 981.726 1134.91C961.451 1134.91 885.27 1123.27 849.713 1117.45C838.618 1138.55 808.407 1183.49 776.331 1194.41C736.235 1208.06 679.118 1146.38 662.852 1134.91C646.587 1123.45 641.67 1080.87 641.67 1102.16C641.67 1123.45 613.678 1127.27 621.622 1117.45C629.565 1107.62 611.031 1061.77 613.678 1080.87C616.326 1099.98 578.878 1086.88 589.848 1080.87C600.818 1074.87 597.792 1042.66 565.639 969.52Z" fill="#FBD4D5"/>
<path d="M649.225 982.186C726.331 1020.57 909.816 1009.32 991.919 998.893C964.789 1041.73 882.429 1127.4 770.025 1127.4C681.68 1127.4 632.092 1027.02 605.415 952.302C577.14 924.276 583.947 900.253 588.397 899.511C592.584 913.509 598.15 931.954 605.415 952.302C615.249 962.05 629.327 972.282 649.225 982.186Z" fill="#342216"/>
<path d="M708.34 1073C703.542 1016.11 676.069 995.895 662.933 992.896C761.029 896.085 856.126 982.187 906.246 992.896C956.365 1003.61 973.928 1033.59 982.923 1089.71C991.919 1145.82 975.641 1142.4 892.538 1201.08C809.434 1259.77 714.337 1144.11 708.34 1073Z" fill="#841341"/>
<path d="M714.955 1063.15C710.273 1010.57 683.463 991.888 670.644 989.117C766.373 899.647 859.175 979.22 908.085 989.117C956.994 999.014 974.133 1026.73 982.912 1078.59C991.69 1130.45 975.805 1127.28 894.708 1181.52C813.61 1235.75 720.807 1128.86 714.955 1063.15Z" fill="#F26CCB"/>
<path d="M809.435 1031.45C785.447 1037.62 732.329 1028.88 708.769 1023.74C697.117 968.222 856.127 975.19 937.089 985.614C933.662 992.467 908.731 995.295 901.534 999.75C892.539 1005.32 850.13 990.326 874.547 1031.45C894.081 1064.35 890.825 1090.14 874.547 1101.7C876.975 1102.84 858.612 1104.44 863.41 1079.43C869.407 1048.16 839.421 1023.74 809.435 1031.45Z" fill="#C8447D"/>
<path d="M1023.62 986.899C960.563 1024.25 896.822 991.325 872.834 970.192C707.312 782.739 803.866 616.503 872.834 556.817C900.963 617.646 970.501 742.301 1023.62 754.295C1090.02 769.288 1060.03 802.7 1079.74 822.405C1095.5 838.169 1112.29 828.974 1118.72 822.405C1115.29 832.401 1108.44 854.876 1108.44 864.814C1108.44 877.236 1111.43 882.805 1108.44 908.507C1105.44 934.209 1084.02 928.212 1079.74 940.207C1075.45 952.201 1102.44 940.207 1023.62 986.899Z" fill="#FBD4D5"/>
<path d="M1016.76 975.123C953.657 1011.42 984.228 970.592 960.22 950.059C794.562 767.924 803.606 615.238 872.63 557.246C900.783 616.348 970.379 737.466 1023.54 749.12C1089.99 763.687 1059.98 796.152 1079.7 815.297C1095.48 830.614 1116.57 828.359 1123 821.977C1119.57 831.689 1108.43 846.846 1108.43 856.502C1108.43 868.573 1111.43 873.983 1108.43 898.956C1105.43 923.929 1077.21 918.102 1072.93 929.756C1068.64 941.41 1095.65 929.756 1016.76 975.123Z" fill="#FFF4E6"/>
<path d="M966.218 872.096C943.257 856.332 896.394 782.995 875.832 748.298C890.397 714.171 894.509 630.496 794.442 568.811C669.359 491.705 524.142 690.896 444.037 796.703C363.933 902.51 350.653 935.494 386.636 922.215C422.619 908.935 542.134 903.795 602.533 968.907C662.933 1034.02 720.335 1023.31 809.435 1024.59C880.716 1025.62 897.393 987.898 896.822 968.907C922.524 967.336 976.327 955.799 985.923 922.215C997.917 880.235 994.919 891.801 966.218 872.096Z" fill="#FBD4D5"/>
<path d="M925.389 864.166C903.981 848.78 867.587 770.17 848.416 736.304C861.995 702.995 858.53 628.357 765.232 568.151C648.609 492.893 552.625 677.602 477.938 780.872C403.251 884.143 382.215 931.466 415.764 918.505C449.313 905.544 529.989 895.105 586.304 958.656C642.618 1022.21 696.137 1011.75 779.211 1013.01C845.67 1014.01 861.219 977.192 860.687 958.656C884.65 957.123 934.814 945.862 943.761 913.083C954.944 872.11 952.148 883.398 925.389 864.166Z" fill="#FFF4E6"/>
<path d="M800.439 615.075C777.136 558.531 747.893 549.821 736.184 552.534C747.321 541.825 815.86 544.823 833.852 536.256C851.843 527.688 830.853 512.267 833.852 491.277C836.85 470.287 904.532 429.164 923.809 417.598C943.086 406.032 974.356 370.049 985.922 382.472C997.488 394.894 1015.48 415.028 1024.05 498.988C1030.12 558.5 1016.24 580.707 1005.95 585.99C1009.92 588.597 1017.57 596.54 1031.33 615.075C1062.17 656.627 1031.33 648.488 1054.46 650.63C1077.59 652.772 1073.31 673.333 1054.46 683.614C1035.61 693.895 1031.33 725.594 1054.46 758.579C1077.59 791.563 1054.46 800.13 1031.33 814.695C1008.2 829.259 1002.2 800.13 985.922 777.427C972.9 759.264 948.512 784.995 937.945 800.13C944.799 802.986 947.712 806.984 904.532 800.13C850.558 791.563 829.568 685.756 800.439 615.075Z" fill="#FFD495"/>
<path d="M833.852 597.084C810.549 540.539 747.893 549.821 736.184 552.534C747.321 541.824 815.86 544.823 833.852 536.256C851.843 527.688 849.701 519.978 852.7 498.988C855.699 477.998 918.669 438.159 937.945 426.594C957.222 415.028 974.356 370.049 985.922 382.472C997.488 394.894 1015.48 415.028 1024.05 498.988C1030.12 558.5 1016.24 580.707 1005.95 585.99C1009.92 588.597 1017.57 596.54 1031.33 615.075C1062.17 656.627 1031.33 648.488 1054.46 650.63C1077.59 652.772 1073.31 673.333 1054.46 683.614C1035.61 693.895 1031.33 725.594 1054.46 758.579C1077.59 791.563 1054.46 800.13 1031.33 814.695C1008.2 829.259 1018.48 837.398 1002.2 814.695C989.851 797.471 995.787 806.236 987.423 820.096C988.061 822.084 987.514 823.068 985.922 822.405C986.469 821.623 986.967 820.852 987.423 820.096C985.314 813.521 970.242 795.969 937.088 790.706C883.114 782.139 862.981 667.764 833.852 597.084Z" fill="#FFAB40"/>
<path d="M344.656 852.391C334.375 876.38 340.372 902.367 344.656 912.363C348.94 912.363 366.931 908.079 404.627 890.944C451.748 869.526 417.479 852.391 458.173 818.122C498.868 783.852 526.712 800.987 572.119 852.391C608.445 893.514 611.529 909.507 608.531 912.363C614.956 920.93 640.658 932.924 692.062 912.363C756.317 886.661 771.31 835.256 777.736 800.987C784.161 766.718 786.303 760.292 794.871 715.313C803.438 670.335 784.161 627.07 739.183 586.375C694.204 545.68 593.538 597.084 572.119 599.226C550.701 601.368 541.705 577.807 526.712 558.531C511.719 539.254 466.741 545.251 458.173 521.691C449.606 498.131 413.195 479.283 357.507 468.574C301.819 457.864 331.805 509.268 344.656 558.531C357.507 607.793 344.656 708.888 344.656 743.157C344.656 770.573 364.646 793.134 374.642 800.987V818.122C368.93 819.55 354.937 828.402 344.656 852.391Z" fill="#FFD495"/>
<path d="M440.61 755.152C436.327 745.156 364.361 823.69 374.642 799.702C382.402 781.594 403.343 755.676 411.117 746.82L374.642 781.426C364.646 773.573 344.656 751.012 344.656 723.596C344.656 689.327 357.507 588.232 344.656 538.97C331.805 489.707 301.819 438.303 357.507 449.012C413.195 459.722 449.606 478.57 458.173 502.13C466.741 525.69 511.719 519.693 526.712 538.97C541.705 558.246 550.701 581.807 572.119 579.665C593.538 577.523 694.204 526.119 739.183 566.814C784.161 607.509 803.438 650.774 794.87 695.752C786.303 740.731 784.161 747.156 777.736 781.426C771.31 815.695 756.317 867.099 692.062 892.802C640.658 913.363 698.488 867.812 692.062 859.245C695.061 856.389 596.451 854.533 560.125 813.41C514.718 762.005 516.431 779.14 475.737 813.41C435.042 847.679 451.748 849.965 404.627 871.383C366.931 888.518 444.894 755.152 440.61 755.152Z" fill="#FFAB40"/>
<path d="M991.92 934.209C1004.94 915.018 997.346 901.939 991.92 897.798C991.92 861.387 803.438 864.814 863.838 952.201C924.238 1039.59 975.642 958.198 991.92 934.209Z" fill="#332216"/>
<path d="M925.034 882.274C962.826 873.553 992.411 901.503 993.168 914.978C985.9 935.419 978.178 931.785 971.819 929.968C961.372 926.983 976.361 938.144 971.819 948.591C967.277 959.039 943.657 974.482 915.949 980.841C888.241 987.201 897.326 966.76 902.776 964.943C908.227 963.126 913.224 950.408 902.776 939.961C892.329 929.514 890.058 952.225 881.428 955.859C872.798 959.493 865.984 929.968 865.076 909.528C864.167 889.087 877.794 893.176 925.034 882.274Z" fill="#5E362E"/>
<path d="M964.932 420.596C947.455 434.304 905.389 501.415 886.541 533.257C939.659 567.527 931.948 504.985 933.662 533.257C935.032 555.875 969.644 570.954 986.779 575.666C997.774 540.111 1015.99 459.321 1000.92 420.596C982.067 372.191 986.779 403.462 964.932 420.596Z" fill="#C8447D"/>
<path d="M973.5 440.73C956.022 454.437 905.389 501.415 886.541 533.257C939.659 567.527 931.948 504.985 933.662 533.257C935.032 555.875 969.644 570.953 986.779 575.665C997.774 540.111 1015.99 459.321 1000.92 420.596C982.067 372.191 995.347 423.595 973.5 440.73Z" fill="#F26CCB"/>
<path d="M383.209 631.781C394.518 686.613 411.91 730.877 419.192 746.156C428.102 709.83 442.61 674.761 448.75 661.767C455.032 662.767 469.825 660.996 478.735 645.918C487.645 630.839 509.578 615.646 519.43 609.935C505.294 606.793 471.367 592.372 448.75 559.816C420.477 519.121 373.785 494.275 356.65 489.563C339.516 484.851 369.073 563.243 383.209 631.781Z" fill="#C8447D"/>
<path d="M383.209 631.781C394.518 686.613 411.91 730.877 419.192 746.156C428.102 709.83 442.61 674.761 448.75 661.767C455.032 662.767 469.825 660.996 478.735 645.918C487.645 630.839 509.578 615.646 519.43 609.935C505.294 606.793 471.367 615.503 448.75 582.947C420.477 542.253 373.785 494.275 356.65 489.563C339.516 484.851 369.073 563.243 383.209 631.781Z" fill="#F26CCB"/>
<path d="M657.793 842.967C629.692 839.883 594.966 797.703 581.115 776.998C597.821 758.436 641.429 717.798 682.21 703.747C733.186 686.184 777.736 770.144 771.739 811.696C765.742 853.248 692.919 846.822 657.793 842.967Z" fill="#DEDEDE"/>
<path d="M657.662 816.242C629.452 813.736 594.591 779.461 580.687 762.636C597.458 747.552 641.235 714.53 682.174 703.113C733.347 688.841 778.07 757.067 772.05 790.832C766.03 824.596 692.924 819.375 657.662 816.242Z" fill="#959DA8"/>
<path d="M1030.55 749.763C1018.55 778.207 989.565 787.888 976.571 789.173C960.293 763.757 932.706 707.612 952.582 686.365C977.428 659.806 1009.13 682.938 1022.41 686.365C1035.69 689.792 1045.54 714.209 1030.55 749.763Z" fill="#DEDEDE"/>
<path d="M1030.64 727.359C1018.63 747.418 989.615 754.245 976.606 755.152C960.31 737.227 932.691 697.633 952.59 682.65C977.464 663.92 1009.2 680.233 1022.49 682.65C1035.79 685.066 1045.65 702.286 1030.64 727.359Z" fill="#959DA8"/>
<ellipse cx="677.069" cy="784.28" rx="68.9672" ry="65.1119" fill="#170006"/>
<path d="M726.991 776.894C726.991 809.004 707.856 835.035 672.484 835.035C637.112 835.035 608.438 809.004 608.438 776.894C608.438 744.783 637.112 718.752 672.484 718.752C707.856 718.752 726.991 744.783 726.991 776.894Z" fill="#342216"/>
<path d="M678.355 816.408C691.72 814.352 700.201 805.556 702.772 801.415C707.055 795.846 716.222 788.05 718.621 801.415C721.598 818.004 698.391 824.878 686.74 828.329L686.494 828.402C674.928 831.829 661.648 818.978 678.355 816.408Z" fill="#170006"/>
<ellipse cx="967.075" cy="737.588" rx="56.5445" ry="56.9729" fill="#170006"/>
<path d="M1013.61 734.196C1013.61 763.797 990.628 787.794 962.281 787.794C933.933 787.794 928.668 776.971 928.668 747.369C928.668 717.767 951.648 693.77 979.996 693.77C1008.34 693.77 1013.61 704.594 1013.61 734.196Z" fill="#342216"/>
<path d="M664.219 756.865C677.927 744.528 700.202 751.725 709.626 756.865C679.212 776.142 689.064 785.994 678.783 779.997C668.502 774 664.219 789.849 651.796 791.563C639.373 793.276 647.084 772.286 664.219 756.865Z" fill="#5C7077"/>
<path d="M992.776 754.295C993.438 755.799 993.335 757.166 992.656 758.405C991.037 784.636 973.488 776.034 964.504 768.003C973.569 767.179 989.466 764.219 992.656 758.405C992.735 757.12 992.776 755.751 992.776 754.295Z" fill="#170006"/>
<path d="M961.505 717.455C949.168 725.68 946.084 746.013 946.084 755.152C961.505 755.152 971.786 746.584 969.216 732.876C966.646 719.169 982.495 735.018 981.638 717.455C980.782 699.892 976.926 707.174 961.505 717.455Z" fill="#5C7077"/>
<path d="M959.03 680.898C936.497 679.041 919.768 749.142 927.023 782.567C880.932 720.823 925.316 621.474 986.77 650.722C1048.22 679.969 1035.85 655.828 1038.83 641.901C1041.22 630.759 1068.28 631.378 1078.1 632.152C1079.52 640.354 1077.16 664.185 1061.45 680.898C1041.82 701.789 987.196 683.219 959.03 680.898Z" fill="#B99970"/>
<path d="M959.886 671.474C937.353 669.617 920.409 747.428 927.664 780.854C891.253 709.745 933.67 613.865 995.124 643.112C1056.58 672.36 1040.34 646.405 1043.32 632.477C1045.71 621.335 1069.14 621.954 1078.95 622.728C1080.38 630.93 1078.01 654.761 1062.31 671.474C1042.68 692.365 988.053 673.795 959.886 671.474Z" fill="#FFD495"/>
<path d="M608.531 762.434C589.683 783.681 560.697 778.998 548.56 774C587.541 774 614.1 706.746 623.952 691.325C633.805 675.904 728.474 675.047 769.597 739.731C802.496 791.477 773.596 824.69 755.033 834.828C767.027 827.26 780.735 799.959 739.612 751.296C688.208 690.468 632.091 735.875 608.531 762.434Z" fill="#B99970"/>
<path d="M605.532 745.838C586.684 767.085 504.58 778.569 492.443 773.571C531.425 773.571 540.42 711.458 550.273 696.037C560.125 680.615 725.475 658.451 766.599 723.135C799.497 774.882 785.161 819.121 766.599 829.259C778.593 821.691 777.736 783.363 736.613 734.701C685.209 673.873 629.092 719.28 605.532 745.838Z" fill="#FFD495"/>
<path d="M655.222 787.708C655.222 798.117 646.784 806.556 636.374 806.556C625.964 806.556 617.526 798.117 617.526 787.708C617.526 777.298 628.535 783.424 638.944 783.424C649.354 783.424 655.222 777.298 655.222 787.708Z" fill="white"/>
<path d="M1002.74 713.559C1012.62 716.811 1018.56 725.784 1015.99 733.6C1013.42 741.417 1016.24 752.706 1006.35 749.454C996.463 746.202 998.874 734.507 1001.44 726.691C1004.02 718.874 992.848 710.307 1002.74 713.559Z" fill="white"/>
</g>
<defs>
<clipPath id="clip0_6_147">
<rect width="1242" height="1242" fill="white"/>
</clipPath>
</defs>
</svg>
