<svg width="2350" height="535" viewBox="0 0 2350 535" fill="none" xmlns="http://www.w3.org/2000/svg">
<g clip-path="url(#clip0_16_84)">
<g filter="url(#filter0_d_16_84)">
<path d="M259.636 447.15C378.809 447.15 475.417 354.978 475.417 241.279C475.417 127.58 378.809 35.4082 259.636 35.4082C140.463 35.4082 43.855 127.58 43.855 241.279C43.855 354.978 140.463 447.15 259.636 447.15Z" fill="#1126CF"/>
</g>
<path d="M262.769 447.15C372.477 447.15 461.413 362.478 461.413 258.03C461.413 153.582 372.477 68.9102 262.769 68.9102C153.061 68.9102 64.1245 153.582 64.1245 258.03C64.1245 362.478 153.061 447.15 262.769 447.15Z" fill="#5B80F3"/>
<path d="M268.665 437.424C367.992 437.424 448.513 358.155 448.513 260.371C448.513 162.588 367.992 83.3188 268.665 83.3188C169.337 83.3188 88.8167 162.588 88.8167 260.371C88.8167 358.155 169.337 437.424 268.665 437.424Z" fill="#1A4771"/>
<path d="M286.988 131.95C286.988 143.688 288.062 182.562 300.071 182.562C312.08 182.562 330.476 143.688 330.476 131.95C330.476 120.212 320.741 110.696 308.732 110.696C296.723 110.696 286.988 120.212 286.988 131.95Z" fill="#1389A5"/>
<path d="M181.988 143.49C188.421 153.401 210.635 185.664 220.775 179.375C230.915 173.087 225.142 130.629 218.709 120.718C212.276 110.807 198.84 107.869 188.7 114.158C178.56 120.446 175.555 133.579 181.988 143.49Z" fill="#1389A5"/>
<path d="M153.452 210.353C165.268 212.452 204.59 218.37 206.738 206.822C208.885 195.273 173.044 170.63 161.229 168.531C149.414 166.432 138.094 174.093 135.947 185.642C133.8 197.19 141.637 208.254 153.452 210.353Z" fill="#1389A5"/>
<path d="M124.844 271.348C136.852 271.208 176.612 270.05 176.517 262.261C176.422 254.472 136.509 243.003 124.501 243.142C112.493 243.282 102.835 249.709 102.93 257.498C103.024 265.287 112.836 271.487 124.844 271.348Z" fill="#1389A5"/>
<path d="M152.251 334.607C161.704 327.368 192.57 302.843 187.654 296.711C182.739 290.58 145.523 297.363 136.07 304.602C126.617 311.842 121.321 330.483 126.236 336.614C131.151 342.746 142.798 341.847 152.251 334.607Z" fill="#1389A5"/>
<path d="M204.915 374.837C208.829 363.74 221.117 326.761 213.583 324.223C206.049 321.684 178.128 345.996 174.214 357.093C170.3 368.19 176.652 387.795 184.186 390.333C191.72 392.872 201.001 385.934 204.915 374.837Z" fill="#1389A5"/>
<path d="M369.653 153.74C360.552 161.398 331.111 187.555 338.945 196.451C346.78 205.347 388.923 193.613 398.024 185.955C407.126 178.298 408.153 164.878 400.318 155.983C392.484 147.087 378.754 146.083 369.653 153.74Z" fill="#1389A5"/>
<path d="M264.696 329.667L385.747 191.194L417.033 207.663L283.329 339.146L264.696 329.667Z" fill="#2C502C"/>
<path d="M257.942 325.585L382.637 162.367L405.722 203.591L273.939 332.73L257.942 325.585Z" fill="#3AC659"/>
<path d="M364.573 150.39L434.393 154.101L417.427 252.713L364.573 150.39Z" fill="#2C502C"/>
<path d="M363.011 148.432L435.446 152.85L414.038 236.472L363.011 148.432Z" fill="#3AC659"/>
<path d="M249.906 302.911L209.99 84.3077L267.341 70.2104L283.637 294.247L249.906 302.911Z" fill="#7AF7FB"/>
<path d="M179.542 126.326L242.923 2.79492L311.546 85.199L179.542 126.326Z" fill="#7AF7FB"/>
<path d="M254.206 302.051L214.289 83.4478L271.64 69.3506L287.936 293.387L254.206 302.051Z" fill="#255525"/>
<path d="M288.12 293.374L260.448 301.617L265.065 187.244L224.766 82.7196L279.537 70.8916L288.12 293.374Z" fill="#3AC659"/>
<path d="M183.842 125.466L243.946 0.376953L315.845 84.339L183.842 125.466Z" fill="#2C502C"/>
<path d="M213.901 110.283L245.212 1.50488L309.578 79.8982L213.901 110.283Z" fill="#3AC659"/>
<path d="M153.343 422.293C151.869 404.022 150.15 393.93 149.475 391.167C130.136 381.405 497.385 379.564 463.496 440.524C429.608 501.487 422.057 485.282 414.874 487.862C407.692 490.437 403.271 508.121 388.168 507.382C373.066 506.646 338.257 533.351 283.188 534.09C228.118 534.826 213.752 509.407 206.57 500.202C199.387 490.992 185.757 489.887 168.813 476.257C151.869 462.628 155.184 445.129 153.343 422.293Z" fill="#FBD4D5"/>
<path d="M175.489 412.994C174.12 399.317 172.521 391.761 171.894 389.692C153.915 382.385 495.343 381.006 463.836 426.645C432.329 472.285 425.31 460.152 418.632 462.082C411.954 464.013 407.845 477.246 393.804 476.696C379.763 476.146 347.401 496.139 296.204 496.689C245.007 497.239 231.652 478.214 224.974 471.317C218.296 464.425 205.625 463.596 189.873 453.393C174.12 443.19 177.201 430.094 175.489 412.994Z" fill="#FFF4E6"/>
<path d="M243.197 416.847C232.138 391.688 236.312 381.017 239.782 378.827C286.024 404.721 388.95 450.736 430.713 427.643C482.922 398.776 432.991 487.957 422.095 487.957C413.377 487.957 380.623 482.952 365.335 480.45C360.565 489.522 347.576 508.844 333.785 513.539C316.545 519.408 291.988 492.888 284.994 487.957C278.001 483.029 275.887 464.722 275.887 473.876C275.887 483.029 263.852 484.672 267.267 480.45C270.682 476.223 262.714 456.51 263.852 464.722C264.99 472.938 248.889 467.306 253.606 464.722C258.323 462.142 257.021 448.294 243.197 416.847Z" fill="#FBD4D5"/>
<path d="M279.136 422.293C312.288 438.796 391.177 433.959 426.478 429.476C414.813 447.894 379.402 484.728 331.074 484.728C293.089 484.728 271.769 441.569 260.299 409.444C248.142 397.394 251.069 387.066 252.982 386.747C254.782 392.765 257.176 400.696 260.299 409.444C264.527 413.635 270.581 418.035 279.136 422.293Z" fill="#342216"/>
<path d="M304.552 461.338C302.489 436.878 290.677 428.187 285.029 426.897C327.206 385.273 368.093 422.293 389.642 426.897C411.191 431.504 418.742 444.394 422.609 468.523C426.477 492.647 419.478 491.177 383.748 516.407C348.017 541.64 307.13 491.912 304.552 461.338Z" fill="#841341"/>
<path d="M307.396 457.103C305.383 434.496 293.856 426.464 288.344 425.273C329.503 386.805 369.404 421.017 390.432 425.273C411.461 429.528 418.83 441.444 422.604 463.742C426.379 486.039 419.549 484.676 384.681 507.997C349.813 531.313 309.912 485.355 307.396 457.103Z" fill="#F26CCB"/>
<path d="M348.018 443.474C337.704 446.127 314.866 442.369 304.736 440.159C299.726 416.289 368.094 419.285 402.903 423.767C401.429 426.713 390.71 427.929 387.616 429.844C383.749 432.239 365.515 425.792 376.013 443.474C384.412 457.619 383.012 468.708 376.013 473.678C377.057 474.168 369.162 474.856 371.224 464.103C373.803 450.658 360.91 440.159 348.018 443.474Z" fill="#C8447D"/>
<path d="M440.107 424.319C412.996 440.378 385.59 426.222 375.276 417.136C304.11 336.54 345.623 265.066 375.276 239.404C387.37 265.558 417.268 319.153 440.107 324.31C468.656 330.757 455.762 345.122 464.232 353.594C471.012 360.372 478.231 356.419 480.995 353.594C479.521 357.892 476.575 367.555 476.575 371.828C476.575 377.169 477.861 379.563 476.575 390.614C475.286 401.665 466.076 399.086 464.232 404.243C462.391 409.4 473.996 404.243 440.107 424.319Z" fill="#FBD4D5"/>
<path d="M437.157 419.256C410.026 434.862 423.17 417.308 412.848 408.479C341.623 330.17 345.512 264.523 375.189 239.589C387.293 265 417.215 317.075 440.073 322.085C468.643 328.349 455.74 342.307 464.219 350.538C471.003 357.124 480.071 356.154 482.836 353.41C481.361 357.586 476.571 364.103 476.571 368.255C476.571 373.444 477.861 375.77 476.571 386.508C475.281 397.245 463.148 394.74 461.308 399.75C459.463 404.761 471.076 399.75 437.157 419.256Z" fill="#FFF4E6"/>
<path d="M415.427 374.959C405.555 368.181 385.406 336.65 376.565 321.732C382.827 307.059 384.596 271.083 341.572 244.561C287.792 211.409 225.356 297.052 190.914 342.544C156.473 388.036 150.764 402.217 166.235 396.508C181.706 390.798 233.091 388.588 259.06 416.583C285.029 444.579 309.709 439.974 348.018 440.524C378.665 440.967 385.836 424.748 385.59 416.583C396.641 415.908 419.773 410.947 423.899 396.508C429.056 378.459 427.767 383.431 415.427 374.959Z" fill="#FBD4D5"/>
<path d="M397.872 371.549C388.668 364.934 373.02 331.136 364.778 316.575C370.617 302.254 373.111 284.287 332.997 258.401C282.855 226.044 237.602 291.336 205.49 335.738C173.379 380.139 164.334 400.486 178.759 394.913C193.183 389.34 227.87 384.852 252.082 412.176C276.295 439.501 299.305 435.004 335.023 435.546C363.597 435.976 370.283 420.146 370.054 412.176C380.357 411.517 401.925 406.675 405.772 392.582C410.58 374.965 409.378 379.819 397.872 371.549Z" fill="#FFF4E6"/>
<path d="M344.15 264.453C334.131 240.142 321.557 236.397 316.523 237.563C321.312 232.959 350.78 234.248 358.516 230.564C366.251 226.88 357.227 220.25 358.516 211.226C359.805 202.201 388.905 184.52 397.193 179.547C405.481 174.574 418.926 159.103 423.899 164.445C428.872 169.785 436.607 178.442 440.292 214.541C442.902 240.128 436.934 249.676 432.505 251.948C434.217 253.068 437.506 256.484 443.422 264.453C456.682 282.318 443.422 278.819 453.367 279.74C463.311 280.661 461.471 289.501 453.367 293.921C445.262 298.341 443.422 311.971 453.367 326.152C463.311 340.334 453.367 344.017 443.422 350.28C433.477 356.541 430.897 344.017 423.899 334.256C418.3 326.447 407.814 337.51 403.271 344.017C406.218 345.245 407.47 346.964 388.905 344.017C365.699 340.334 356.674 294.842 344.15 264.453Z" fill="#E6D94D"/>
<path d="M344.15 264.453C334.819 241.811 373.361 258.438 374.634 261.771C377.285 256.185 351.028 234.129 358.516 230.564C366.251 226.88 361.59 218.626 362.879 209.602C364.169 200.577 388.905 184.52 397.193 179.547C405.481 174.574 418.926 159.103 423.899 164.445C428.872 169.785 436.607 178.442 440.292 214.541C442.902 240.128 436.934 249.676 432.505 251.948C434.217 253.068 437.506 256.484 443.422 264.453C456.682 282.318 443.422 278.819 453.367 279.74C463.311 280.661 461.471 289.501 453.367 293.921C445.262 298.341 443.422 311.971 453.367 326.152C463.311 340.334 453.367 344.017 443.422 350.28C433.477 356.541 430.897 344.017 423.899 334.256C418.299 326.447 407.814 337.51 403.271 344.017C406.218 345.245 407.47 346.964 388.905 344.017C365.699 340.334 356.674 294.842 344.15 264.453Z" fill="#EFFFC0"/>
<path d="M358.516 256.717C348.496 232.406 321.557 236.397 316.523 237.563C321.312 232.958 350.78 234.248 358.516 230.564C366.251 226.881 365.33 223.566 366.62 214.541C367.909 205.516 394.983 188.387 403.271 183.415C411.559 178.442 418.926 159.103 423.899 164.445C428.872 169.786 436.607 178.442 440.292 214.541C442.902 240.128 436.934 249.676 432.505 251.948C434.217 253.068 437.506 256.484 443.422 264.453C456.682 282.318 443.422 278.819 453.367 279.74C463.311 280.661 461.471 289.501 453.367 293.921C445.262 298.342 443.422 311.971 453.367 326.152C463.311 340.334 453.367 344.017 443.422 350.28C433.477 356.541 437.897 360.041 430.897 350.28C425.588 342.874 428.14 346.643 424.544 352.602C424.818 353.457 424.583 353.88 423.899 353.595C424.133 353.258 424.348 352.927 424.544 352.602C423.637 349.775 417.157 342.228 402.902 339.966C379.696 336.282 371.04 287.106 358.516 256.717Z" fill="#C79647"/>
<path d="M358.516 256.717C350.236 236.628 357.36 239.084 357.243 241.201C361.036 238.309 362.525 241.105 369.543 237.763C377.279 234.08 365.33 223.566 366.62 214.541C367.909 205.516 394.983 188.387 403.271 183.415C411.559 178.442 418.926 159.103 423.899 164.445C428.872 169.786 436.607 178.442 440.292 214.541C442.902 240.151 434.66 253.024 429.718 256.039C431.788 256.88 435.842 260.287 442.42 269.15C447.825 276.43 448.99 279.383 449.149 280.388C449.454 279.978 450.465 279.471 453.367 279.74C463.312 280.661 461.471 289.501 453.367 293.921C445.262 298.342 443.422 311.971 453.367 326.152C463.312 340.334 453.367 344.017 443.422 350.28C433.477 356.541 437.897 360.041 430.898 350.28C425.588 342.874 428.14 346.643 424.544 352.602C424.818 353.457 424.583 353.88 423.899 353.595C424.134 353.258 424.348 352.927 424.544 352.602C423.637 349.775 417.157 342.228 402.903 339.966C379.696 336.282 371.04 287.106 358.516 256.717Z" fill="#FFC446"/>
<path d="M148.185 366.487C143.765 376.801 146.343 387.974 148.185 392.272C150.027 392.272 157.762 390.43 173.97 383.063C194.23 373.854 179.495 366.487 196.992 351.753C214.489 337.018 226.461 344.386 245.983 366.487C261.602 384.168 262.928 391.044 261.639 392.272C264.401 395.955 275.452 401.112 297.553 392.272C325.18 381.221 331.626 359.12 334.389 344.386C337.151 329.652 338.072 326.889 341.756 307.55C345.439 288.212 337.151 269.61 317.813 252.113C298.474 234.616 255.193 256.717 245.983 257.638C236.775 258.559 232.907 248.429 226.461 240.141C220.014 231.853 200.676 234.431 196.992 224.302C193.309 214.172 177.654 206.068 153.711 201.464C129.767 196.859 142.66 218.961 148.185 240.141C153.711 261.322 148.185 304.787 148.185 319.522C148.185 331.309 156.78 341.009 161.078 344.386V351.753C158.622 352.367 152.606 356.173 148.185 366.487Z" fill="#EFFFC0"/>
<path d="M189.441 324.679C187.599 320.381 156.658 354.147 161.078 343.834C164.414 336.048 173.418 324.904 176.761 321.097L161.078 335.976C156.78 332.599 148.185 322.899 148.185 311.112C148.185 296.378 153.711 252.912 148.185 231.731C142.66 210.551 129.767 188.449 153.711 193.054C177.654 197.659 193.309 205.762 196.992 215.892C200.676 226.022 220.014 223.443 226.461 231.731C232.907 240.019 236.775 250.149 245.983 249.228C255.193 248.307 298.474 226.206 317.813 243.703C337.151 261.2 345.439 279.802 341.756 299.14C338.072 318.479 337.151 321.241 334.389 335.976C331.626 350.71 325.18 372.811 297.553 383.862C275.452 392.702 300.316 373.118 297.553 369.434C298.843 368.206 256.445 367.408 240.827 349.727C221.304 327.626 222.04 334.993 204.544 349.727C187.047 364.461 194.23 365.444 173.97 374.653C157.762 382.02 191.283 324.679 189.441 324.679Z" fill="#C79647"/>
<path d="M189.441 324.679C187.599 320.381 156.658 354.147 161.078 343.834C164.414 336.048 173.418 324.904 176.761 321.097L161.078 335.976C156.78 332.599 148.185 322.899 148.185 311.112C148.185 296.378 153.711 252.912 148.185 231.731C142.66 210.551 129.767 188.449 153.711 193.054C177.654 197.659 193.309 205.762 196.992 215.892C200.676 226.022 220.014 223.443 226.461 231.731C232.907 240.019 242.528 256.313 251.737 255.392C260.945 254.471 304.845 234.025 324.183 251.522C343.522 269.019 345.439 279.802 341.756 299.14C338.072 318.479 337.151 321.241 334.389 335.976C331.626 350.71 325.18 372.811 297.553 383.862C275.452 392.702 300.316 373.118 297.553 369.434C298.843 368.206 256.445 367.408 240.827 349.727C221.304 327.626 222.04 334.993 204.544 349.727C187.047 364.461 194.23 365.444 173.97 374.653C157.762 382.02 191.283 324.679 189.441 324.679Z" fill="#FFC446"/>
<path d="M426.478 401.665C432.076 393.414 428.81 387.79 426.478 386.01C426.478 370.355 345.439 371.829 371.408 409.401C397.378 446.974 419.479 411.979 426.478 401.665Z" fill="#332216"/>
<path d="M397.72 379.335C413.968 375.586 426.688 387.603 427.014 393.396C423.889 402.185 420.569 400.623 417.835 399.841C413.343 398.558 419.788 403.357 417.835 407.848C415.882 412.341 405.727 418.98 393.814 421.714C381.901 424.449 385.806 415.66 388.15 414.879C390.494 414.098 392.642 408.63 388.15 404.138C383.658 399.646 382.682 409.411 378.971 410.973C375.26 412.536 372.331 399.841 371.94 391.053C371.55 382.265 377.409 384.023 397.72 379.335Z" fill="#5E362E"/>
<path d="M414.874 180.836C407.36 186.73 389.273 215.585 381.17 229.275C404.008 244.01 400.692 217.119 401.429 229.275C402.018 239 416.9 245.483 424.267 247.509C428.994 232.222 436.826 197.486 430.347 180.836C422.241 160.024 424.267 173.47 414.874 180.836Z" fill="#C8447D"/>
<path d="M418.558 189.493C411.043 195.386 389.273 215.585 381.17 229.275C404.008 244.009 400.692 217.119 401.429 229.275C402.018 239 416.9 245.482 424.267 247.508C428.994 232.222 436.826 197.486 430.347 180.836C422.241 160.024 427.951 182.126 418.558 189.493Z" fill="#F26CCB"/>
<path d="M164.761 271.635C169.624 295.21 177.101 314.242 180.232 320.811C184.063 305.193 190.301 290.115 192.941 284.528C195.642 284.958 202.002 284.196 205.833 277.714C209.664 271.23 219.094 264.698 223.33 262.243C217.252 260.892 202.665 254.691 192.941 240.694C180.785 223.197 160.71 212.514 153.342 210.488C145.975 208.463 158.684 242.167 164.761 271.635Z" fill="#C8447D"/>
<path d="M164.761 271.635C169.624 295.21 177.101 314.242 180.232 320.811C184.063 305.193 190.301 290.115 192.941 284.528C195.642 284.958 202.002 284.196 205.833 277.714C209.664 271.23 219.094 264.698 223.33 262.243C217.252 260.892 202.665 264.637 192.941 250.639C180.785 233.143 160.71 212.514 153.342 210.488C145.975 208.463 158.684 242.167 164.761 271.635Z" fill="#F26CCB"/>
<path d="M282.819 362.435C270.737 361.109 255.807 342.974 249.851 334.072C257.035 326.091 275.783 308.618 293.317 302.577C315.235 295.026 334.389 331.125 331.81 348.99C329.232 366.855 297.922 364.093 282.819 362.435Z" fill="#DEDEDE"/>
<path d="M282.763 350.945C270.634 349.867 255.645 335.131 249.667 327.897C256.878 321.411 275.7 307.214 293.302 302.305C315.304 296.169 334.532 325.502 331.944 340.02C329.356 354.537 297.924 352.292 282.763 350.945Z" fill="#959DA8"/>
<path d="M443.087 322.362C437.927 334.591 425.465 338.754 419.878 339.306C412.879 328.379 401.018 304.239 409.564 295.104C420.247 283.685 433.877 293.63 439.587 295.104C445.297 296.577 449.532 307.075 443.087 322.362Z" fill="#DEDEDE"/>
<path d="M443.125 312.729C437.962 321.354 425.487 324.289 419.893 324.679C412.886 316.972 401.012 299.948 409.568 293.506C420.262 285.453 433.907 292.467 439.621 293.506C445.34 294.545 449.579 301.949 443.125 312.729Z" fill="#959DA8"/>
<path d="M291.107 365.197C307.484 365.197 320.759 352.664 320.759 337.203C320.759 321.741 307.484 309.208 291.107 309.208C274.73 309.208 261.454 321.741 261.454 337.203C261.454 352.664 274.73 365.197 291.107 365.197Z" fill="#170006"/>
<path d="M312.571 334.027C312.571 347.833 304.343 359.025 289.136 359.025C273.927 359.025 261.599 347.833 261.599 334.027C261.599 320.221 273.927 309.029 289.136 309.029C304.343 309.029 312.571 320.221 312.571 334.027Z" fill="#342216"/>
<path d="M291.66 351.016C297.406 350.132 301.053 346.35 302.158 344.57C304 342.175 307.941 338.824 308.973 344.57C310.253 351.702 300.274 354.658 295.265 356.142L295.159 356.173C290.186 357.646 284.477 352.121 291.66 351.016Z" fill="#170006"/>
<path d="M415.796 341.623C429.222 341.623 440.107 330.656 440.107 317.127C440.107 303.599 429.222 292.632 415.796 292.632C402.369 292.632 391.484 303.599 391.484 317.127C391.484 330.656 402.369 341.623 415.796 341.623Z" fill="#170006"/>
<path d="M435.803 315.669C435.803 328.396 425.922 338.713 413.734 338.713C401.546 338.713 399.282 334.06 399.282 321.333C399.282 308.605 409.162 298.288 421.351 298.288C433.537 298.288 435.803 302.941 435.803 315.669Z" fill="#342216"/>
<path d="M285.582 325.416C291.476 320.111 301.053 323.206 305.105 325.416C292.028 333.704 296.264 337.94 291.844 335.361C287.424 332.783 285.582 339.597 280.241 340.334C274.9 341.071 278.215 332.046 285.582 325.416Z" fill="#5C7077"/>
<path d="M426.846 324.311C427.13 324.957 427.086 325.545 426.794 326.078C426.097 337.356 418.553 333.657 414.69 330.204C418.587 329.85 425.422 328.577 426.794 326.078C426.828 325.525 426.846 324.937 426.846 324.311Z" fill="#170006"/>
<path d="M413.401 308.471C408.096 312.007 406.77 320.749 406.77 324.679C413.401 324.679 417.821 320.995 416.716 315.101C415.611 309.208 422.425 316.022 422.057 308.471C421.689 300.92 420.031 304.051 413.401 308.471Z" fill="#5C7077"/>
<path d="M412.337 292.753C402.648 291.955 395.456 322.095 398.575 336.466C378.758 309.919 397.841 267.204 424.263 279.779C450.684 292.354 445.365 281.974 446.647 275.987C447.674 271.196 459.309 271.462 463.531 271.795C464.141 275.321 463.127 285.568 456.372 292.753C447.932 301.736 424.447 293.751 412.337 292.753Z" fill="#B99970"/>
<path d="M412.705 288.702C403.016 287.903 395.731 321.358 398.851 335.73C383.196 305.156 401.433 263.933 427.855 276.507C454.278 289.083 447.296 277.923 448.577 271.935C449.605 267.144 459.678 267.41 463.896 267.743C464.511 271.27 463.492 281.516 456.742 288.702C448.302 297.684 424.815 289.7 412.705 288.702Z" fill="#EFFFC0"/>
<path d="M261.639 327.81C253.535 336.945 241.073 334.932 235.854 332.783C252.614 332.783 264.033 303.867 268.269 297.237C272.505 290.606 313.209 290.238 330.889 318.049C345.034 340.297 332.608 354.577 324.628 358.936C329.785 355.682 335.678 343.944 317.997 323.021C295.896 296.868 271.769 316.391 261.639 327.81Z" fill="#B99970"/>
<path d="M260.349 320.674C252.246 329.81 216.945 334.747 211.727 332.598C228.487 332.598 232.355 305.893 236.591 299.262C240.827 292.632 311.919 283.102 329.6 310.913C343.745 333.162 337.581 352.182 329.6 356.541C334.757 353.287 334.389 336.808 316.708 315.886C294.607 289.733 270.479 309.256 260.349 320.674Z" fill="#EFFFC0"/>
<path d="M281.714 338.677C281.714 343.152 278.086 346.78 273.611 346.78C269.135 346.78 265.506 343.152 265.506 338.677C265.506 334.201 270.24 336.835 274.715 336.835C279.191 336.835 281.714 334.201 281.714 338.677Z" fill="white"/>
<path d="M431.13 306.796C435.378 308.194 437.932 312.052 436.827 315.413C435.722 318.774 436.934 323.627 432.682 322.229C428.431 320.831 429.468 315.803 430.571 312.442C431.676 309.081 426.876 305.398 431.13 306.796Z" fill="white"/>
<g filter="url(#filter1_d_16_84)">
<path d="M643.584 363.976C643.584 370.632 646.827 376.435 653.312 381.384C659.797 386.333 668.16 388.808 678.4 388.808C688.64 388.808 696.747 386.333 702.72 381.384C708.693 376.435 711.68 369.864 711.68 361.672C711.68 351.261 705.451 342.643 692.992 335.816L655.104 315.592C633.259 303.816 622.336 287.005 622.336 265.16C622.336 251.165 627.456 239.133 637.696 229.064C647.936 218.995 663.211 213.96 683.52 213.96C697.173 213.96 710.144 216.691 722.432 222.152C734.72 227.613 740.864 234.099 740.864 241.608C740.864 244.509 739.925 247.837 738.048 251.592L725.76 275.144L716.8 272.328V250.824C716.8 243.144 713.387 237.085 706.56 232.648C699.904 228.211 691.883 225.992 682.496 225.992C673.28 225.992 666.197 228.723 661.248 234.184C656.299 239.645 653.824 245.875 653.824 252.872C653.824 266.867 660.139 277.192 672.768 283.848L705.28 301C730.027 313.971 742.4 331.037 742.4 352.2C742.4 368.243 736.341 380.36 724.224 388.552C712.277 396.744 697.088 400.84 678.656 400.84C664.832 400.84 651.52 398.109 638.72 392.648C625.92 387.187 619.52 380.701 619.52 373.192C619.52 370.291 620.459 366.963 622.336 363.208L634.624 339.656L643.584 342.472V363.976ZM763.984 283.08V272.584H784.976V235.72H823.376V272.584H852.304V283.08H823.376V368.584C823.376 373.192 824.485 376.861 826.704 379.592C828.923 382.152 832.336 383.432 836.944 383.432C841.552 383.432 846.843 380.957 852.816 376.008L857.424 382.152C843.771 394.611 830.117 400.84 816.464 400.84C795.472 400.84 784.976 388.296 784.976 363.208V283.08H763.984ZM932.644 280.776V368.584C932.644 373.875 934.265 377.971 937.508 380.872C940.751 383.773 945.273 385.224 951.076 385.224C956.879 385.224 962.511 382.835 967.972 378.056C973.433 373.277 976.164 367.048 976.164 359.368V269H1014.56V368.584C1014.56 373.192 1015.67 376.861 1017.89 379.592C1020.11 382.152 1023.52 383.432 1028.13 383.432C1032.74 383.432 1038.03 380.957 1044 376.008L1048.61 382.152C1034.96 394.611 1021.05 400.84 1006.88 400.84C992.719 400.84 983.332 394.525 978.724 381.896C972.068 388.893 965.156 393.843 957.988 396.744C950.991 399.475 941.945 400.84 930.852 400.84C919.929 400.84 911.055 397.512 904.228 390.856C897.572 384.029 894.244 374.813 894.244 363.208V277.448C884.857 279.837 877.689 284.019 872.74 289.992L865.828 282.056C870.777 276.936 877.007 272.84 884.516 269.768C892.196 266.696 899.705 265.16 907.044 265.16C914.553 265.16 920.697 266.696 925.476 269.768C930.255 272.669 932.644 276.339 932.644 280.776ZM1196.33 216.776V368.584C1196.33 373.192 1197.44 376.861 1199.66 379.592C1201.88 382.152 1205.04 383.432 1209.13 383.432C1213.4 383.432 1218.52 380.957 1224.49 376.008L1230.38 382.152C1216.73 394.611 1203.07 400.84 1189.42 400.84C1173.21 400.84 1163.22 393.245 1159.47 378.056C1150.59 393.245 1137.54 400.84 1120.3 400.84C1100.67 400.84 1085.74 394.525 1075.5 381.896C1065.26 369.096 1060.14 352.883 1060.14 333.256C1060.14 313.459 1065.6 297.16 1076.52 284.36C1087.62 271.56 1103.06 265.16 1122.86 265.16C1138.05 265.16 1149.74 271.219 1157.93 283.336V213.448C1148.55 215.837 1141.38 220.019 1136.43 225.992L1129.52 218.056C1134.47 212.936 1140.69 208.84 1148.2 205.768C1155.88 202.696 1163.39 201.16 1170.73 201.16C1178.24 201.16 1184.39 202.696 1189.16 205.768C1193.94 208.669 1196.33 212.339 1196.33 216.776ZM1106.99 294.088C1102.21 303.645 1099.82 316.616 1099.82 333C1099.82 349.384 1102.21 362.355 1106.99 371.912C1111.77 381.469 1119.02 386.248 1128.75 386.248C1138.65 386.248 1146.16 381.469 1151.28 371.912C1156.57 362.184 1159.21 349.213 1159.21 333C1159.21 316.787 1156.57 303.901 1151.28 294.344C1146.16 284.616 1138.65 279.752 1128.75 279.752C1119.02 279.752 1111.77 284.531 1106.99 294.088ZM1228.58 282.056C1233.53 276.936 1239.76 272.84 1247.27 269.768C1254.95 266.696 1262.46 265.16 1269.79 265.16C1277.3 265.16 1283.45 266.696 1288.23 269.768C1293 272.669 1295.39 276.339 1295.39 280.776V358.344C1295.39 363.805 1297.1 367.987 1300.51 370.888C1303.93 373.619 1308.19 374.984 1313.31 374.984C1324.24 374.984 1333.54 370.291 1341.22 360.904C1349.07 351.517 1352.99 339.485 1352.99 324.808C1352.99 316.616 1351.37 307.997 1348.13 298.952C1345.06 301 1341.13 302.024 1336.35 302.024C1331.58 302.024 1327.22 300.147 1323.3 296.392C1319.54 292.467 1317.67 287.773 1317.67 282.312C1317.67 276.851 1319.54 272.243 1323.3 268.488C1327.22 264.563 1332.09 262.6 1337.89 262.6C1343.69 262.6 1348.64 264.819 1352.74 269.256C1357 273.523 1360.08 279.24 1361.95 286.408C1365.03 298.867 1366.56 312.691 1366.56 327.88C1366.56 342.899 1364.77 358.003 1361.19 373.192C1357.77 388.381 1353.16 401.437 1347.36 412.36C1341.73 423.283 1335.33 432.755 1328.16 440.776C1313.48 456.819 1298.55 464.84 1283.36 464.84C1279.27 464.84 1275.85 463.901 1273.12 462.024C1270.56 460.317 1267.58 457.075 1264.16 452.296L1250.85 433.864L1257.51 426.952C1265.7 428.317 1272.87 429 1279.01 429C1298.12 429 1313.74 422.941 1325.86 410.824C1337.98 398.707 1347.53 378.995 1354.53 351.688C1343.95 381.043 1324.49 395.72 1296.16 395.72C1285.24 395.72 1275.94 392.051 1268.26 384.712C1260.75 377.203 1256.99 366.621 1256.99 352.968V277.448C1247.61 279.837 1240.44 284.019 1235.49 289.992L1228.58 282.056ZM1480.42 228.04V217.8H1541.86C1595.28 217.8 1621.99 234.013 1621.99 266.44C1621.99 288.968 1608.76 303.645 1582.31 310.472V312.264C1613.88 317.043 1629.67 330.013 1629.67 351.176C1629.67 366.536 1622.67 378.056 1608.68 385.736C1594.68 393.245 1574.97 397 1549.54 397H1480.42V386.76H1495.78V228.04H1480.42ZM1546.98 316.872H1534.18V386.76H1546.98C1559.27 386.76 1569.51 383.688 1577.7 377.544C1585.89 371.4 1589.99 362.867 1589.99 351.944C1589.99 340.851 1585.89 332.232 1577.7 326.088C1569.51 319.944 1559.27 316.872 1546.98 316.872ZM1541.6 228.04H1534.18V307.144H1541.6C1553.72 307.144 1563.71 303.56 1571.56 296.392C1579.58 289.224 1583.59 279.411 1583.59 266.952C1583.59 254.493 1579.58 244.936 1571.56 238.28C1563.71 231.453 1553.72 228.04 1541.6 228.04ZM1713.89 280.776V368.584C1713.89 373.875 1715.52 377.971 1718.76 380.872C1722 383.773 1726.52 385.224 1732.33 385.224C1738.13 385.224 1743.76 382.835 1749.22 378.056C1754.68 373.277 1757.41 367.048 1757.41 359.368V269H1795.81V368.584C1795.81 373.192 1796.92 376.861 1799.14 379.592C1801.36 382.152 1804.77 383.432 1809.38 383.432C1813.99 383.432 1819.28 380.957 1825.25 376.008L1829.86 382.152C1816.21 394.611 1802.3 400.84 1788.13 400.84C1773.97 400.84 1764.58 394.525 1759.97 381.896C1753.32 388.893 1746.41 393.843 1739.24 396.744C1732.24 399.475 1723.2 400.84 1712.1 400.84C1701.18 400.84 1692.3 397.512 1685.48 390.856C1678.82 384.029 1675.49 374.813 1675.49 363.208V277.448C1666.11 279.837 1658.94 284.019 1653.99 289.992L1647.08 282.056C1652.03 276.936 1658.26 272.84 1665.77 269.768C1673.45 266.696 1680.96 265.16 1688.29 265.16C1695.8 265.16 1701.95 266.696 1706.73 269.768C1711.5 272.669 1713.89 276.339 1713.89 280.776ZM1977.58 216.776V368.584C1977.58 373.192 1978.69 376.861 1980.91 379.592C1983.13 382.152 1986.29 383.432 1990.38 383.432C1994.65 383.432 1999.77 380.957 2005.74 376.008L2011.63 382.152C1997.98 394.611 1984.32 400.84 1970.67 400.84C1954.46 400.84 1944.47 393.245 1940.72 378.056C1931.84 393.245 1918.79 400.84 1901.55 400.84C1881.92 400.84 1866.99 394.525 1856.75 381.896C1846.51 369.096 1841.39 352.883 1841.39 333.256C1841.39 313.459 1846.85 297.16 1857.77 284.36C1868.87 271.56 1884.31 265.16 1904.11 265.16C1919.3 265.16 1930.99 271.219 1939.18 283.336V213.448C1929.8 215.837 1922.63 220.019 1917.68 225.992L1910.77 218.056C1915.72 212.936 1921.94 208.84 1929.45 205.768C1937.13 202.696 1944.64 201.16 1951.98 201.16C1959.49 201.16 1965.64 202.696 1970.41 205.768C1975.19 208.669 1977.58 212.339 1977.58 216.776ZM1888.24 294.088C1883.46 303.645 1881.07 316.616 1881.07 333C1881.07 349.384 1883.46 362.355 1888.24 371.912C1893.02 381.469 1900.27 386.248 1910 386.248C1919.9 386.248 1927.41 381.469 1932.53 371.912C1937.82 362.184 1940.46 349.213 1940.46 333C1940.46 316.787 1937.82 303.901 1932.53 294.344C1927.41 284.616 1919.9 279.752 1910 279.752C1900.27 279.752 1893.02 284.531 1888.24 294.088ZM2159.33 216.776V368.584C2159.33 373.192 2160.44 376.861 2162.66 379.592C2164.88 382.152 2168.04 383.432 2172.13 383.432C2176.4 383.432 2181.52 380.957 2187.49 376.008L2193.38 382.152C2179.73 394.611 2166.07 400.84 2152.42 400.84C2136.21 400.84 2126.22 393.245 2122.47 378.056C2113.59 393.245 2100.54 400.84 2083.3 400.84C2063.67 400.84 2048.74 394.525 2038.5 381.896C2028.26 369.096 2023.14 352.883 2023.14 333.256C2023.14 313.459 2028.6 297.16 2039.52 284.36C2050.62 271.56 2066.06 265.16 2085.86 265.16C2101.05 265.16 2112.74 271.219 2120.93 283.336V213.448C2111.55 215.837 2104.38 220.019 2099.43 225.992L2092.52 218.056C2097.47 212.936 2103.69 208.84 2111.2 205.768C2118.88 202.696 2126.39 201.16 2133.73 201.16C2141.24 201.16 2147.39 202.696 2152.16 205.768C2156.94 208.669 2159.33 212.339 2159.33 216.776ZM2069.99 294.088C2065.21 303.645 2062.82 316.616 2062.82 333C2062.82 349.384 2065.21 362.355 2069.99 371.912C2074.77 381.469 2082.02 386.248 2091.75 386.248C2101.65 386.248 2109.16 381.469 2114.28 371.912C2119.57 362.184 2122.21 349.213 2122.21 333C2122.21 316.787 2119.57 303.901 2114.28 294.344C2109.16 284.616 2101.65 279.752 2091.75 279.752C2082.02 279.752 2074.77 284.531 2069.99 294.088ZM2191.58 282.056C2196.53 276.936 2202.76 272.84 2210.27 269.768C2217.95 266.696 2225.46 265.16 2232.79 265.16C2240.3 265.16 2246.45 266.696 2251.23 269.768C2256 272.669 2258.39 276.339 2258.39 280.776V358.344C2258.39 363.805 2260.1 367.987 2263.51 370.888C2266.93 373.619 2271.19 374.984 2276.31 374.984C2287.24 374.984 2296.54 370.291 2304.22 360.904C2312.07 351.517 2315.99 339.485 2315.99 324.808C2315.99 316.616 2314.37 307.997 2311.13 298.952C2308.06 301 2304.13 302.024 2299.35 302.024C2294.58 302.024 2290.22 300.147 2286.3 296.392C2282.54 292.467 2280.67 287.773 2280.67 282.312C2280.67 276.851 2282.54 272.243 2286.3 268.488C2290.22 264.563 2295.09 262.6 2300.89 262.6C2306.69 262.6 2311.64 264.819 2315.74 269.256C2320 273.523 2323.08 279.24 2324.95 286.408C2328.03 298.867 2329.56 312.691 2329.56 327.88C2329.56 342.899 2327.77 358.003 2324.19 373.192C2320.77 388.381 2316.16 401.437 2310.36 412.36C2304.73 423.283 2298.33 432.755 2291.16 440.776C2276.48 456.819 2261.55 464.84 2246.36 464.84C2242.27 464.84 2238.85 463.901 2236.12 462.024C2233.56 460.317 2230.58 457.075 2227.16 452.296L2213.85 433.864L2220.51 426.952C2228.7 428.317 2235.87 429 2242.01 429C2261.12 429 2276.74 422.941 2288.86 410.824C2300.98 398.707 2310.53 378.995 2317.53 351.688C2306.95 381.043 2287.49 395.72 2259.16 395.72C2248.24 395.72 2238.94 392.051 2231.26 384.712C2223.75 377.203 2219.99 366.621 2219.99 352.968V277.448C2210.61 279.837 2203.44 284.019 2198.49 289.992L2191.58 282.056Z" fill="#EFFFC0"/>
</g>
<path d="M643.584 354.976C643.584 361.632 646.827 367.435 653.312 372.384C659.797 377.333 668.16 379.808 678.4 379.808C688.64 379.808 696.747 377.333 702.72 372.384C708.693 367.435 711.68 360.864 711.68 352.672C711.68 342.261 705.451 333.643 692.992 326.816L655.104 306.592C633.259 294.816 622.336 278.005 622.336 256.16C622.336 242.165 627.456 230.133 637.696 220.064C647.936 209.995 663.211 204.96 683.52 204.96C697.173 204.96 710.144 207.691 722.432 213.152C734.72 218.613 740.864 225.099 740.864 232.608C740.864 235.509 739.925 238.837 738.048 242.592L725.76 266.144L716.8 263.328V241.824C716.8 234.144 713.387 228.085 706.56 223.648C699.904 219.211 691.883 216.992 682.496 216.992C673.28 216.992 666.197 219.723 661.248 225.184C656.299 230.645 653.824 236.875 653.824 243.872C653.824 257.867 660.139 268.192 672.768 274.848L705.28 292C730.027 304.971 742.4 322.037 742.4 343.2C742.4 359.243 736.341 371.36 724.224 379.552C712.277 387.744 697.088 391.84 678.656 391.84C664.832 391.84 651.52 389.109 638.72 383.648C625.92 378.187 619.52 371.701 619.52 364.192C619.52 361.291 620.459 357.963 622.336 354.208L634.624 330.656L643.584 333.472V354.976ZM763.984 274.08V263.584H784.976V226.72H823.376V263.584H852.304V274.08H823.376V359.584C823.376 364.192 824.485 367.861 826.704 370.592C828.923 373.152 832.336 374.432 836.944 374.432C841.552 374.432 846.843 371.957 852.816 367.008L857.424 373.152C843.771 385.611 830.117 391.84 816.464 391.84C795.472 391.84 784.976 379.296 784.976 354.208V274.08H763.984ZM932.644 271.776V359.584C932.644 364.875 934.265 368.971 937.508 371.872C940.751 374.773 945.273 376.224 951.076 376.224C956.879 376.224 962.511 373.835 967.972 369.056C973.433 364.277 976.164 358.048 976.164 350.368V260H1014.56V359.584C1014.56 364.192 1015.67 367.861 1017.89 370.592C1020.11 373.152 1023.52 374.432 1028.13 374.432C1032.74 374.432 1038.03 371.957 1044 367.008L1048.61 373.152C1034.96 385.611 1021.05 391.84 1006.88 391.84C992.719 391.84 983.332 385.525 978.724 372.896C972.068 379.893 965.156 384.843 957.988 387.744C950.991 390.475 941.945 391.84 930.852 391.84C919.929 391.84 911.055 388.512 904.228 381.856C897.572 375.029 894.244 365.813 894.244 354.208V268.448C884.857 270.837 877.689 275.019 872.74 280.992L865.828 273.056C870.777 267.936 877.007 263.84 884.516 260.768C892.196 257.696 899.705 256.16 907.044 256.16C914.553 256.16 920.697 257.696 925.476 260.768C930.255 263.669 932.644 267.339 932.644 271.776ZM1196.33 207.776V359.584C1196.33 364.192 1197.44 367.861 1199.66 370.592C1201.88 373.152 1205.04 374.432 1209.13 374.432C1213.4 374.432 1218.52 371.957 1224.49 367.008L1230.38 373.152C1216.73 385.611 1203.07 391.84 1189.42 391.84C1173.21 391.84 1163.22 384.245 1159.47 369.056C1150.59 384.245 1137.54 391.84 1120.3 391.84C1100.67 391.84 1085.74 385.525 1075.5 372.896C1065.26 360.096 1060.14 343.883 1060.14 324.256C1060.14 304.459 1065.6 288.16 1076.52 275.36C1087.62 262.56 1103.06 256.16 1122.86 256.16C1138.05 256.16 1149.74 262.219 1157.93 274.336V204.448C1148.55 206.837 1141.38 211.019 1136.43 216.992L1129.52 209.056C1134.47 203.936 1140.69 199.84 1148.2 196.768C1155.88 193.696 1163.39 192.16 1170.73 192.16C1178.24 192.16 1184.39 193.696 1189.16 196.768C1193.94 199.669 1196.33 203.339 1196.33 207.776ZM1106.99 285.088C1102.21 294.645 1099.82 307.616 1099.82 324C1099.82 340.384 1102.21 353.355 1106.99 362.912C1111.77 372.469 1119.02 377.248 1128.75 377.248C1138.65 377.248 1146.16 372.469 1151.28 362.912C1156.57 353.184 1159.21 340.213 1159.21 324C1159.21 307.787 1156.57 294.901 1151.28 285.344C1146.16 275.616 1138.65 270.752 1128.75 270.752C1119.02 270.752 1111.77 275.531 1106.99 285.088ZM1228.58 273.056C1233.53 267.936 1239.76 263.84 1247.27 260.768C1254.95 257.696 1262.46 256.16 1269.79 256.16C1277.3 256.16 1283.45 257.696 1288.23 260.768C1293 263.669 1295.39 267.339 1295.39 271.776V349.344C1295.39 354.805 1297.1 358.987 1300.51 361.888C1303.93 364.619 1308.19 365.984 1313.31 365.984C1324.24 365.984 1333.54 361.291 1341.22 351.904C1349.07 342.517 1352.99 330.485 1352.99 315.808C1352.99 307.616 1351.37 298.997 1348.13 289.952C1345.06 292 1341.13 293.024 1336.35 293.024C1331.58 293.024 1327.22 291.147 1323.3 287.392C1319.54 283.467 1317.67 278.773 1317.67 273.312C1317.67 267.851 1319.54 263.243 1323.3 259.488C1327.22 255.563 1332.09 253.6 1337.89 253.6C1343.69 253.6 1348.64 255.819 1352.74 260.256C1357 264.523 1360.08 270.24 1361.95 277.408C1365.03 289.867 1366.56 303.691 1366.56 318.88C1366.56 333.899 1364.77 349.003 1361.19 364.192C1357.77 379.381 1353.16 392.437 1347.36 403.36C1341.73 414.283 1335.33 423.755 1328.16 431.776C1313.48 447.819 1298.55 455.84 1283.36 455.84C1279.27 455.84 1275.85 454.901 1273.12 453.024C1270.56 451.317 1267.58 448.075 1264.16 443.296L1250.85 424.864L1257.51 417.952C1265.7 419.317 1272.87 420 1279.01 420C1298.12 420 1313.74 413.941 1325.86 401.824C1337.98 389.707 1347.53 369.995 1354.53 342.688C1343.95 372.043 1324.49 386.72 1296.16 386.72C1285.24 386.72 1275.94 383.051 1268.26 375.712C1260.75 368.203 1256.99 357.621 1256.99 343.968V268.448C1247.61 270.837 1240.44 275.019 1235.49 280.992L1228.58 273.056ZM1480.42 219.04V208.8H1541.86C1595.28 208.8 1621.99 225.013 1621.99 257.44C1621.99 279.968 1608.76 294.645 1582.31 301.472V303.264C1613.88 308.043 1629.67 321.013 1629.67 342.176C1629.67 357.536 1622.67 369.056 1608.68 376.736C1594.68 384.245 1574.97 388 1549.54 388H1480.42V377.76H1495.78V219.04H1480.42ZM1546.98 307.872H1534.18V377.76H1546.98C1559.27 377.76 1569.51 374.688 1577.7 368.544C1585.89 362.4 1589.99 353.867 1589.99 342.944C1589.99 331.851 1585.89 323.232 1577.7 317.088C1569.51 310.944 1559.27 307.872 1546.98 307.872ZM1541.6 219.04H1534.18V298.144H1541.6C1553.72 298.144 1563.71 294.56 1571.56 287.392C1579.58 280.224 1583.59 270.411 1583.59 257.952C1583.59 245.493 1579.58 235.936 1571.56 229.28C1563.71 222.453 1553.72 219.04 1541.6 219.04ZM1713.89 271.776V359.584C1713.89 364.875 1715.52 368.971 1718.76 371.872C1722 374.773 1726.52 376.224 1732.33 376.224C1738.13 376.224 1743.76 373.835 1749.22 369.056C1754.68 364.277 1757.41 358.048 1757.41 350.368V260H1795.81V359.584C1795.81 364.192 1796.92 367.861 1799.14 370.592C1801.36 373.152 1804.77 374.432 1809.38 374.432C1813.99 374.432 1819.28 371.957 1825.25 367.008L1829.86 373.152C1816.21 385.611 1802.3 391.84 1788.13 391.84C1773.97 391.84 1764.58 385.525 1759.97 372.896C1753.32 379.893 1746.41 384.843 1739.24 387.744C1732.24 390.475 1723.2 391.84 1712.1 391.84C1701.18 391.84 1692.3 388.512 1685.48 381.856C1678.82 375.029 1675.49 365.813 1675.49 354.208V268.448C1666.11 270.837 1658.94 275.019 1653.99 280.992L1647.08 273.056C1652.03 267.936 1658.26 263.84 1665.77 260.768C1673.45 257.696 1680.96 256.16 1688.29 256.16C1695.8 256.16 1701.95 257.696 1706.73 260.768C1711.5 263.669 1713.89 267.339 1713.89 271.776ZM1977.58 207.776V359.584C1977.58 364.192 1978.69 367.861 1980.91 370.592C1983.13 373.152 1986.29 374.432 1990.38 374.432C1994.65 374.432 1999.77 371.957 2005.74 367.008L2011.63 373.152C1997.98 385.611 1984.32 391.84 1970.67 391.84C1954.46 391.84 1944.47 384.245 1940.72 369.056C1931.84 384.245 1918.79 391.84 1901.55 391.84C1881.92 391.84 1866.99 385.525 1856.75 372.896C1846.51 360.096 1841.39 343.883 1841.39 324.256C1841.39 304.459 1846.85 288.16 1857.77 275.36C1868.87 262.56 1884.31 256.16 1904.11 256.16C1919.3 256.16 1930.99 262.219 1939.18 274.336V204.448C1929.8 206.837 1922.63 211.019 1917.68 216.992L1910.77 209.056C1915.72 203.936 1921.94 199.84 1929.45 196.768C1937.13 193.696 1944.64 192.16 1951.98 192.16C1959.49 192.16 1965.64 193.696 1970.41 196.768C1975.19 199.669 1977.58 203.339 1977.58 207.776ZM1888.24 285.088C1883.46 294.645 1881.07 307.616 1881.07 324C1881.07 340.384 1883.46 353.355 1888.24 362.912C1893.02 372.469 1900.27 377.248 1910 377.248C1919.9 377.248 1927.41 372.469 1932.53 362.912C1937.82 353.184 1940.46 340.213 1940.46 324C1940.46 307.787 1937.82 294.901 1932.53 285.344C1927.41 275.616 1919.9 270.752 1910 270.752C1900.27 270.752 1893.02 275.531 1888.24 285.088ZM2159.33 207.776V359.584C2159.33 364.192 2160.44 367.861 2162.66 370.592C2164.88 373.152 2168.04 374.432 2172.13 374.432C2176.4 374.432 2181.52 371.957 2187.49 367.008L2193.38 373.152C2179.73 385.611 2166.07 391.84 2152.42 391.84C2136.21 391.84 2126.22 384.245 2122.47 369.056C2113.59 384.245 2100.54 391.84 2083.3 391.84C2063.67 391.84 2048.74 385.525 2038.5 372.896C2028.26 360.096 2023.14 343.883 2023.14 324.256C2023.14 304.459 2028.6 288.16 2039.52 275.36C2050.62 262.56 2066.06 256.16 2085.86 256.16C2101.05 256.16 2112.74 262.219 2120.93 274.336V204.448C2111.55 206.837 2104.38 211.019 2099.43 216.992L2092.52 209.056C2097.47 203.936 2103.69 199.84 2111.2 196.768C2118.88 193.696 2126.39 192.16 2133.73 192.16C2141.24 192.16 2147.39 193.696 2152.16 196.768C2156.94 199.669 2159.33 203.339 2159.33 207.776ZM2069.99 285.088C2065.21 294.645 2062.82 307.616 2062.82 324C2062.82 340.384 2065.21 353.355 2069.99 362.912C2074.77 372.469 2082.02 377.248 2091.75 377.248C2101.65 377.248 2109.16 372.469 2114.28 362.912C2119.57 353.184 2122.21 340.213 2122.21 324C2122.21 307.787 2119.57 294.901 2114.28 285.344C2109.16 275.616 2101.65 270.752 2091.75 270.752C2082.02 270.752 2074.77 275.531 2069.99 285.088ZM2191.58 273.056C2196.53 267.936 2202.76 263.84 2210.27 260.768C2217.95 257.696 2225.46 256.16 2232.79 256.16C2240.3 256.16 2246.45 257.696 2251.23 260.768C2256 263.669 2258.39 267.339 2258.39 271.776V349.344C2258.39 354.805 2260.1 358.987 2263.51 361.888C2266.93 364.619 2271.19 365.984 2276.31 365.984C2287.24 365.984 2296.54 361.291 2304.22 351.904C2312.07 342.517 2315.99 330.485 2315.99 315.808C2315.99 307.616 2314.37 298.997 2311.13 289.952C2308.06 292 2304.13 293.024 2299.35 293.024C2294.58 293.024 2290.22 291.147 2286.3 287.392C2282.54 283.467 2280.67 278.773 2280.67 273.312C2280.67 267.851 2282.54 263.243 2286.3 259.488C2290.22 255.563 2295.09 253.6 2300.89 253.6C2306.69 253.6 2311.64 255.819 2315.74 260.256C2320 264.523 2323.08 270.24 2324.95 277.408C2328.03 289.867 2329.56 303.691 2329.56 318.88C2329.56 333.899 2327.77 349.003 2324.19 364.192C2320.77 379.381 2316.16 392.437 2310.36 403.36C2304.73 414.283 2298.33 423.755 2291.16 431.776C2276.48 447.819 2261.55 455.84 2246.36 455.84C2242.27 455.84 2238.85 454.901 2236.12 453.024C2233.56 451.317 2230.58 448.075 2227.16 443.296L2213.85 424.864L2220.51 417.952C2228.7 419.317 2235.87 420 2242.01 420C2261.12 420 2276.74 413.941 2288.86 401.824C2300.98 389.707 2310.53 369.995 2317.53 342.688C2306.95 372.043 2287.49 386.72 2259.16 386.72C2248.24 386.72 2238.94 383.051 2231.26 375.712C2223.75 368.203 2219.99 357.621 2219.99 343.968V268.448C2210.61 270.837 2203.44 275.019 2198.49 280.992L2191.58 273.056Z" fill="#FFC446"/>
</g>
<defs>
<filter id="filter0_d_16_84" x="-16.145" y="35.4082" width="551.562" height="571.742" filterUnits="userSpaceOnUse" color-interpolation-filters="sRGB">
<feFlood flood-opacity="0" result="BackgroundImageFix"/>
<feColorMatrix in="SourceAlpha" type="matrix" values="0 0 0 0 0 0 0 0 0 0 0 0 0 0 0 0 0 0 127 0" result="hardAlpha"/>
<feOffset dy="100"/>
<feGaussianBlur stdDeviation="30"/>
<feComposite in2="hardAlpha" operator="out"/>
<feColorMatrix type="matrix" values="0 0 0 0 0 0 0 0 0 0 0 0 0 0 0 0 0 0 0.25 0"/>
<feBlend mode="normal" in2="BackgroundImageFix" result="effect1_dropShadow_16_84"/>
<feBlend mode="normal" in="SourceGraphic" in2="effect1_dropShadow_16_84" result="shape"/>
</filter>
<filter id="filter1_d_16_84" x="549.52" y="141.16" width="1870.04" height="423.68" filterUnits="userSpaceOnUse" color-interpolation-filters="sRGB">
<feFlood flood-opacity="0" result="BackgroundImageFix"/>
<feColorMatrix in="SourceAlpha" type="matrix" values="0 0 0 0 0 0 0 0 0 0 0 0 0 0 0 0 0 0 127 0" result="hardAlpha"/>
<feOffset dx="10" dy="20"/>
<feGaussianBlur stdDeviation="40"/>
<feComposite in2="hardAlpha" operator="out"/>
<feColorMatrix type="matrix" values="0 0 0 0 0 0 0 0 0 0 0 0 0 0 0 0 0 0 0.5 0"/>
<feBlend mode="normal" in2="BackgroundImageFix" result="effect1_dropShadow_16_84"/>
<feBlend mode="normal" in="SourceGraphic" in2="effect1_dropShadow_16_84" result="shape"/>
</filter>
<clipPath id="clip0_16_84">
<rect width="2350" height="535" fill="white"/>
</clipPath>
</defs>
</svg>
