<svg width="1182" height="1182" viewBox="0 0 1182 1182" fill="none" xmlns="http://www.w3.org/2000/svg">
<g clip-path="url(#clip0_6_360)">
<mask id="mask0_6_360" style="mask-type:luminance" maskUnits="userSpaceOnUse" x="256" y="50" width="650" height="650">
<path d="M906 50H256V700H906V50Z" fill="white"/>
</mask>
<g mask="url(#mask0_6_360)">
<path d="M572.037 594.283C717.097 594.283 834.692 482.089 834.692 343.691C834.692 205.293 717.097 93.0996 572.037 93.0996C426.976 93.0996 309.382 205.293 309.382 343.691C309.382 482.089 426.976 594.283 572.037 594.283Z" fill="#1126CF"/>
<path d="M575.849 594.283C709.389 594.283 817.645 491.218 817.645 364.081C817.645 236.944 709.389 133.879 575.849 133.879C442.31 133.879 334.054 236.944 334.054 364.081C334.054 491.218 442.31 594.283 575.849 594.283Z" fill="#5B80F3"/>
<path d="M583.027 582.444C703.931 582.444 801.943 485.955 801.943 366.931C801.943 247.906 703.931 151.417 583.027 151.417C462.123 151.417 364.11 247.906 364.11 366.931C364.11 485.955 462.123 582.444 583.027 582.444Z" fill="#1A4771"/>
<path d="M605.331 210.612C605.331 224.9 606.638 272.219 621.256 272.219C635.873 272.219 658.265 224.9 658.265 210.612C658.265 196.324 646.415 184.742 631.798 184.742C617.18 184.742 605.331 196.324 605.331 210.612Z" fill="#1389A5"/>
<path d="M477.521 224.659C485.352 236.724 512.391 275.995 524.734 268.34C537.077 260.686 530.05 209.005 522.219 196.94C514.388 184.876 498.034 181.301 485.691 188.955C473.348 196.609 469.69 212.595 477.521 224.659Z" fill="#1389A5"/>
<path d="M442.787 306.047C457.169 308.602 505.033 315.806 507.647 301.749C510.261 287.691 466.635 257.696 452.253 255.141C437.871 252.586 424.093 261.91 421.479 275.968C418.865 290.025 428.405 303.492 442.787 306.047Z" fill="#1389A5"/>
<path d="M407.963 380.292C422.58 380.122 470.977 378.711 470.862 369.23C470.747 359.749 422.162 345.789 407.546 345.959C392.93 346.129 381.174 353.952 381.289 363.433C381.405 372.914 393.347 380.461 407.963 380.292Z" fill="#1389A5"/>
<path d="M441.325 457.293C452.83 448.481 490.401 418.628 484.418 411.165C478.435 403.702 433.134 411.958 421.628 420.77C410.122 429.583 403.675 452.273 409.658 459.736C415.641 467.199 429.818 466.105 441.325 457.293Z" fill="#1389A5"/>
<path d="M505.428 506.261C510.192 492.754 525.15 447.743 515.979 444.652C506.809 441.562 472.822 471.155 468.058 484.663C463.294 498.17 471.026 522.034 480.197 525.124C489.368 528.214 500.664 519.769 505.428 506.261Z" fill="#1389A5"/>
<path d="M705.952 237.137C694.874 246.458 659.038 278.297 668.573 289.126C678.11 299.954 729.408 285.672 740.486 276.35C751.565 267.029 752.815 250.695 743.278 239.866C733.742 229.038 717.03 227.816 705.952 237.137Z" fill="#1389A5"/>
<path d="M578.195 451.28L725.543 282.727L763.625 302.773L600.877 462.818L578.195 451.28Z" fill="#2C502C"/>
<path d="M569.975 446.312L721.756 247.638L749.857 297.816L589.446 455.009L569.975 446.312Z" fill="#3AC659"/>
<path d="M699.769 233.059L784.756 237.576L764.104 357.608L699.769 233.059Z" fill="#2C502C"/>
<path d="M697.867 230.675L786.038 236.053L759.979 337.84L697.867 230.675Z" fill="#3AC659"/>
<path d="M560.193 418.712L511.605 152.621L581.415 135.462L601.251 408.166L560.193 418.712Z" fill="#7AF7FB"/>
<path d="M474.544 203.767L551.692 53.4019L635.223 153.706L474.544 203.767Z" fill="#7AF7FB"/>
<path d="M565.427 417.665L516.839 151.575L586.648 134.415L606.484 407.119L565.427 417.665Z" fill="#255525"/>
<path d="M606.708 407.103L573.025 417.137L578.645 277.918L529.592 150.688L596.261 136.291L606.708 407.103Z" fill="#3AC659"/>
<path d="M479.778 202.721L552.938 50.4585L640.456 152.66L479.778 202.721Z" fill="#2C502C"/>
<path d="M516.366 184.239L554.479 51.8315L632.828 147.254L516.366 184.239Z" fill="#3AC659"/>
<path d="M442.653 564.026C440.86 541.787 438.767 529.502 437.945 526.139C414.405 514.257 861.432 512.015 820.181 586.218C778.932 660.424 769.74 640.699 760.997 643.839C752.254 646.974 746.874 668.499 728.49 667.599C710.107 666.704 667.736 699.209 600.704 700.109C533.673 701.004 516.186 670.064 507.443 658.859C498.699 647.649 482.11 646.304 461.484 629.714C440.86 613.124 444.895 591.823 442.653 564.026Z" fill="#FBD4D5"/>
<path d="M469.611 552.708C467.943 536.06 465.998 526.862 465.234 524.344C443.35 515.449 858.946 513.771 820.595 569.324C782.244 624.878 773.699 610.109 765.571 612.459C757.443 614.809 752.44 630.918 735.349 630.248C718.259 629.578 678.867 653.914 616.548 654.584C554.23 655.253 537.973 632.095 529.845 623.701C521.717 615.311 506.293 614.301 487.118 601.882C467.943 589.463 471.695 573.522 469.611 552.708Z" fill="#FFF4E6"/>
<path d="M552.027 557.397C538.566 526.773 543.646 513.785 547.87 511.119C604.157 542.637 729.441 598.648 780.276 570.538C843.826 535.401 783.049 643.954 769.786 643.954C759.175 643.954 719.305 637.862 700.697 634.816C694.89 645.859 679.079 669.379 662.292 675.093C641.308 682.237 611.416 649.957 602.903 643.954C594.391 637.957 591.817 615.672 591.817 626.814C591.817 637.957 577.168 639.956 581.325 634.816C585.482 629.672 575.783 605.676 577.168 615.672C578.554 625.674 558.955 618.818 564.696 615.672C570.438 612.532 568.854 595.675 552.027 557.397Z" fill="#FBD4D5"/>
<path d="M595.772 564.026C636.125 584.114 732.151 578.227 775.121 572.77C760.922 595.189 717.818 640.024 658.992 640.024C612.757 640.024 586.805 587.49 572.843 548.386C558.046 533.719 561.609 521.147 563.937 520.758C566.128 528.084 569.041 537.737 572.843 548.386C577.99 553.488 585.358 558.843 595.772 564.026Z" fill="#342216"/>
<path d="M626.709 611.554C624.198 581.78 609.82 571.201 602.945 569.631C654.284 518.965 704.053 564.027 730.283 569.631C756.513 575.239 765.704 590.929 770.412 620.299C775.12 649.664 766.601 647.874 723.109 678.584C679.617 709.3 629.848 648.769 626.709 611.554Z" fill="#841341"/>
<path d="M630.171 606.399C627.721 578.881 613.69 569.104 606.981 567.654C657.08 520.83 705.649 562.474 731.245 567.654C756.842 572.833 765.812 587.338 770.406 614.479C775 641.62 766.687 639.961 724.244 668.348C681.802 696.729 633.234 640.788 630.171 606.399Z" fill="#F26CCB"/>
<path d="M679.617 589.809C667.063 593.038 639.264 588.464 626.934 585.774C620.836 556.718 704.054 560.365 746.425 565.82C744.631 569.407 731.584 570.887 727.818 573.218C723.11 576.133 700.915 568.286 713.694 589.809C723.917 607.027 722.213 620.524 713.694 626.574C714.964 627.17 705.354 628.008 707.865 614.919C711.004 598.554 695.311 585.774 679.617 589.809Z" fill="#C8447D"/>
<path d="M791.711 566.493C758.71 586.04 725.351 568.809 712.797 557.749C626.171 459.646 676.703 372.646 712.797 341.41C727.518 373.244 763.911 438.483 791.711 444.76C826.461 452.606 810.766 470.092 821.076 480.405C829.329 488.655 838.116 483.843 841.481 480.405C839.686 485.636 836.101 497.399 836.101 502.6C836.101 509.101 837.666 512.015 836.101 525.466C834.531 538.918 823.321 535.779 821.076 542.057C818.836 548.334 832.961 542.057 791.711 566.493Z" fill="#FBD4D5"/>
<path d="M788.12 560.33C755.095 579.326 771.095 557.959 758.53 547.213C671.833 451.893 676.566 371.984 712.69 341.634C727.424 372.565 763.846 435.952 791.669 442.051C826.445 449.675 810.74 466.666 821.06 476.685C829.319 484.701 840.356 483.521 843.721 480.181C841.926 485.264 836.096 493.196 836.096 498.25C836.096 504.567 837.666 507.398 836.096 520.468C834.526 533.538 819.757 530.488 817.517 536.587C815.272 542.686 829.408 536.587 788.12 560.33Z" fill="#FFF4E6"/>
<path d="M761.67 506.411C749.653 498.161 725.127 459.78 714.366 441.621C721.988 423.761 724.141 379.97 671.771 347.687C606.309 307.334 530.309 411.58 488.386 466.954C446.463 522.328 439.514 539.59 458.346 532.641C477.177 525.691 539.725 523.001 571.335 557.077C602.945 591.154 632.986 585.549 679.617 586.219C716.922 586.758 725.65 567.016 725.351 557.077C738.802 556.255 766.96 550.217 771.982 532.641C778.259 510.671 776.69 516.724 761.67 506.411Z" fill="#FBD4D5"/>
<path d="M740.302 502.26C729.098 494.208 710.051 453.068 700.018 435.344C707.125 417.912 710.161 396.041 661.334 364.533C600.299 325.146 545.216 404.622 506.128 458.669C467.042 512.715 456.032 537.482 473.59 530.699C491.148 523.916 533.369 518.452 562.842 551.712C592.314 584.973 620.323 579.498 663.799 580.158C698.581 580.681 706.719 561.413 706.44 551.712C718.981 550.909 745.235 545.016 749.917 527.861C755.769 506.417 754.306 512.325 740.302 502.26Z" fill="#FFF4E6"/>
<path d="M674.909 371.899C662.713 342.307 647.409 337.748 641.281 339.168C647.11 333.564 682.98 335.133 692.395 330.649C701.811 326.165 690.826 318.095 692.395 307.109C693.965 296.124 729.386 274.603 739.475 268.55C749.563 262.496 765.928 243.665 771.981 250.166C778.035 256.667 787.451 267.205 791.936 311.145C795.112 342.291 787.848 353.913 782.458 356.677C784.541 358.042 788.544 362.199 795.746 371.899C811.886 393.645 795.746 389.386 807.851 390.507C819.956 391.628 817.716 402.389 807.851 407.769C797.986 413.149 795.746 429.739 807.851 447.002C819.956 464.264 807.851 468.747 795.746 476.37C783.641 483.992 780.501 468.747 771.981 456.866C765.166 447.36 752.402 460.827 746.873 468.747C750.46 470.242 751.984 472.334 729.386 468.747C701.139 464.264 690.154 408.89 674.909 371.899Z" fill="#E6D94D"/>
<path d="M674.909 371.899C663.551 344.339 710.466 364.578 712.015 368.635C715.243 361.836 683.282 334.989 692.395 330.649C701.811 326.165 696.137 316.118 697.707 305.133C699.276 294.148 729.386 274.603 739.475 268.55C749.563 262.496 765.929 243.665 771.982 250.166C778.035 256.667 787.451 267.205 791.936 311.145C795.113 342.291 787.849 353.913 782.458 356.677C784.541 358.042 788.545 362.199 795.746 371.899C811.886 393.645 795.746 389.386 807.851 390.507C819.956 391.628 817.716 402.389 807.851 407.769C797.986 413.149 795.746 429.739 807.851 447.002C819.956 464.264 807.851 468.747 795.746 476.37C783.641 483.992 780.501 468.747 771.982 456.866C765.166 447.36 752.403 460.827 746.873 468.747C750.46 470.242 751.984 472.334 729.386 468.747C701.139 464.264 690.154 408.89 674.909 371.899Z" fill="#EFFFC0"/>
<path d="M692.395 362.483C680.2 332.891 647.409 337.748 641.281 339.168C647.11 333.563 682.98 335.133 692.395 330.649C701.811 326.165 700.69 322.13 702.26 311.145C703.829 300.16 736.784 279.31 746.873 273.258C756.961 267.205 765.928 243.665 771.981 250.166C778.035 256.667 787.451 267.205 791.936 311.145C795.112 342.291 787.848 353.913 782.458 356.677C784.541 358.042 788.544 362.199 795.746 371.899C811.886 393.645 795.746 389.386 807.851 390.507C819.956 391.628 817.716 402.388 807.851 407.769C797.986 413.149 795.746 429.739 807.851 447.002C819.956 464.264 807.851 468.747 795.746 476.37C783.641 483.992 789.021 488.252 780.501 476.37C774.038 467.356 777.144 471.943 772.767 479.197C773.101 480.237 772.814 480.752 771.981 480.405C772.267 479.996 772.528 479.592 772.767 479.197C771.663 475.756 763.775 466.57 746.424 463.815C718.177 459.332 707.64 399.474 692.395 362.483Z" fill="#C79647"/>
<path d="M692.396 362.483C682.318 338.029 690.989 341.019 690.847 343.596C695.463 340.076 697.276 343.48 705.819 339.412C715.235 334.929 700.691 322.13 702.26 311.145C703.829 300.16 736.785 279.31 746.873 273.258C756.962 267.205 765.929 243.665 771.982 250.166C778.035 256.667 787.451 267.205 791.936 311.145C795.113 342.318 785.08 357.988 779.065 361.658C781.584 362.681 786.52 366.829 794.527 377.617C801.105 386.479 802.524 390.072 802.717 391.295C803.089 390.797 804.319 390.18 807.851 390.507C819.956 391.628 817.716 402.388 807.851 407.769C797.986 413.149 795.746 429.739 807.851 447.002C819.956 464.264 807.851 468.747 795.746 476.37C783.641 483.992 789.021 488.252 780.501 476.37C774.038 467.356 777.145 471.943 772.768 479.197C773.101 480.237 772.815 480.752 771.982 480.405C772.268 479.996 772.529 479.592 772.768 479.197C771.664 475.756 763.776 466.57 746.425 463.815C718.177 459.332 707.641 399.474 692.396 362.483Z" fill="#FFC446"/>
<path d="M436.375 496.098C430.995 508.653 434.133 522.253 436.375 527.485C438.617 527.485 448.033 525.243 467.761 516.275C492.422 505.066 474.487 496.098 495.784 478.164C517.082 460.229 531.654 469.196 555.418 496.098C574.429 517.62 576.043 525.99 574.474 527.485C577.837 531.968 591.288 538.245 618.19 527.485C651.818 514.033 659.665 487.131 663.028 469.196C666.39 451.261 667.511 447.898 671.995 424.359C676.479 400.819 666.39 378.177 642.851 356.879C619.311 335.581 566.628 362.484 555.418 363.605C544.209 364.726 539.501 352.395 531.654 342.307C523.808 332.218 500.269 335.357 495.784 323.027C491.301 310.697 472.245 300.833 443.101 295.228C413.957 289.623 429.65 316.525 436.375 342.307C443.101 368.088 436.375 420.996 436.375 438.931C436.375 453.279 446.837 465.086 452.069 469.196V478.164C449.079 478.911 441.756 483.544 436.375 496.098Z" fill="#EFFFC0"/>
<path d="M486.593 445.208C484.351 439.977 446.688 481.078 452.069 468.523C456.13 459.047 467.089 445.482 471.158 440.848L452.069 458.959C446.837 454.848 436.375 443.042 436.375 428.693C436.375 410.759 443.101 357.851 436.375 332.069C429.65 306.288 413.957 279.385 443.101 284.99C472.245 290.595 491.301 300.459 495.784 312.789C500.269 325.119 523.808 321.981 531.654 332.069C539.501 342.158 544.209 354.488 555.418 353.367C566.628 352.246 619.311 325.344 642.851 346.642C666.39 367.939 676.479 390.582 671.995 414.121C667.511 437.661 666.39 441.024 663.028 458.959C659.665 476.893 651.818 503.796 618.19 517.247C591.288 528.008 621.553 504.169 618.19 499.685C619.76 498.191 568.152 497.219 549.141 475.697C525.377 448.795 526.274 457.762 504.977 475.697C483.679 493.632 492.422 494.829 467.761 506.038C448.033 515.005 488.835 445.208 486.593 445.208Z" fill="#C79647"/>
<path d="M486.593 445.208C484.351 439.977 446.688 481.078 452.069 468.523C456.13 459.047 467.089 445.482 471.158 440.848L452.069 458.959C446.837 454.848 436.375 443.042 436.375 428.693C436.375 410.759 443.101 357.851 436.375 332.069C429.65 306.288 413.957 279.385 443.101 284.99C472.245 290.595 491.301 300.459 495.784 312.789C500.269 325.119 523.808 321.981 531.654 332.069C539.501 342.158 551.212 361.99 562.421 360.869C573.63 359.748 627.066 334.862 650.605 356.159C674.145 377.457 676.479 390.582 671.995 414.121C667.511 437.661 666.39 441.024 663.028 458.959C659.665 476.893 651.818 503.796 618.19 517.247C591.288 528.008 621.553 504.169 618.19 499.685C619.76 498.191 568.152 497.219 549.141 475.697C525.377 448.795 526.274 457.762 504.977 475.697C483.679 493.632 492.422 494.829 467.761 506.038C448.033 515.005 488.835 445.208 486.593 445.208Z" fill="#FFC446"/>
<path d="M775.121 538.918C781.935 528.874 777.96 522.029 775.121 519.862C775.121 500.806 676.479 502.6 708.089 548.334C739.699 594.069 766.601 551.472 775.121 538.918Z" fill="#332216"/>
<path d="M740.116 511.737C759.894 507.173 775.377 521.801 775.773 528.853C771.97 539.551 767.929 537.649 764.601 536.698C759.133 535.136 766.978 540.977 764.601 546.444C762.223 551.912 749.862 559.994 735.361 563.322C720.86 566.651 725.614 555.953 728.467 555.002C731.32 554.051 733.935 547.395 728.467 541.928C723 536.46 721.811 548.346 717.295 550.248C712.778 552.15 709.212 536.698 708.736 526.001C708.261 515.303 715.393 517.443 740.116 511.737Z" fill="#5E362E"/>
<path d="M760.997 270.119C751.85 277.293 729.835 312.415 719.971 329.08C747.77 347.015 743.734 314.283 744.631 329.08C745.348 340.917 763.463 348.808 772.43 351.274C778.184 332.667 787.718 290.385 779.831 270.119C769.964 244.786 772.43 261.151 760.997 270.119Z" fill="#C8447D"/>
<path d="M765.481 280.656C756.334 287.829 729.835 312.415 719.971 329.08C747.77 347.015 743.734 314.284 744.631 329.08C745.348 340.917 763.463 348.808 772.43 351.274C778.184 332.667 787.718 290.385 779.831 270.119C769.964 244.786 776.914 271.688 765.481 280.656Z" fill="#F26CCB"/>
<path d="M456.552 380.642C462.471 409.338 471.573 432.504 475.384 440.5C480.047 421.489 487.639 403.136 490.853 396.335C494.141 396.859 501.882 395.932 506.545 388.041C511.208 380.149 522.687 372.198 527.843 369.209C520.445 367.565 502.689 360.017 490.853 342.979C476.056 321.682 451.62 308.678 442.652 306.212C433.685 303.746 449.154 344.773 456.552 380.642Z" fill="#C8447D"/>
<path d="M456.552 380.642C462.471 409.338 471.573 432.504 475.384 440.5C480.047 421.489 487.639 403.136 490.853 396.335C494.141 396.859 501.882 395.932 506.545 388.041C511.208 380.149 522.687 372.198 527.843 369.209C520.445 367.565 502.689 372.123 490.853 355.085C476.056 333.788 451.62 308.678 442.652 306.212C433.685 303.746 449.154 344.773 456.552 380.642Z" fill="#F26CCB"/>
<path d="M600.255 491.166C585.549 489.552 567.375 467.477 560.126 456.641C568.87 446.927 591.691 425.659 613.034 418.306C639.712 409.114 663.027 453.054 659.889 474.801C656.75 496.547 618.639 493.184 600.255 491.166Z" fill="#DEDEDE"/>
<path d="M600.187 477.18C585.423 475.868 567.179 457.931 559.902 449.125C568.679 441.231 591.59 423.949 613.016 417.974C639.797 410.505 663.203 446.211 660.052 463.882C656.901 481.552 618.642 478.82 600.187 477.18Z" fill="#959DA8"/>
<path d="M795.338 442.388C789.058 457.274 773.888 462.341 767.088 463.013C758.569 449.712 744.131 420.328 754.533 409.209C767.536 395.309 784.128 407.415 791.078 409.209C798.028 411.002 803.183 423.781 795.338 442.388Z" fill="#DEDEDE"/>
<path d="M795.385 430.663C789.1 441.161 773.915 444.734 767.106 445.208C758.577 435.827 744.123 415.106 754.538 407.264C767.555 397.462 784.164 405.999 791.12 407.264C798.08 408.529 803.24 417.541 795.385 430.663Z" fill="#959DA8"/>
<path d="M610.343 494.529C630.278 494.529 646.437 479.272 646.437 460.452C646.437 441.632 630.278 426.376 610.343 426.376C590.409 426.376 574.25 441.632 574.25 460.452C574.25 479.272 590.409 494.529 610.343 494.529Z" fill="#170006"/>
<path d="M636.47 456.587C636.47 473.392 626.456 487.015 607.944 487.015C589.432 487.015 574.426 473.392 574.426 456.587C574.426 439.781 589.432 426.158 607.944 426.158C626.456 426.158 636.47 439.781 636.47 456.587Z" fill="#342216"/>
<path d="M611.016 477.266C618.011 476.19 622.45 471.587 623.795 469.42C626.037 466.505 630.835 462.425 632.09 469.42C633.648 478.102 621.502 481.699 615.405 483.505L615.276 483.543C609.223 485.337 602.273 478.611 611.016 477.266Z" fill="#170006"/>
<path d="M762.118 465.833C778.461 465.833 791.71 452.483 791.71 436.016C791.71 419.549 778.461 406.199 762.118 406.199C745.774 406.199 732.525 419.549 732.525 436.016C732.525 452.483 745.774 465.833 762.118 465.833Z" fill="#170006"/>
<path d="M786.472 434.241C786.472 449.733 774.444 462.291 759.609 462.291C744.773 462.291 742.018 456.627 742.018 441.135C742.018 425.643 754.044 413.084 768.88 413.084C783.714 413.084 786.472 418.749 786.472 434.241Z" fill="#342216"/>
<path d="M603.618 446.104C610.792 439.648 622.45 443.414 627.382 446.104C611.465 456.193 616.621 461.349 611.24 458.211C605.86 455.072 603.618 463.367 597.117 464.264C590.616 465.16 594.651 454.175 603.618 446.104Z" fill="#5C7077"/>
<path d="M775.569 444.76C775.915 445.547 775.861 446.262 775.506 446.911C774.658 460.639 765.474 456.137 760.772 451.934C765.517 451.503 773.836 449.954 775.506 446.911C775.547 446.238 775.569 445.522 775.569 444.76Z" fill="#170006"/>
<path d="M759.203 425.479C752.746 429.784 751.132 440.425 751.132 445.208C759.203 445.208 764.583 440.724 763.238 433.55C761.893 426.376 770.188 434.671 769.74 425.479C769.291 416.288 767.273 420.099 759.203 425.479Z" fill="#5C7077"/>
<path d="M757.908 406.348C746.115 405.376 737.36 442.063 741.157 459.556C717.035 427.242 740.263 375.248 772.425 390.555C804.585 405.861 798.111 393.227 799.671 385.939C800.922 380.107 815.084 380.431 820.223 380.836C820.966 385.129 819.731 397.601 811.509 406.348C801.236 417.281 772.648 407.562 757.908 406.348Z" fill="#B99970"/>
<path d="M758.355 401.415C746.563 400.444 737.695 441.166 741.492 458.659C722.436 421.445 744.635 371.266 776.797 386.572C808.96 401.879 800.461 388.296 802.021 381.006C803.271 375.175 815.533 375.499 820.668 375.904C821.416 380.197 820.176 392.669 811.959 401.415C801.686 412.349 773.096 402.63 758.355 401.415Z" fill="#EFFFC0"/>
<path d="M574.474 449.019C564.61 460.139 549.44 457.688 543.088 455.072C563.489 455.072 577.389 419.875 582.545 411.805C587.701 403.734 637.246 403.285 658.768 437.138C675.986 464.219 660.86 481.601 651.146 486.907C657.423 482.946 664.597 468.658 643.075 443.19C616.173 411.356 586.804 435.12 574.474 449.019Z" fill="#B99970"/>
<path d="M572.905 440.334C563.041 451.453 520.072 457.464 513.72 454.848C534.121 454.848 538.829 422.341 543.985 414.271C549.141 406.199 635.677 394.6 657.199 428.452C674.416 455.534 666.914 478.686 657.199 483.992C663.476 480.031 663.028 459.973 641.506 434.505C614.604 402.671 585.235 426.435 572.905 440.334Z" fill="#EFFFC0"/>
<path d="M598.91 462.247C598.91 467.694 594.494 472.111 589.046 472.111C583.598 472.111 579.182 467.694 579.182 462.247C579.182 456.798 584.943 460.004 590.391 460.004C595.839 460.004 598.91 456.798 598.91 462.247Z" fill="white"/>
<path d="M780.783 423.44C785.954 425.142 789.063 429.838 787.718 433.929C786.373 438.02 787.849 443.928 782.673 442.226C777.498 440.524 778.76 434.403 780.103 430.313C781.448 426.222 775.606 421.738 780.783 423.44Z" fill="white"/>
</g>
</g>
<path d="M315.532 865.232C315.532 870.224 317.964 874.576 322.828 878.288C327.692 882 333.964 883.856 341.644 883.856C349.324 883.856 355.404 882 359.884 878.288C364.364 874.576 366.604 869.648 366.604 863.504C366.604 855.696 361.932 849.232 352.588 844.112L324.172 828.944C307.788 820.112 299.596 807.504 299.596 791.12C299.596 780.624 303.436 771.6 311.116 764.048C318.796 756.496 330.252 752.72 345.484 752.72C355.724 752.72 365.452 754.768 374.668 758.864C383.884 762.96 388.492 767.824 388.492 773.456C388.492 775.632 387.788 778.128 386.38 780.944L377.164 798.608L370.444 796.496V780.368C370.444 774.608 367.884 770.064 362.764 766.736C357.772 763.408 351.756 761.744 344.716 761.744C337.804 761.744 332.492 763.792 328.78 767.888C325.068 771.984 323.212 776.656 323.212 781.904C323.212 792.4 327.948 800.144 337.42 805.136L361.804 818C380.364 827.728 389.644 840.528 389.644 856.4C389.644 868.432 385.1 877.52 376.012 883.664C367.052 889.808 355.66 892.88 341.836 892.88C331.468 892.88 321.484 890.832 311.884 886.736C302.284 882.64 297.484 877.776 297.484 872.144C297.484 869.968 298.188 867.472 299.596 864.656L308.812 846.992L315.532 849.104V865.232ZM405.832 804.56V796.688H421.576V769.04H450.376V796.688H472.072V804.56H450.376V868.688C450.376 872.144 451.208 874.896 452.872 876.944C454.536 878.864 457.096 879.824 460.552 879.824C464.008 879.824 467.976 877.968 472.456 874.256L475.912 878.864C465.672 888.208 455.432 892.88 445.192 892.88C429.448 892.88 421.576 883.472 421.576 864.656V804.56H405.832ZM532.327 802.832V868.688C532.327 872.656 533.543 875.728 535.975 877.904C538.407 880.08 541.799 881.168 546.151 881.168C550.503 881.168 554.727 879.376 558.823 875.792C562.919 872.208 564.967 867.536 564.967 861.776V794H593.767V868.688C593.767 872.144 594.599 874.896 596.263 876.944C597.927 878.864 600.487 879.824 603.943 879.824C607.399 879.824 611.367 877.968 615.847 874.256L619.303 878.864C609.063 888.208 598.631 892.88 588.007 892.88C577.383 892.88 570.343 888.144 566.887 878.672C561.895 883.92 556.711 887.632 551.335 889.808C546.087 891.856 539.303 892.88 530.983 892.88C522.791 892.88 516.135 890.384 511.015 885.392C506.023 880.272 503.527 873.36 503.527 864.656V800.336C496.487 802.128 491.111 805.264 487.399 809.744L482.215 803.792C485.927 799.952 490.599 796.88 496.231 794.576C501.991 792.272 507.623 791.12 513.127 791.12C518.759 791.12 523.367 792.272 526.951 794.576C530.535 796.752 532.327 799.504 532.327 802.832ZM730.093 754.832V868.688C730.093 872.144 730.925 874.896 732.589 876.944C734.253 878.864 736.621 879.824 739.693 879.824C742.893 879.824 746.733 877.968 751.213 874.256L755.629 878.864C745.389 888.208 735.149 892.88 724.909 892.88C712.749 892.88 705.261 887.184 702.445 875.792C695.789 887.184 685.997 892.88 673.069 892.88C658.349 892.88 647.149 888.144 639.469 878.672C631.789 869.072 627.949 856.912 627.949 842.192C627.949 827.344 632.045 815.12 640.237 805.52C648.557 795.92 660.141 791.12 674.989 791.12C686.381 791.12 695.149 795.664 701.293 804.752V752.336C694.253 754.128 688.877 757.264 685.165 761.744L679.981 755.792C683.693 751.952 688.365 748.88 693.997 746.576C699.757 744.272 705.389 743.12 710.893 743.12C716.525 743.12 721.133 744.272 724.717 746.576C728.301 748.752 730.093 751.504 730.093 754.832ZM663.085 812.816C659.501 819.984 657.709 829.712 657.709 842C657.709 854.288 659.501 864.016 663.085 871.184C666.669 878.352 672.109 881.936 679.405 881.936C686.829 881.936 692.461 878.352 696.301 871.184C700.269 863.888 702.253 854.16 702.253 842C702.253 829.84 700.269 820.176 696.301 813.008C692.461 805.712 686.829 802.064 679.405 802.064C672.109 802.064 666.669 805.648 663.085 812.816ZM754.277 803.792C757.989 799.952 762.661 796.88 768.293 794.576C774.053 792.272 779.685 791.12 785.189 791.12C790.821 791.12 795.429 792.272 799.013 794.576C802.597 796.752 804.389 799.504 804.389 802.832V861.008C804.389 865.104 805.669 868.24 808.229 870.416C810.789 872.464 813.989 873.488 817.829 873.488C826.021 873.488 832.997 869.968 838.757 862.928C844.645 855.888 847.589 846.864 847.589 835.856C847.589 829.712 846.373 823.248 843.941 816.464C841.637 818 838.693 818.768 835.109 818.768C831.525 818.768 828.261 817.36 825.317 814.544C822.501 811.6 821.093 808.08 821.093 803.984C821.093 799.888 822.501 796.432 825.317 793.616C828.261 790.672 831.909 789.2 836.261 789.2C840.613 789.2 844.325 790.864 847.397 794.192C850.597 797.392 852.901 801.68 854.309 807.056C856.613 816.4 857.765 826.768 857.765 838.16C857.765 849.424 856.421 860.752 853.733 872.144C851.173 883.536 847.717 893.328 843.365 901.52C839.141 909.712 834.341 916.816 828.965 922.832C817.957 934.864 806.757 940.88 795.365 940.88C792.293 940.88 789.733 940.176 787.685 938.768C785.765 937.488 783.525 935.056 780.965 931.472L770.981 917.648L775.973 912.464C782.117 913.488 787.493 914 792.101 914C806.437 914 818.149 909.456 827.237 900.368C836.325 891.28 843.493 876.496 848.741 856.016C840.805 878.032 826.213 889.04 804.965 889.04C796.773 889.04 789.797 886.288 784.037 880.784C778.405 875.152 775.589 867.216 775.589 856.976V800.336C768.549 802.128 763.173 805.264 759.461 809.744L754.277 803.792Z" fill="#EFFFC0"/>
<path d="M281.596 940.28V932.6H327.676C367.74 932.6 387.772 944.76 387.772 969.08C387.772 985.976 377.852 996.984 358.012 1002.1V1003.45C381.692 1007.03 393.532 1016.76 393.532 1032.63C393.532 1044.15 388.284 1052.79 377.788 1058.55C367.292 1064.18 352.508 1067 333.436 1067H281.596V1059.32H293.116V940.28H281.596ZM331.516 1006.9H321.916V1059.32H331.516C340.732 1059.32 348.412 1057.02 354.556 1052.41C360.7 1047.8 363.772 1041.4 363.772 1033.21C363.772 1024.89 360.7 1018.42 354.556 1013.82C348.412 1009.21 340.732 1006.9 331.516 1006.9ZM327.484 940.28H321.916V999.608H327.484C336.572 999.608 344.06 996.92 349.948 991.544C355.964 986.168 358.972 978.808 358.972 969.464C358.972 960.12 355.964 952.952 349.948 947.96C344.06 942.84 336.572 940.28 327.484 940.28ZM456.702 979.832V1045.69C456.702 1049.66 457.918 1052.73 460.35 1054.9C462.782 1057.08 466.174 1058.17 470.526 1058.17C474.878 1058.17 479.102 1056.38 483.198 1052.79C487.294 1049.21 489.342 1044.54 489.342 1038.78V971H518.142V1045.69C518.142 1049.14 518.974 1051.9 520.638 1053.94C522.302 1055.86 524.862 1056.82 528.318 1056.82C531.774 1056.82 535.742 1054.97 540.222 1051.26L543.678 1055.86C533.438 1065.21 523.006 1069.88 512.382 1069.88C501.758 1069.88 494.718 1065.14 491.262 1055.67C486.27 1060.92 481.086 1064.63 475.71 1066.81C470.462 1068.86 463.678 1069.88 455.358 1069.88C447.166 1069.88 440.51 1067.38 435.39 1062.39C430.398 1057.27 427.902 1050.36 427.902 1041.66V977.336C420.862 979.128 415.486 982.264 411.774 986.744L406.59 980.792C410.302 976.952 414.974 973.88 420.606 971.576C426.366 969.272 431.998 968.12 437.502 968.12C443.134 968.12 447.742 969.272 451.326 971.576C454.91 973.752 456.702 976.504 456.702 979.832ZM654.468 931.832V1045.69C654.468 1049.14 655.3 1051.9 656.964 1053.94C658.628 1055.86 660.996 1056.82 664.068 1056.82C667.268 1056.82 671.108 1054.97 675.588 1051.26L680.004 1055.86C669.764 1065.21 659.524 1069.88 649.284 1069.88C637.124 1069.88 629.636 1064.18 626.82 1052.79C620.164 1064.18 610.372 1069.88 597.444 1069.88C582.724 1069.88 571.524 1065.14 563.844 1055.67C556.164 1046.07 552.324 1033.91 552.324 1019.19C552.324 1004.34 556.42 992.12 564.612 982.52C572.932 972.92 584.516 968.12 599.364 968.12C610.756 968.12 619.524 972.664 625.668 981.752V929.336C618.628 931.128 613.252 934.264 609.54 938.744L604.356 932.792C608.068 928.952 612.74 925.88 618.372 923.576C624.132 921.272 629.764 920.12 635.268 920.12C640.9 920.12 645.508 921.272 649.092 923.576C652.676 925.752 654.468 928.504 654.468 931.832ZM587.46 989.816C583.876 996.984 582.084 1006.71 582.084 1019C582.084 1031.29 583.876 1041.02 587.46 1048.18C591.044 1055.35 596.484 1058.94 603.78 1058.94C611.204 1058.94 616.836 1055.35 620.676 1048.18C624.644 1040.89 626.628 1031.16 626.628 1019C626.628 1006.84 624.644 997.176 620.676 990.008C616.836 982.712 611.204 979.064 603.78 979.064C596.484 979.064 591.044 982.648 587.46 989.816ZM790.78 931.832V1045.69C790.78 1049.14 791.612 1051.9 793.276 1053.94C794.94 1055.86 797.308 1056.82 800.38 1056.82C803.58 1056.82 807.42 1054.97 811.9 1051.26L816.316 1055.86C806.076 1065.21 795.836 1069.88 785.596 1069.88C773.436 1069.88 765.948 1064.18 763.132 1052.79C756.476 1064.18 746.684 1069.88 733.756 1069.88C719.036 1069.88 707.836 1065.14 700.156 1055.67C692.476 1046.07 688.636 1033.91 688.636 1019.19C688.636 1004.34 692.732 992.12 700.924 982.52C709.244 972.92 720.828 968.12 735.676 968.12C747.068 968.12 755.836 972.664 761.98 981.752V929.336C754.94 931.128 749.564 934.264 745.852 938.744L740.668 932.792C744.38 928.952 749.052 925.88 754.684 923.576C760.444 921.272 766.076 920.12 771.58 920.12C777.212 920.12 781.82 921.272 785.404 923.576C788.988 925.752 790.78 928.504 790.78 931.832ZM723.772 989.816C720.188 996.984 718.396 1006.71 718.396 1019C718.396 1031.29 720.188 1041.02 723.772 1048.18C727.356 1055.35 732.796 1058.94 740.092 1058.94C747.516 1058.94 753.148 1055.35 756.988 1048.18C760.956 1040.89 762.94 1031.16 762.94 1019C762.94 1006.84 760.956 997.176 756.988 990.008C753.148 982.712 747.516 979.064 740.092 979.064C732.796 979.064 727.356 982.648 723.772 989.816ZM814.965 980.792C818.677 976.952 823.349 973.88 828.981 971.576C834.741 969.272 840.373 968.12 845.877 968.12C851.509 968.12 856.117 969.272 859.701 971.576C863.285 973.752 865.077 976.504 865.077 979.832V1038.01C865.077 1042.1 866.357 1045.24 868.917 1047.42C871.477 1049.46 874.677 1050.49 878.517 1050.49C886.709 1050.49 893.685 1046.97 899.445 1039.93C905.333 1032.89 908.277 1023.86 908.277 1012.86C908.277 1006.71 907.061 1000.25 904.629 993.464C902.325 995 899.381 995.768 895.797 995.768C892.213 995.768 888.949 994.36 886.005 991.544C883.189 988.6 881.781 985.08 881.781 980.984C881.781 976.888 883.189 973.432 886.005 970.616C888.949 967.672 892.597 966.2 896.949 966.2C901.301 966.2 905.013 967.864 908.085 971.192C911.285 974.392 913.589 978.68 914.997 984.056C917.301 993.4 918.453 1003.77 918.453 1015.16C918.453 1026.42 917.109 1037.75 914.421 1049.14C911.861 1060.54 908.405 1070.33 904.053 1078.52C899.829 1086.71 895.029 1093.82 889.653 1099.83C878.645 1111.86 867.445 1117.88 856.053 1117.88C852.981 1117.88 850.421 1117.18 848.373 1115.77C846.453 1114.49 844.213 1112.06 841.653 1108.47L831.669 1094.65L836.661 1089.46C842.805 1090.49 848.181 1091 852.789 1091C867.125 1091 878.837 1086.46 887.925 1077.37C897.013 1068.28 904.181 1053.5 909.429 1033.02C901.493 1055.03 886.901 1066.04 865.653 1066.04C857.461 1066.04 850.485 1063.29 844.725 1057.78C839.093 1052.15 836.277 1044.22 836.277 1033.98V977.336C829.237 979.128 823.861 982.264 820.149 986.744L814.965 980.792Z" fill="#EFFFC0"/>
<path d="M315.532 858.232C315.532 863.224 317.964 867.576 322.828 871.288C327.692 875 333.964 876.856 341.644 876.856C349.324 876.856 355.404 875 359.884 871.288C364.364 867.576 366.604 862.648 366.604 856.504C366.604 848.696 361.932 842.232 352.588 837.112L324.172 821.944C307.788 813.112 299.596 800.504 299.596 784.12C299.596 773.624 303.436 764.6 311.116 757.048C318.796 749.496 330.252 745.72 345.484 745.72C355.724 745.72 365.452 747.768 374.668 751.864C383.884 755.96 388.492 760.824 388.492 766.456C388.492 768.632 387.788 771.128 386.38 773.944L377.164 791.608L370.444 789.496V773.368C370.444 767.608 367.884 763.064 362.764 759.736C357.772 756.408 351.756 754.744 344.716 754.744C337.804 754.744 332.492 756.792 328.78 760.888C325.068 764.984 323.212 769.656 323.212 774.904C323.212 785.4 327.948 793.144 337.42 798.136L361.804 811C380.364 820.728 389.644 833.528 389.644 849.4C389.644 861.432 385.1 870.52 376.012 876.664C367.052 882.808 355.66 885.88 341.836 885.88C331.468 885.88 321.484 883.832 311.884 879.736C302.284 875.64 297.484 870.776 297.484 865.144C297.484 862.968 298.188 860.472 299.596 857.656L308.812 839.992L315.532 842.104V858.232ZM405.832 797.56V789.688H421.576V762.04H450.376V789.688H472.072V797.56H450.376V861.688C450.376 865.144 451.208 867.896 452.872 869.944C454.536 871.864 457.096 872.824 460.552 872.824C464.008 872.824 467.976 870.968 472.456 867.256L475.912 871.864C465.672 881.208 455.432 885.88 445.192 885.88C429.448 885.88 421.576 876.472 421.576 857.656V797.56H405.832ZM532.327 795.832V861.688C532.327 865.656 533.543 868.728 535.975 870.904C538.407 873.08 541.799 874.168 546.151 874.168C550.503 874.168 554.727 872.376 558.823 868.792C562.919 865.208 564.967 860.536 564.967 854.776V787H593.767V861.688C593.767 865.144 594.599 867.896 596.263 869.944C597.927 871.864 600.487 872.824 603.943 872.824C607.399 872.824 611.367 870.968 615.847 867.256L619.303 871.864C609.063 881.208 598.631 885.88 588.007 885.88C577.383 885.88 570.343 881.144 566.887 871.672C561.895 876.92 556.711 880.632 551.335 882.808C546.087 884.856 539.303 885.88 530.983 885.88C522.791 885.88 516.135 883.384 511.015 878.392C506.023 873.272 503.527 866.36 503.527 857.656V793.336C496.487 795.128 491.111 798.264 487.399 802.744L482.215 796.792C485.927 792.952 490.599 789.88 496.231 787.576C501.991 785.272 507.623 784.12 513.127 784.12C518.759 784.12 523.367 785.272 526.951 787.576C530.535 789.752 532.327 792.504 532.327 795.832ZM730.093 747.832V861.688C730.093 865.144 730.925 867.896 732.589 869.944C734.253 871.864 736.621 872.824 739.693 872.824C742.893 872.824 746.733 870.968 751.213 867.256L755.629 871.864C745.389 881.208 735.149 885.88 724.909 885.88C712.749 885.88 705.261 880.184 702.445 868.792C695.789 880.184 685.997 885.88 673.069 885.88C658.349 885.88 647.149 881.144 639.469 871.672C631.789 862.072 627.949 849.912 627.949 835.192C627.949 820.344 632.045 808.12 640.237 798.52C648.557 788.92 660.141 784.12 674.989 784.12C686.381 784.12 695.149 788.664 701.293 797.752V745.336C694.253 747.128 688.877 750.264 685.165 754.744L679.981 748.792C683.693 744.952 688.365 741.88 693.997 739.576C699.757 737.272 705.389 736.12 710.893 736.12C716.525 736.12 721.133 737.272 724.717 739.576C728.301 741.752 730.093 744.504 730.093 747.832ZM663.085 805.816C659.501 812.984 657.709 822.712 657.709 835C657.709 847.288 659.501 857.016 663.085 864.184C666.669 871.352 672.109 874.936 679.405 874.936C686.829 874.936 692.461 871.352 696.301 864.184C700.269 856.888 702.253 847.16 702.253 835C702.253 822.84 700.269 813.176 696.301 806.008C692.461 798.712 686.829 795.064 679.405 795.064C672.109 795.064 666.669 798.648 663.085 805.816ZM754.277 796.792C757.989 792.952 762.661 789.88 768.293 787.576C774.053 785.272 779.685 784.12 785.189 784.12C790.821 784.12 795.429 785.272 799.013 787.576C802.597 789.752 804.389 792.504 804.389 795.832V854.008C804.389 858.104 805.669 861.24 808.229 863.416C810.789 865.464 813.989 866.488 817.829 866.488C826.021 866.488 832.997 862.968 838.757 855.928C844.645 848.888 847.589 839.864 847.589 828.856C847.589 822.712 846.373 816.248 843.941 809.464C841.637 811 838.693 811.768 835.109 811.768C831.525 811.768 828.261 810.36 825.317 807.544C822.501 804.6 821.093 801.08 821.093 796.984C821.093 792.888 822.501 789.432 825.317 786.616C828.261 783.672 831.909 782.2 836.261 782.2C840.613 782.2 844.325 783.864 847.397 787.192C850.597 790.392 852.901 794.68 854.309 800.056C856.613 809.4 857.765 819.768 857.765 831.16C857.765 842.424 856.421 853.752 853.733 865.144C851.173 876.536 847.717 886.328 843.365 894.52C839.141 902.712 834.341 909.816 828.965 915.832C817.957 927.864 806.757 933.88 795.365 933.88C792.293 933.88 789.733 933.176 787.685 931.768C785.765 930.488 783.525 928.056 780.965 924.472L770.981 910.648L775.973 905.464C782.117 906.488 787.493 907 792.101 907C806.437 907 818.149 902.456 827.237 893.368C836.325 884.28 843.493 869.496 848.741 849.016C840.805 871.032 826.213 882.04 804.965 882.04C796.773 882.04 789.797 879.288 784.037 873.784C778.405 868.152 775.589 860.216 775.589 849.976V793.336C768.549 795.128 763.173 798.264 759.461 802.744L754.277 796.792Z" fill="#FFC446"/>
<path d="M281.596 933.28V925.6H327.676C367.74 925.6 387.772 937.76 387.772 962.08C387.772 978.976 377.852 989.984 358.012 995.104V996.448C381.692 1000.03 393.532 1009.76 393.532 1025.63C393.532 1037.15 388.284 1045.79 377.788 1051.55C367.292 1057.18 352.508 1060 333.436 1060H281.596V1052.32H293.116V933.28H281.596ZM331.516 999.904H321.916V1052.32H331.516C340.732 1052.32 348.412 1050.02 354.556 1045.41C360.7 1040.8 363.772 1034.4 363.772 1026.21C363.772 1017.89 360.7 1011.42 354.556 1006.82C348.412 1002.21 340.732 999.904 331.516 999.904ZM327.484 933.28H321.916V992.608H327.484C336.572 992.608 344.06 989.92 349.948 984.544C355.964 979.168 358.972 971.808 358.972 962.464C358.972 953.12 355.964 945.952 349.948 940.96C344.06 935.84 336.572 933.28 327.484 933.28ZM456.702 972.832V1038.69C456.702 1042.66 457.918 1045.73 460.35 1047.9C462.782 1050.08 466.174 1051.17 470.526 1051.17C474.878 1051.17 479.102 1049.38 483.198 1045.79C487.294 1042.21 489.342 1037.54 489.342 1031.78V964H518.142V1038.69C518.142 1042.14 518.974 1044.9 520.638 1046.94C522.302 1048.86 524.862 1049.82 528.318 1049.82C531.774 1049.82 535.742 1047.97 540.222 1044.26L543.678 1048.86C533.438 1058.21 523.006 1062.88 512.382 1062.88C501.758 1062.88 494.718 1058.14 491.262 1048.67C486.27 1053.92 481.086 1057.63 475.71 1059.81C470.462 1061.86 463.678 1062.88 455.358 1062.88C447.166 1062.88 440.51 1060.38 435.39 1055.39C430.398 1050.27 427.902 1043.36 427.902 1034.66V970.336C420.862 972.128 415.486 975.264 411.774 979.744L406.59 973.792C410.302 969.952 414.974 966.88 420.606 964.576C426.366 962.272 431.998 961.12 437.502 961.12C443.134 961.12 447.742 962.272 451.326 964.576C454.91 966.752 456.702 969.504 456.702 972.832ZM654.468 924.832V1038.69C654.468 1042.14 655.3 1044.9 656.964 1046.94C658.628 1048.86 660.996 1049.82 664.068 1049.82C667.268 1049.82 671.108 1047.97 675.588 1044.26L680.004 1048.86C669.764 1058.21 659.524 1062.88 649.284 1062.88C637.124 1062.88 629.636 1057.18 626.82 1045.79C620.164 1057.18 610.372 1062.88 597.444 1062.88C582.724 1062.88 571.524 1058.14 563.844 1048.67C556.164 1039.07 552.324 1026.91 552.324 1012.19C552.324 997.344 556.42 985.12 564.612 975.52C572.932 965.92 584.516 961.12 599.364 961.12C610.756 961.12 619.524 965.664 625.668 974.752V922.336C618.628 924.128 613.252 927.264 609.54 931.744L604.356 925.792C608.068 921.952 612.74 918.88 618.372 916.576C624.132 914.272 629.764 913.12 635.268 913.12C640.9 913.12 645.508 914.272 649.092 916.576C652.676 918.752 654.468 921.504 654.468 924.832ZM587.46 982.816C583.876 989.984 582.084 999.712 582.084 1012C582.084 1024.29 583.876 1034.02 587.46 1041.18C591.044 1048.35 596.484 1051.94 603.78 1051.94C611.204 1051.94 616.836 1048.35 620.676 1041.18C624.644 1033.89 626.628 1024.16 626.628 1012C626.628 999.84 624.644 990.176 620.676 983.008C616.836 975.712 611.204 972.064 603.78 972.064C596.484 972.064 591.044 975.648 587.46 982.816ZM790.78 924.832V1038.69C790.78 1042.14 791.612 1044.9 793.276 1046.94C794.94 1048.86 797.308 1049.82 800.38 1049.82C803.58 1049.82 807.42 1047.97 811.9 1044.26L816.316 1048.86C806.076 1058.21 795.836 1062.88 785.596 1062.88C773.436 1062.88 765.948 1057.18 763.132 1045.79C756.476 1057.18 746.684 1062.88 733.756 1062.88C719.036 1062.88 707.836 1058.14 700.156 1048.67C692.476 1039.07 688.636 1026.91 688.636 1012.19C688.636 997.344 692.732 985.12 700.924 975.52C709.244 965.92 720.828 961.12 735.676 961.12C747.068 961.12 755.836 965.664 761.98 974.752V922.336C754.94 924.128 749.564 927.264 745.852 931.744L740.668 925.792C744.38 921.952 749.052 918.88 754.684 916.576C760.444 914.272 766.076 913.12 771.58 913.12C777.212 913.12 781.82 914.272 785.404 916.576C788.988 918.752 790.78 921.504 790.78 924.832ZM723.772 982.816C720.188 989.984 718.396 999.712 718.396 1012C718.396 1024.29 720.188 1034.02 723.772 1041.18C727.356 1048.35 732.796 1051.94 740.092 1051.94C747.516 1051.94 753.148 1048.35 756.988 1041.18C760.956 1033.89 762.94 1024.16 762.94 1012C762.94 999.84 760.956 990.176 756.988 983.008C753.148 975.712 747.516 972.064 740.092 972.064C732.796 972.064 727.356 975.648 723.772 982.816ZM814.965 973.792C818.677 969.952 823.349 966.88 828.981 964.576C834.741 962.272 840.373 961.12 845.877 961.12C851.509 961.12 856.117 962.272 859.701 964.576C863.285 966.752 865.077 969.504 865.077 972.832V1031.01C865.077 1035.1 866.357 1038.24 868.917 1040.42C871.477 1042.46 874.677 1043.49 878.517 1043.49C886.709 1043.49 893.685 1039.97 899.445 1032.93C905.333 1025.89 908.277 1016.86 908.277 1005.86C908.277 999.712 907.061 993.248 904.629 986.464C902.325 988 899.381 988.768 895.797 988.768C892.213 988.768 888.949 987.36 886.005 984.544C883.189 981.6 881.781 978.08 881.781 973.984C881.781 969.888 883.189 966.432 886.005 963.616C888.949 960.672 892.597 959.2 896.949 959.2C901.301 959.2 905.013 960.864 908.085 964.192C911.285 967.392 913.589 971.68 914.997 977.056C917.301 986.4 918.453 996.768 918.453 1008.16C918.453 1019.42 917.109 1030.75 914.421 1042.14C911.861 1053.54 908.405 1063.33 904.053 1071.52C899.829 1079.71 895.029 1086.82 889.653 1092.83C878.645 1104.86 867.445 1110.88 856.053 1110.88C852.981 1110.88 850.421 1110.18 848.373 1108.77C846.453 1107.49 844.213 1105.06 841.653 1101.47L831.669 1087.65L836.661 1082.46C842.805 1083.49 848.181 1084 852.789 1084C867.125 1084 878.837 1079.46 887.925 1070.37C897.013 1061.28 904.181 1046.5 909.429 1026.02C901.493 1048.03 886.901 1059.04 865.653 1059.04C857.461 1059.04 850.485 1056.29 844.725 1050.78C839.093 1045.15 836.277 1037.22 836.277 1026.98V970.336C829.237 972.128 823.861 975.264 820.149 979.744L814.965 973.792Z" fill="#FFC446"/>
<defs>
<clipPath id="clip0_6_360">
<rect width="650" height="650" fill="white" transform="translate(256 50)"/>
</clipPath>
</defs>
</svg>
